[
  {
    "name": "A",
    "tracks": [
      {
        "name": "Acid Bass",
        "stepCount": 16,
        "midiChannel": 1,
        "cc1Number": 74,
        "cc2Number": 71,
        "cc1Label": "Cutoff",
        "cc2Label": "Reso",
        "direction": "FWD",
        "isMuted": false,
        "steps": [
          {"id":"AA000001-0000-0000-0000-000000000001","isActive":true, "note":36,"velocity":115,"gate":0.8,"probability":1.0,"ratchet":1,"cc1Value":100,"cc2Value":80},
          {"id":"AA000001-0000-0000-0000-000000000002","isActive":false,"note":36,"velocity":80, "gate":0.3,"probability":1.0,"ratchet":1,"cc1Value":90, "cc2Value":75},
          {"id":"AA000001-0000-0000-0000-000000000003","isActive":true, "note":36,"velocity":100,"gate":0.5,"probability":1.0,"ratchet":2,"cc1Value":110,"cc2Value":90},
          {"id":"AA000001-0000-0000-0000-000000000004","isActive":true, "note":43,"velocity":95, "gate":0.4,"probability":1.0,"ratchet":1,"cc1Value":105,"cc2Value":85},
          {"id":"AA000001-0000-0000-0000-000000000005","isActive":true, "note":46,"velocity":110,"gate":0.6,"probability":1.0,"ratchet":1,"cc1Value":115,"cc2Value":95},
          {"id":"AA000001-0000-0000-0000-000000000006","isActive":false,"note":46,"velocity":80, "gate":0.3,"probability":1.0,"ratchet":1,"cc1Value":100,"cc2Value":80},
          {"id":"AA000001-0000-0000-0000-000000000007","isActive":true, "note":48,"velocity":105,"gate":0.5,"probability":1.0,"ratchet":2,"cc1Value":118,"cc2Value":98},
          {"id":"AA000001-0000-0000-0000-000000000008","isActive":true, "note":46,"velocity":90, "gate":0.4,"probability":1.0,"ratchet":1,"cc1Value":108,"cc2Value":88},
          {"id":"AA000001-0000-0000-0000-000000000009","isActive":true, "note":43,"velocity":115,"gate":0.7,"probability":1.0,"ratchet":1,"cc1Value":112,"cc2Value":92},
          {"id":"AA000001-0000-0000-0000-00000000000A","isActive":false,"note":43,"velocity":80, "gate":0.3,"probability":1.0,"ratchet":1,"cc1Value":98, "cc2Value":78},
          {"id":"AA000001-0000-0000-0000-00000000000B","isActive":true, "note":40,"velocity":100,"gate":0.5,"probability":1.0,"ratchet":1,"cc1Value":105,"cc2Value":85},
          {"id":"AA000001-0000-0000-0000-00000000000C","isActive":true, "note":43,"velocity":95, "gate":0.4,"probability":1.0,"ratchet":2,"cc1Value":110,"cc2Value":90},
          {"id":"AA000001-0000-0000-0000-00000000000D","isActive":true, "note":36,"velocity":120,"gate":0.8,"probability":1.0,"ratchet":1,"cc1Value":120,"cc2Value":100},
          {"id":"AA000001-0000-0000-0000-00000000000E","isActive":false,"note":36,"velocity":85, "gate":0.3,"probability":1.0,"ratchet":1,"cc1Value":95, "cc2Value":75},
          {"id":"AA000001-0000-0000-0000-00000000000F","isActive":true, "note":36,"velocity":105,"gate":0.6,"probability":1.0,"ratchet":4,"cc1Value":127,"cc2Value":110},
          {"id":"AA000001-0000-0000-0000-000000000010","isActive":false,"note":48,"velocity":90, "gate":0.3,"probability":1.0,"ratchet":1,"cc1Value":90, "cc2Value":70}
        ]
      },
      {
        "name": "Hi-Hat 16",
        "stepCount": 16,
        "midiChannel": 10,
        "cc1Number": 74,
        "cc2Number": 71,
        "cc1Label": "Decay",
        "cc2Label": "Open",
        "direction": "FWD",
        "isMuted": false,
        "steps": [
          {"id":"AB000001-0000-0000-0000-000000000001","isActive":true, "note":42,"velocity":80, "gate":0.1,"probability":1.0,"ratchet":1,"cc1Value":40,"cc2Value":0},
          {"id":"AB000001-0000-0000-0000-000000000002","isActive":true, "note":42,"velocity":65, "gate":0.1,"probability":1.0,"ratchet":1,"cc1Value":35,"cc2Value":0},
          {"id":"AB000001-0000-0000-0000-000000000003","isActive":true, "note":42,"velocity":75, "gate":0.1,"probability":1.0,"ratchet":1,"cc1Value":38,"cc2Value":0},
          {"id":"AB000001-0000-0000-0000-000000000004","isActive":true, "note":42,"velocity":65, "gate":0.1,"probability":1.0,"ratchet":1,"cc1Value":35,"cc2Value":0},
          {"id":"AB000001-0000-0000-0000-000000000005","isActive":true, "note":42,"velocity":80, "gate":0.1,"probability":1.0,"ratchet":1,"cc1Value":40,"cc2Value":0},
          {"id":"AB000001-0000-0000-0000-000000000006","isActive":true, "note":42,"velocity":65, "gate":0.1,"probability":1.0,"ratchet":1,"cc1Value":35,"cc2Value":0},
          {"id":"AB000001-0000-0000-0000-000000000007","isActive":true, "note":46,"velocity":70, "gate":0.3,"probability":1.0,"ratchet":1,"cc1Value":50,"cc2Value":80},
          {"id":"AB000001-0000-0000-0000-000000000008","isActive":true, "note":42,"velocity":65, "gate":0.1,"probability":1.0,"ratchet":1,"cc1Value":35,"cc2Value":0},
          {"id":"AB000001-0000-0000-0000-000000000009","isActive":true, "note":42,"velocity":80, "gate":0.1,"probability":1.0,"ratchet":1,"cc1Value":40,"cc2Value":0},
          {"id":"AB000001-0000-0000-0000-00000000000A","isActive":true, "note":42,"velocity":65, "gate":0.1,"probability":1.0,"ratchet":1,"cc1Value":35,"cc2Value":0},
          {"id":"AB000001-0000-0000-0000-00000000000B","isActive":true, "note":42,"velocity":75, "gate":0.1,"probability":1.0,"ratchet":1,"cc1Value":38,"cc2Value":0},
          {"id":"AB000001-0000-0000-0000-00000000000C","isActive":true, "note":42,"velocity":65, "gate":0.1,"probability":0.75,"ratchet":1,"cc1Value":35,"cc2Value":0},
          {"id":"AB000001-0000-0000-0000-00000000000D","isActive":true, "note":42,"velocity":80, "gate":0.1,"probability":1.0,"ratchet":1,"cc1Value":40,"cc2Value":0},
          {"id":"AB000001-0000-0000-0000-00000000000E","isActive":true, "note":42,"velocity":65, "gate":0.1,"probability":1.0,"ratchet":2,"cc1Value":35,"cc2Value":0},
          {"id":"AB000001-0000-0000-0000-00000000000F","isActive":true, "note":46,"velocity":72, "gate":0.3,"probability":1.0,"ratchet":1,"cc1Value":50,"cc2Value":80},
          {"id":"AB000001-0000-0000-0000-000000000010","isActive":true, "note":42,"velocity":65, "gate":0.1,"probability":1.0,"ratchet":1,"cc1Value":35,"cc2Value":0}
        ]
      },
      {
        "name": "Kick+Snare",
        "stepCount": 16,
        "midiChannel": 10,
        "cc1Number": 74,
        "cc2Number": 71,
        "cc1Label": "Punch",
        "cc2Label": "Body",
        "direction": "FWD",
        "isMuted": false,
        "steps": [
          {"id":"AC000001-0000-0000-0000-000000000001","isActive":true, "note":36,"velocity":120,"gate":0.3,"probability":1.0,"ratchet":1,"cc1Value":100,"cc2Value":80},
          {"id":"AC000001-0000-0000-0000-000000000002","isActive":false,"note":36,"velocity":80, "gate":0.2,"probability":1.0,"ratchet":1,"cc1Value":64, "cc2Value":64},
          {"id":"AC000001-0000-0000-0000-000000000003","isActive":false,"note":38,"velocity":100,"gate":0.3,"probability":1.0,"ratchet":1,"cc1Value":64, "cc2Value":64},
          {"id":"AC000001-0000-0000-0000-000000000004","isActive":false,"note":38,"velocity":80, "gate":0.2,"probability":1.0,"ratchet":1,"cc1Value":64, "cc2Value":64},
          {"id":"AC000001-0000-0000-0000-000000000005","isActive":true, "note":38,"velocity":110,"gate":0.3,"probability":1.0,"ratchet":1,"cc1Value":90, "cc2Value":75},
          {"id":"AC000001-0000-0000-0000-000000000006","isActive":false,"note":38,"velocity":80, "gate":0.2,"probability":1.0,"ratchet":1,"cc1Value":64, "cc2Value":64},
          {"id":"AC000001-0000-0000-0000-000000000007","isActive":false,"note":36,"velocity":90, "gate":0.2,"probability":0.5,"ratchet":1,"cc1Value":80, "cc2Value":64},
          {"id":"AC000001-0000-0000-0000-000000000008","isActive":false,"note":38,"velocity":80, "gate":0.2,"probability":1.0,"ratchet":1,"cc1Value":64, "cc2Value":64},
          {"id":"AC000001-0000-0000-0000-000000000009","isActive":true, "note":36,"velocity":115,"gate":0.3,"probability":1.0,"ratchet":1,"cc1Value":95, "cc2Value":78},
          {"id":"AC000001-0000-0000-0000-00000000000A","isActive":false,"note":36,"velocity":80, "gate":0.2,"probability":1.0,"ratchet":1,"cc1Value":64, "cc2Value":64},
          {"id":"AC000001-0000-0000-0000-00000000000B","isActive":false,"note":38,"velocity":100,"gate":0.3,"probability":1.0,"ratchet":1,"cc1Value":64, "cc2Value":64},
          {"id":"AC000001-0000-0000-0000-00000000000C","isActive":false,"note":38,"velocity":80, "gate":0.2,"probability":0.75,"ratchet":1,"cc1Value":64, "cc2Value":64},
          {"id":"AC000001-0000-0000-0000-00000000000D","isActive":true, "note":38,"velocity":112,"gate":0.3,"probability":1.0,"ratchet":1,"cc1Value":92, "cc2Value":76},
          {"id":"AC000001-0000-0000-0000-00000000000E","isActive":false,"note":38,"velocity":80, "gate":0.2,"probability":1.0,"ratchet":1,"cc1Value":64, "cc2Value":64},
          {"id":"AC000001-0000-0000-0000-00000000000F","isActive":true, "note":36,"velocity":100,"gate":0.3,"probability":0.75,"ratchet":1,"cc1Value":85, "cc2Value":70},
          {"id":"AC000001-0000-0000-0000-000000000010","isActive":false,"note":36,"velocity":80, "gate":0.2,"probability":1.0,"ratchet":1,"cc1Value":64, "cc2Value":64}
        ]
      },
      {
        "name": "Chord Stab",
        "stepCount": 16,
        "midiChannel": 4,
        "cc1Number": 74,
        "cc2Number": 71,
        "cc1Label": "Cutoff",
        "cc2Label": "Reso",
        "direction": "FWD",
        "isMuted": false,
        "steps": [
          {"id":"AD000001-0000-0000-0000-000000000001","isActive":false,"note":60,"velocity":90, "gate":0.2,"probability":1.0,"ratchet":1,"cc1Value":80,"cc2Value":60},
          {"id":"AD000001-0000-0000-0000-000000000002","isActive":false,"note":60,"velocity":80, "gate":0.2,"probability":1.0,"ratchet":1,"cc1Value":78,"cc2Value":58},
          {"id":"AD000001-0000-0000-0000-000000000003","isActive":false,"note":60,"velocity":80, "gate":0.2,"probability":1.0,"ratchet":1,"cc1Value":76,"cc2Value":56},
          {"id":"AD000001-0000-0000-0000-000000000004","isActive":true, "note":60,"velocity":95, "gate":0.15,"probability":1.0,"ratchet":1,"cc1Value":90,"cc2Value":65},
          {"id":"AD000001-0000-0000-0000-000000000005","isActive":false,"note":60,"velocity":80, "gate":0.2,"probability":1.0,"ratchet":1,"cc1Value":82,"cc2Value":60},
          {"id":"AD000001-0000-0000-0000-000000000006","isActive":false,"note":60,"velocity":80, "gate":0.2,"probability":1.0,"ratchet":1,"cc1Value":80,"cc2Value":58},
          {"id":"AD000001-0000-0000-0000-000000000007","isActive":false,"note":60,"velocity":80, "gate":0.2,"probability":1.0,"ratchet":1,"cc1Value":78,"cc2Value":56},
          {"id":"AD000001-0000-0000-0000-000000000008","isActive":true, "note":58,"velocity":92, "gate":0.15,"probability":0.75,"ratchet":1,"cc1Value":88,"cc2Value":63},
          {"id":"AD000001-0000-0000-0000-000000000009","isActive":false,"note":60,"velocity":80, "gate":0.2,"probability":1.0,"ratchet":1,"cc1Value":84,"cc2Value":62},
          {"id":"AD000001-0000-0000-0000-00000000000A","isActive":false,"note":60,"velocity":80, "gate":0.2,"probability":1.0,"ratchet":1,"cc1Value":82,"cc2Value":60},
          {"id":"AD000001-0000-0000-0000-00000000000B","isActive":false,"note":60,"velocity":80, "gate":0.2,"probability":1.0,"ratchet":1,"cc1Value":80,"cc2Value":58},
          {"id":"AD000001-0000-0000-0000-00000000000C","isActive":true, "note":60,"velocity":98, "gate":0.15,"probability":1.0,"ratchet":1,"cc1Value":92,"cc2Value":68},
          {"id":"AD000001-0000-0000-0000-00000000000D","isActive":false,"note":60,"velocity":80, "gate":0.2,"probability":1.0,"ratchet":1,"cc1Value":86,"cc2Value":63},
          {"id":"AD000001-0000-0000-0000-00000000000E","isActive":false,"note":60,"velocity":80, "gate":0.2,"probability":1.0,"ratchet":1,"cc1Value":84,"cc2Value":62},
          {"id":"AD000001-0000-0000-0000-00000000000F","isActive":true, "note":55,"velocity":100,"gate":0.15,"probability":1.0,"ratchet":2,"cc1Value":95,"cc2Value":70},
          {"id":"AD000001-0000-0000-0000-000000000010","isActive":false,"note":58,"velocity":80, "gate":0.2,"probability":1.0,"ratchet":1,"cc1Value":80,"cc2Value":58}
        ]
      }
    ]
  },
  {
    "name": "B",
    "tracks": [
      {
        "name": "Acid Bass",
        "stepCount": 16,
        "midiChannel": 1,
        "cc1Number": 74,
        "cc2Number": 71,
        "cc1Label": "Cutoff",
        "cc2Label": "Reso",
        "direction": "FWD",
        "isMuted": false,
        "steps": [
          {"id":"BA000001-0000-0000-0000-000000000001","isActive":true, "note":36,"velocity":120,"gate":0.9,"probability":1.0,"ratchet":1,"cc1Value":80,"cc2Value":60},
          {"id":"BA000001-0000-0000-0000-000000000002","isActive":true, "note":36,"velocity":90, "gate":0.4,"probability":1.0,"ratchet":1,"cc1Value":85,"cc2Value":65},
          {"id":"BA000001-0000-0000-0000-000000000003","isActive":false,"note":36,"velocity":80, "gate":0.3,"probability":1.0,"ratchet":1,"cc1Value":90,"cc2Value":70},
          {"id":"BA000001-0000-0000-0000-000000000004","isActive":true, "note":48,"velocity":100,"gate":0.5,"probability":1.0,"ratchet":2,"cc1Value":100,"cc2Value":80},
          {"id":"BA000001-0000-0000-0000-000000000005","isActive":true, "note":43,"velocity":110,"gate":0.6,"probability":1.0,"ratchet":1,"cc1Value":110,"cc2Value":88},
          {"id":"BA000001-0000-0000-0000-000000000006","isActive":false,"note":43,"velocity":80, "gate":0.3,"probability":1.0,"ratchet":1,"cc1Value":105,"cc2Value":83},
          {"id":"BA000001-0000-0000-0000-000000000007","isActive":true, "note":46,"velocity":105,"gate":0.5,"probability":1.0,"ratchet":1,"cc1Value":112,"cc2Value":90},
          {"id":"BA000001-0000-0000-0000-000000000008","isActive":true, "note":43,"velocity":95, "gate":0.4,"probability":1.0,"ratchet":2,"cc1Value":115,"cc2Value":92},
          {"id":"BA000001-0000-0000-0000-000000000009","isActive":true, "note":36,"velocity":118,"gate":0.8,"probability":1.0,"ratchet":1,"cc1Value":118,"cc2Value":95},
          {"id":"BA000001-0000-0000-0000-00000000000A","isActive":false,"note":36,"velocity":80, "gate":0.3,"probability":1.0,"ratchet":1,"cc1Value":112,"cc2Value":88},
          {"id":"BA000001-0000-0000-0000-00000000000B","isActive":true, "note":40,"velocity":100,"gate":0.5,"probability":1.0,"ratchet":1,"cc1Value":108,"cc2Value":85},
          {"id":"BA000001-0000-0000-0000-00000000000C","isActive":false,"note":40,"velocity":80, "gate":0.3,"probability":1.0,"ratchet":1,"cc1Value":102,"cc2Value":80},
          {"id":"BA000001-0000-0000-0000-00000000000D","isActive":true, "note":36,"velocity":115,"gate":0.7,"probability":1.0,"ratchet":1,"cc1Value":120,"cc2Value":100},
          {"id":"BA000001-0000-0000-0000-00000000000E","isActive":true, "note":48,"velocity":95, "gate":0.4,"probability":1.0,"ratchet":4,"cc1Value":127,"cc2Value":110},
          {"id":"BA000001-0000-0000-0000-00000000000F","isActive":true, "note":43,"velocity":108,"gate":0.6,"probability":1.0,"ratchet":1,"cc1Value":115,"cc2Value":92},
          {"id":"BA000001-0000-0000-0000-000000000010","isActive":false,"note":36,"velocity":85, "gate":0.3,"probability":1.0,"ratchet":1,"cc1Value":90,"cc2Value":70}
        ]
      },
      {
        "name": "Hi-Hat 16",
        "stepCount": 16,
        "midiChannel": 10,
        "cc1Number": 74,
        "cc2Number": 71,
        "cc1Label": "Decay",
        "cc2Label": "Open",
        "direction": "FWD",
        "isMuted": false,
        "steps": [
          {"id":"BB000001-0000-0000-0000-000000000001","isActive":true, "note":42,"velocity":85, "gate":0.1,"probability":1.0,"ratchet":1,"cc1Value":40,"cc2Value":0},
          {"id":"BB000001-0000-0000-0000-000000000002","isActive":true, "note":42,"velocity":65, "gate":0.1,"probability":1.0,"ratchet":1,"cc1Value":35,"cc2Value":0},
          {"id":"BB000001-0000-0000-0000-000000000003","isActive":true, "note":42,"velocity":78, "gate":0.1,"probability":1.0,"ratchet":1,"cc1Value":38,"cc2Value":0},
          {"id":"BB000001-0000-0000-0000-000000000004","isActive":true, "note":42,"velocity":65, "gate":0.1,"probability":1.0,"ratchet":2,"cc1Value":35,"cc2Value":0},
          {"id":"BB000001-0000-0000-0000-000000000005","isActive":true, "note":42,"velocity":85, "gate":0.1,"probability":1.0,"ratchet":1,"cc1Value":40,"cc2Value":0},
          {"id":"BB000001-0000-0000-0000-000000000006","isActive":true, "note":42,"velocity":65, "gate":0.1,"probability":1.0,"ratchet":1,"cc1Value":35,"cc2Value":0},
          {"id":"BB000001-0000-0000-0000-000000000007","isActive":true, "note":46,"velocity":75, "gate":0.4,"probability":1.0,"ratchet":1,"cc1Value":55,"cc2Value":90},
          {"id":"BB000001-0000-0000-0000-000000000008","isActive":true, "note":42,"velocity":65, "gate":0.1,"probability":0.75,"ratchet":1,"cc1Value":35,"cc2Value":0},
          {"id":"BB000001-0000-0000-0000-000000000009","isActive":true, "note":42,"velocity":85, "gate":0.1,"probability":1.0,"ratchet":1,"cc1Value":40,"cc2Value":0},
          {"id":"BB000001-0000-0000-0000-00000000000A","isActive":true, "note":42,"velocity":65, "gate":0.1,"probability":1.0,"ratchet":1,"cc1Value":35,"cc2Value":0},
          {"id":"BB000001-0000-0000-0000-00000000000B","isActive":true, "note":42,"velocity":78, "gate":0.1,"probability":1.0,"ratchet":2,"cc1Value":38,"cc2Value":0},
          {"id":"BB000001-0000-0000-0000-00000000000C","isActive":true, "note":42,"velocity":65, "gate":0.1,"probability":1.0,"ratchet":1,"cc1Value":35,"cc2Value":0},
          {"id":"BB000001-0000-0000-0000-00000000000D","isActive":true, "note":42,"velocity":85, "gate":0.1,"probability":1.0,"ratchet":1,"cc1Value":40,"cc2Value":0},
          {"id":"BB000001-0000-0000-0000-00000000000E","isActive":true, "note":46,"velocity":70, "gate":0.4,"probability":1.0,"ratchet":1,"cc1Value":55,"cc2Value":90},
          {"id":"BB000001-0000-0000-0000-00000000000F","isActive":true, "note":42,"velocity":65, "gate":0.1,"probability":1.0,"ratchet":1,"cc1Value":35,"cc2Value":0},
          {"id":"BB000001-0000-0000-0000-000000000010","isActive":false,"note":42,"velocity":55, "gate":0.1,"probability":1.0,"ratchet":1,"cc1Value":30,"cc2Value":0}
        ]
      },
      {
        "name": "Kick+Snare",
        "stepCount": 16,
        "midiChannel": 10,
        "cc1Number": 74,
        "cc2Number": 71,
        "cc1Label": "Punch",
        "cc2Label": "Body",
        "direction": "FWD",
        "isMuted": false,
        "steps": [
          {"id":"BC000001-0000-0000-0000-000000000001","isActive":true, "note":36,"velocity":120,"gate":0.3,"probability":1.0,"ratchet":1,"cc1Value":100,"cc2Value":80},
          {"id":"BC000001-0000-0000-0000-000000000002","isActive":false,"note":36,"velocity":80, "gate":0.2,"probability":1.0,"ratchet":1,"cc1Value":64, "cc2Value":64},
          {"id":"BC000001-0000-0000-0000-000000000003","isActive":false,"note":38,"velocity":100,"gate":0.3,"probability":1.0,"ratchet":1,"cc1Value":64, "cc2Value":64},
          {"id":"BC000001-0000-0000-0000-000000000004","isActive":false,"note":38,"velocity":80, "gate":0.2,"probability":1.0,"ratchet":1,"cc1Value":64, "cc2Value":64},
          {"id":"BC000001-0000-0000-0000-000000000005","isActive":true, "note":38,"velocity":112,"gate":0.3,"probability":1.0,"ratchet":1,"cc1Value":92, "cc2Value":76},
          {"id":"BC000001-0000-0000-0000-000000000006","isActive":false,"note":38,"velocity":80, "gate":0.2,"probability":1.0,"ratchet":1,"cc1Value":64, "cc2Value":64},
          {"id":"BC000001-0000-0000-0000-000000000007","isActive":true, "note":36,"velocity":95, "gate":0.2,"probability":0.5,"ratchet":1,"cc1Value":82, "cc2Value":66},
          {"id":"BC000001-0000-0000-0000-000000000008","isActive":false,"note":38,"velocity":80, "gate":0.2,"probability":1.0,"ratchet":1,"cc1Value":64, "cc2Value":64},
          {"id":"BC000001-0000-0000-0000-000000000009","isActive":true, "note":36,"velocity":118,"gate":0.3,"probability":1.0,"ratchet":1,"cc1Value":98, "cc2Value":80},
          {"id":"BC000001-0000-0000-0000-00000000000A","isActive":false,"note":36,"velocity":80, "gate":0.2,"probability":1.0,"ratchet":1,"cc1Value":64, "cc2Value":64},
          {"id":"BC000001-0000-0000-0000-00000000000B","isActive":false,"note":38,"velocity":100,"gate":0.3,"probability":1.0,"ratchet":1,"cc1Value":64, "cc2Value":64},
          {"id":"BC000001-0000-0000-0000-00000000000C","isActive":true, "note":36,"velocity":90, "gate":0.2,"probability":0.75,"ratchet":1,"cc1Value":80, "cc2Value":64},
          {"id":"BC000001-0000-0000-0000-00000000000D","isActive":true, "note":38,"velocity":115,"gate":0.3,"probability":1.0,"ratchet":1,"cc1Value":95, "cc2Value":78},
          {"id":"BC000001-0000-0000-0000-00000000000E","isActive":false,"note":38,"velocity":80, "gate":0.2,"probability":1.0,"ratchet":1,"cc1Value":64, "cc2Value":64},
          {"id":"BC000001-0000-0000-0000-00000000000F","isActive":true, "note":36,"velocity":105,"gate":0.3,"probability":1.0,"ratchet":2,"cc1Value":88, "cc2Value":72},
          {"id":"BC000001-0000-0000-0000-000000000010","isActive":false,"note":36,"velocity":80, "gate":0.2,"probability":1.0,"ratchet":1,"cc1Value":64, "cc2Value":64}
        ]
      },
      {
        "name": "Chord Stab",
        "stepCount": 16,
        "midiChannel": 4,
        "cc1Number": 74,
        "cc2Number": 71,
        "cc1Label": "Cutoff",
        "cc2Label": "Reso",
        "direction": "FWD",
        "isMuted": false,
        "steps": [
          {"id":"BD000001-0000-0000-0000-000000000001","isActive":false,"note":60,"velocity":80, "gate":0.15,"probability":1.0,"ratchet":1,"cc1Value":70,"cc2Value":50},
          {"id":"BD000001-0000-0000-0000-000000000002","isActive":false,"note":60,"velocity":80, "gate":0.15,"probability":1.0,"ratchet":1,"cc1Value":72,"cc2Value":52},
          {"id":"BD000001-0000-0000-0000-000000000003","isActive":true, "note":60,"velocity":98, "gate":0.12,"probability":1.0,"ratchet":1,"cc1Value":88,"cc2Value":65},
          {"id":"BD000001-0000-0000-0000-000000000004","isActive":false,"note":60,"velocity":80, "gate":0.15,"probability":1.0,"ratchet":1,"cc1Value":82,"cc2Value":60},
          {"id":"BD000001-0000-0000-0000-000000000005","isActive":false,"note":60,"velocity":80, "gate":0.15,"probability":1.0,"ratchet":1,"cc1Value":80,"cc2Value":58},
          {"id":"BD000001-0000-0000-0000-000000000006","isActive":true, "note":58,"velocity":95, "gate":0.12,"probability":0.75,"ratchet":1,"cc1Value":86,"cc2Value":63},
          {"id":"BD000001-0000-0000-0000-000000000007","isActive":false,"note":60,"velocity":80, "gate":0.15,"probability":1.0,"ratchet":1,"cc1Value":84,"cc2Value":62},
          {"id":"BD000001-0000-0000-0000-000000000008","isActive":false,"note":60,"velocity":80, "gate":0.15,"probability":1.0,"ratchet":1,"cc1Value":82,"cc2Value":60},
          {"id":"BD000001-0000-0000-0000-000000000009","isActive":true, "note":60,"velocity":100,"gate":0.12,"probability":1.0,"ratchet":1,"cc1Value":90,"cc2Value":68},
          {"id":"BD000001-0000-0000-0000-00000000000A","isActive":false,"note":60,"velocity":80, "gate":0.15,"probability":1.0,"ratchet":1,"cc1Value":88,"cc2Value":65},
          {"id":"BD000001-0000-0000-0000-00000000000B","isActive":false,"note":60,"velocity":80, "gate":0.15,"probability":1.0,"ratchet":1,"cc1Value":86,"cc2Value":63},
          {"id":"BD000001-0000-0000-0000-00000000000C","isActive":false,"note":60,"velocity":80, "gate":0.15,"probability":1.0,"ratchet":1,"cc1Value":84,"cc2Value":62},
          {"id":"BD000001-0000-0000-0000-00000000000D","isActive":true, "note":55,"velocity":102,"gate":0.12,"probability":1.0,"ratchet":1,"cc1Value":92,"cc2Value":70},
          {"id":"BD000001-0000-0000-0000-00000000000E","isActive":false,"note":58,"velocity":80, "gate":0.15,"probability":1.0,"ratchet":1,"cc1Value":88,"cc2Value":65},
          {"id":"BD000001-0000-0000-0000-00000000000F","isActive":true, "note":53,"velocity":105,"gate":0.12,"probability":1.0,"ratchet":2,"cc1Value":95,"cc2Value":72},
          {"id":"BD000001-0000-0000-0000-000000000010","isActive":false,"note":55,"velocity":80, "gate":0.15,"probability":1.0,"ratchet":1,"cc1Value":80,"cc2Value":58}
        ]
      }
    ]
  },
  {
    "name": "C",
    "tracks": [
      {
        "name": "Acid Bass",
        "stepCount": 16,
        "midiChannel": 1,
        "cc1Number": 74,
        "cc2Number": 71,
        "cc1Label": "Cutoff",
        "cc2Label": "Reso",
        "direction": "FWD",
        "isMuted": false,
        "steps": [
          {"id":"CA000001-0000-0000-0000-000000000001","isActive":true, "note":36,"velocity":120,"gate":0.9,"probability":1.0,"ratchet":1,"cc1Value":20,"cc2Value":100},
          {"id":"CA000001-0000-0000-0000-000000000002","isActive":false,"note":36,"velocity":80, "gate":0.3,"probability":1.0,"ratchet":1,"cc1Value":28,"cc2Value":100},
          {"id":"CA000001-0000-0000-0000-000000000003","isActive":true, "note":36,"velocity":100,"gate":0.5,"probability":1.0,"ratchet":2,"cc1Value":40,"cc2Value":98},
          {"id":"CA000001-0000-0000-0000-000000000004","isActive":false,"note":43,"velocity":80, "gate":0.3,"probability":1.0,"ratchet":1,"cc1Value":52,"cc2Value":96},
          {"id":"CA000001-0000-0000-0000-000000000005","isActive":true, "note":43,"velocity":110,"gate":0.6,"probability":1.0,"ratchet":1,"cc1Value":64,"cc2Value":94},
          {"id":"CA000001-0000-0000-0000-000000000006","isActive":false,"note":43,"velocity":80, "gate":0.3,"probability":1.0,"ratchet":1,"cc1Value":76,"cc2Value":92},
          {"id":"CA000001-0000-0000-0000-000000000007","isActive":true, "note":46,"velocity":105,"gate":0.5,"probability":1.0,"ratchet":1,"cc1Value":88,"cc2Value":88},
          {"id":"CA000001-0000-0000-0000-000000000008","isActive":true, "note":48,"velocity":100,"gate":0.4,"probability":1.0,"ratchet":2,"cc1Value":100,"cc2Value":84},
          {"id":"CA000001-0000-0000-0000-000000000009","isActive":true, "note":48,"velocity":115,"gate":0.7,"probability":1.0,"ratchet":1,"cc1Value":110,"cc2Value":80},
          {"id":"CA000001-0000-0000-0000-00000000000A","isActive":false,"note":48,"velocity":80, "gate":0.3,"probability":1.0,"ratchet":1,"cc1Value":112,"cc2Value":78},
          {"id":"CA000001-0000-0000-0000-00000000000B","isActive":true, "note":46,"velocity":105,"gate":0.5,"probability":1.0,"ratchet":1,"cc1Value":114,"cc2Value":76},
          {"id":"CA000001-0000-0000-0000-00000000000C","isActive":true, "note":43,"velocity":100,"gate":0.4,"probability":1.0,"ratchet":2,"cc1Value":118,"cc2Value":72},
          {"id":"CA000001-0000-0000-0000-00000000000D","isActive":true, "note":36,"velocity":118,"gate":0.8,"probability":1.0,"ratchet":1,"cc1Value":124,"cc2Value":68},
          {"id":"CA000001-0000-0000-0000-00000000000E","isActive":true, "note":36,"velocity":112,"gate":0.6,"probability":1.0,"ratchet":4,"cc1Value":127,"cc2Value":64},
          {"id":"CA000001-0000-0000-0000-00000000000F","isActive":false,"note":36,"velocity":80, "gate":0.3,"probability":1.0,"ratchet":1,"cc1Value":122,"cc2Value":62},
          {"id":"CA000001-0000-0000-0000-000000000010","isActive":true, "note":36,"velocity":120,"gate":0.9,"probability":1.0,"ratchet":1,"cc1Value":118,"cc2Value":60}
        ]
      },
      {
        "name": "Hi-Hat 16",
        "stepCount": 16,
        "midiChannel": 10,
        "cc1Number": 74,
        "cc2Number": 71,
        "cc1Label": "Decay",
        "cc2Label": "Open",
        "direction": "FWD",
        "isMuted": false,
        "steps": [
          {"id":"CB000001-0000-0000-0000-000000000001","isActive":true,"note":42,"velocity":90,"gate":0.1,"probability":1.0,"ratchet":1,"cc1Value":40,"cc2Value":0},
          {"id":"CB000001-0000-0000-0000-000000000002","isActive":true,"note":42,"velocity":70,"gate":0.1,"probability":1.0,"ratchet":1,"cc1Value":35,"cc2Value":0},
          {"id":"CB000001-0000-0000-0000-000000000003","isActive":true,"note":42,"velocity":80,"gate":0.1,"probability":1.0,"ratchet":1,"cc1Value":38,"cc2Value":0},
          {"id":"CB000001-0000-0000-0000-000000000004","isActive":true,"note":42,"velocity":70,"gate":0.1,"probability":1.0,"ratchet":1,"cc1Value":35,"cc2Value":0},
          {"id":"CB000001-0000-0000-0000-000000000005","isActive":true,"note":42,"velocity":90,"gate":0.1,"probability":1.0,"ratchet":1,"cc1Value":40,"cc2Value":0},
          {"id":"CB000001-0000-0000-0000-000000000006","isActive":true,"note":42,"velocity":70,"gate":0.1,"probability":1.0,"ratchet":1,"cc1Value":35,"cc2Value":0},
          {"id":"CB000001-0000-0000-0000-000000000007","isActive":true,"note":46,"velocity":75,"gate":0.3,"probability":1.0,"ratchet":1,"cc1Value":50,"cc2Value":80},
          {"id":"CB000001-0000-0000-0000-000000000008","isActive":true,"note":42,"velocity":70,"gate":0.1,"probability":1.0,"ratchet":1,"cc1Value":35,"cc2Value":0},
          {"id":"CB000001-0000-0000-0000-000000000009","isActive":true,"note":42,"velocity":90,"gate":0.1,"probability":1.0,"ratchet":1,"cc1Value":40,"cc2Value":0},
          {"id":"CB000001-0000-0000-0000-00000000000A","isActive":true,"note":42,"velocity":70,"gate":0.1,"probability":1.0,"ratchet":1,"cc1Value":35,"cc2Value":0},
          {"id":"CB000001-0000-0000-0000-00000000000B","isActive":true,"note":42,"velocity":80,"gate":0.1,"probability":1.0,"ratchet":1,"cc1Value":38,"cc2Value":0},
          {"id":"CB000001-0000-0000-0000-00000000000C","isActive":true,"note":42,"velocity":70,"gate":0.1,"probability":1.0,"ratchet":1,"cc1Value":35,"cc2Value":0},
          {"id":"CB000001-0000-0000-0000-00000000000D","isActive":true,"note":42,"velocity":90,"gate":0.1,"probability":1.0,"ratchet":1,"cc1Value":40,"cc2Value":0},
          {"id":"CB000001-0000-0000-0000-00000000000E","isActive":true,"note":46,"velocity":72,"gate":0.3,"probability":1.0,"ratchet":1,"cc1Value":50,"cc2Value":80},
          {"id":"CB000001-0000-0000-0000-00000000000F","isActive":true,"note":42,"velocity":70,"gate":0.1,"probability":1.0,"ratchet":1,"cc1Value":35,"cc2Value":0},
          {"id":"CB000001-0000-0000-0000-000000000010","isActive":true,"note":42,"velocity":70,"gate":0.1,"probability":1.0,"ratchet":1,"cc1Value":35,"cc2Value":0}
        ]
      },
      {
        "name": "Kick+Snare",
        "stepCount": 16,
        "midiChannel": 10,
        "cc1Number": 74,
        "cc2Number": 71,
        "cc1Label": "Punch",
        "cc2Label": "Body",
        "direction": "FWD",
        "isMuted": false,
        "steps": [
          {"id":"CC000001-0000-0000-0000-000000000001","isActive":true, "note":36,"velocity":120,"gate":0.3,"probability":1.0,"ratchet":1,"cc1Value":100,"cc2Value":80},
          {"id":"CC000001-0000-0000-0000-000000000002","isActive":false,"note":36,"velocity":80, "gate":0.2,"probability":1.0,"ratchet":1,"cc1Value":64, "cc2Value":64},
          {"id":"CC000001-0000-0000-0000-000000000003","isActive":false,"note":38,"velocity":100,"gate":0.3,"probability":1.0,"ratchet":1,"cc1Value":64, "cc2Value":64},
          {"id":"CC000001-0000-0000-0000-000000000004","isActive":false,"note":38,"velocity":80, "gate":0.2,"probability":1.0,"ratchet":1,"cc1Value":64, "cc2Value":64},
          {"id":"CC000001-0000-0000-0000-000000000005","isActive":true, "note":38,"velocity":110,"gate":0.3,"probability":1.0,"ratchet":1,"cc1Value":90, "cc2Value":75},
          {"id":"CC000001-0000-0000-0000-000000000006","isActive":false,"note":38,"velocity":80, "gate":0.2,"probability":1.0,"ratchet":1,"cc1Value":64, "cc2Value":64},
          {"id":"CC000001-0000-0000-0000-000000000007","isActive":false,"note":36,"velocity":90, "gate":0.2,"probability":0.5,"ratchet":1,"cc1Value":80, "cc2Value":64},
          {"id":"CC000001-0000-0000-0000-000000000008","isActive":false,"note":38,"velocity":80, "gate":0.2,"probability":1.0,"ratchet":1,"cc1Value":64, "cc2Value":64},
          {"id":"CC000001-0000-0000-0000-000000000009","isActive":true, "note":36,"velocity":115,"gate":0.3,"probability":1.0,"ratchet":1,"cc1Value":95, "cc2Value":78},
          {"id":"CC000001-0000-0000-0000-00000000000A","isActive":false,"note":36,"velocity":80, "gate":0.2,"probability":1.0,"ratchet":1,"cc1Value":64, "cc2Value":64},
          {"id":"CC000001-0000-0000-0000-00000000000B","isActive":false,"note":38,"velocity":100,"gate":0.3,"probability":1.0,"ratchet":1,"cc1Value":64, "cc2Value":64},
          {"id":"CC000001-0000-0000-0000-00000000000C","isActive":false,"note":38,"velocity":80, "gate":0.2,"probability":0.75,"ratchet":1,"cc1Value":64, "cc2Value":64},
          {"id":"CC000001-0000-0000-0000-00000000000D","isActive":true, "note":38,"velocity":112,"gate":0.3,"probability":1.0,"ratchet":1,"cc1Value":92, "cc2Value":76},
          {"id":"CC000001-0000-0000-0000-00000000000E","isActive":false,"note":38,"velocity":80, "gate":0.2,"probability":1.0,"ratchet":1,"cc1Value":64, "cc2Value":64},
          {"id":"CC000001-0000-0000-0000-00000000000F","isActive":true, "note":36,"velocity":100,"gate":0.3,"probability":0.75,"ratchet":1,"cc1Value":85, "cc2Value":70},
          {"id":"CC000001-0000-0000-0000-000000000010","isActive":false,"note":36,"velocity":80, "gate":0.2,"probability":1.0,"ratchet":1,"cc1Value":64, "cc2Value":64}
        ]
      },
      {
        "name": "Chord Stab",
        "stepCount": 16,
        "midiChannel": 4,
        "cc1Number": 74,
        "cc2Number": 71,
        "cc1Label": "Cutoff",
        "cc2Label": "Reso",
        "direction": "FWD",
        "isMuted": true,
        "steps": [
          {"id":"CD000001-0000-0000-0000-000000000001","isActive":false,"note":60,"velocity":80,"gate":0.15,"probability":1.0,"ratchet":1,"cc1Value":70,"cc2Value":50},
          {"id":"CD000001-0000-0000-0000-000000000002","isActive":false,"note":60,"velocity":80,"gate":0.15,"probability":1.0,"ratchet":1,"cc1Value":70,"cc2Value":50},
          {"id":"CD000001-0000-0000-0000-000000000003","isActive":false,"note":60,"velocity":80,"gate":0.15,"probability":1.0,"ratchet":1,"cc1Value":70,"cc2Value":50},
          {"id":"CD000001-0000-0000-0000-000000000004","isActive":false,"note":60,"velocity":80,"gate":0.15,"probability":1.0,"ratchet":1,"cc1Value":70,"cc2Value":50},
          {"id":"CD000001-0000-0000-0000-000000000005","isActive":false,"note":60,"velocity":80,"gate":0.15,"probability":1.0,"ratchet":1,"cc1Value":70,"cc2Value":50},
          {"id":"CD000001-0000-0000-0000-000000000006","isActive":false,"note":60,"velocity":80,"gate":0.15,"probability":1.0,"ratchet":1,"cc1Value":70,"cc2Value":50},
          {"id":"CD000001-0000-0000-0000-000000000007","isActive":false,"note":60,"velocity":80,"gate":0.15,"probability":1.0,"ratchet":1,"cc1Value":70,"cc2Value":50},
          {"id":"CD000001-0000-0000-0000-000000000008","isActive":false,"note":60,"velocity":80,"gate":0.15,"probability":1.0,"ratchet":1,"cc1Value":70,"cc2Value":50},
          {"id":"CD000001-0000-0000-0000-000000000009","isActive":false,"note":60,"velocity":80,"gate":0.15,"probability":1.0,"ratchet":1,"cc1Value":70,"cc2Value":50},
          {"id":"CD000001-0000-0000-0000-00000000000A","isActive":false,"note":60,"velocity":80,"gate":0.15,"probability":1.0,"ratchet":1,"cc1Value":70,"cc2Value":50},
          {"id":"CD000001-0000-0000-0000-00000000000B","isActive":false,"note":60,"velocity":80,"gate":0.15,"probability":1.0,"ratchet":1,"cc1Value":70,"cc2Value":50},
          {"id":"CD000001-0000-0000-0000-00000000000C","isActive":false,"note":60,"velocity":80,"gate":0.15,"probability":1.0,"ratchet":1,"cc1Value":70,"cc2Value":50},
          {"id":"CD000001-0000-0000-0000-00000000000D","isActive":false,"note":60,"velocity":80,"gate":0.15,"probability":1.0,"ratchet":1,"cc1Value":70,"cc2Value":50},
          {"id":"CD000001-0000-0000-0000-00000000000E","isActive":false,"note":60,"velocity":80,"gate":0.15,"probability":1.0,"ratchet":1,"cc1Value":70,"cc2Value":50},
          {"id":"CD000001-0000-0000-0000-00000000000F","isActive":false,"note":60,"velocity":80,"gate":0.15,"probability":1.0,"ratchet":1,"cc1Value":70,"cc2Value":50},
          {"id":"CD000001-0000-0000-0000-000000000010","isActive":false,"note":60,"velocity":80,"gate":0.15,"probability":1.0,"ratchet":1,"cc1Value":70,"cc2Value":50}
        ]
      }
    ]
  },
  {
    "name": "D",
    "tracks": [
      {
        "name": "Acid Bass",
        "stepCount": 16,
        "midiChannel": 1,
        "cc1Number": 74,
        "cc2Number": 71,
        "cc1Label": "Cutoff",
        "cc2Label": "Reso",
        "direction": "FWD",
        "isMuted": false,
        "steps": [
          {"id":"DA000001-0000-0000-0000-000000000001","isActive":true, "note":36,"velocity":120,"gate":0.9,"probability":1.0,"ratchet":1,"cc1Value":127,"cc2Value":127},
          {"id":"DA000001-0000-0000-0000-000000000002","isActive":true, "note":36,"velocity":100,"gate":0.5,"probability":1.0,"ratchet":2,"cc1Value":120,"cc2Value":120},
          {"id":"DA000001-0000-0000-0000-000000000003","isActive":true, "note":43,"velocity":110,"gate":0.6,"probability":1.0,"ratchet":1,"cc1Value":112,"cc2Value":112},
          {"id":"DA000001-0000-0000-0000-000000000004","isActive":true, "note":48,"velocity":105,"gate":0.5,"probability":1.0,"ratchet":2,"cc1Value":105,"cc2Value":105},
          {"id":"DA000001-0000-0000-0000-000000000005","isActive":true, "note":43,"velocity":115,"gate":0.7,"probability":1.0,"ratchet":1,"cc1Value":98,"cc2Value":98},
          {"id":"DA000001-0000-0000-0000-000000000006","isActive":true, "note":36,"velocity":120,"gate":0.9,"probability":1.0,"ratchet":4,"cc1Value":90,"cc2Value":90},
          {"id":"DA000001-0000-0000-0000-000000000007","isActive":true, "note":46,"velocity":110,"gate":0.6,"probability":1.0,"ratchet":1,"cc1Value":82,"cc2Value":82},
          {"id":"DA000001-0000-0000-0000-000000000008","isActive":true, "note":43,"velocity":100,"gate":0.5,"probability":1.0,"ratchet":2,"cc1Value":74,"cc2Value":74},
          {"id":"DA000001-0000-0000-0000-000000000009","isActive":true, "note":36,"velocity":118,"gate":0.8,"probability":1.0,"ratchet":1,"cc1Value":66,"cc2Value":66},
          {"id":"DA000001-0000-0000-0000-00000000000A","isActive":true, "note":40,"velocity":105,"gate":0.5,"probability":1.0,"ratchet":1,"cc1Value":58,"cc2Value":58},
          {"id":"DA000001-0000-0000-0000-00000000000B","isActive":true, "note":43,"velocity":110,"gate":0.6,"probability":1.0,"ratchet":2,"cc1Value":50,"cc2Value":50},
          {"id":"DA000001-0000-0000-0000-00000000000C","isActive":true, "note":46,"velocity":115,"gate":0.7,"probability":1.0,"ratchet":1,"cc1Value":42,"cc2Value":42},
          {"id":"DA000001-0000-0000-0000-00000000000D","isActive":true, "note":48,"velocity":120,"gate":0.8,"probability":1.0,"ratchet":1,"cc1Value":34,"cc2Value":34},
          {"id":"DA000001-0000-0000-0000-00000000000E","isActive":true, "note":46,"velocity":112,"gate":0.6,"probability":1.0,"ratchet":4,"cc1Value":26,"cc2Value":26},
          {"id":"DA000001-0000-0000-0000-00000000000F","isActive":true, "note":43,"velocity":108,"gate":0.5,"probability":1.0,"ratchet":2,"cc1Value":18,"cc2Value":18},
          {"id":"DA000001-0000-0000-0000-000000000010","isActive":true, "note":36,"velocity":127,"gate":0.9,"probability":1.0,"ratchet":4,"cc1Value":10,"cc2Value":10}
        ]
      },
      {
        "name": "Hi-Hat 16",
        "stepCount": 16,
        "midiChannel": 10,
        "cc1Number": 74,
        "cc2Number": 71,
        "cc1Label": "Decay",
        "cc2Label": "Open",
        "direction": "FWD",
        "isMuted": false,
        "steps": [
          {"id":"DB000001-0000-0000-0000-000000000001","isActive":true,"note":42,"velocity":95,"gate":0.1,"probability":1.0,"ratchet":1,"cc1Value":40,"cc2Value":0},
          {"id":"DB000001-0000-0000-0000-000000000002","isActive":true,"note":42,"velocity":70,"gate":0.1,"probability":1.0,"ratchet":1,"cc1Value":35,"cc2Value":0},
          {"id":"DB000001-0000-0000-0000-000000000003","isActive":true,"note":42,"velocity":82,"gate":0.1,"probability":1.0,"ratchet":2,"cc1Value":38,"cc2Value":0},
          {"id":"DB000001-0000-0000-0000-000000000004","isActive":true,"note":42,"velocity":70,"gate":0.1,"probability":1.0,"ratchet":1,"cc1Value":35,"cc2Value":0},
          {"id":"DB000001-0000-0000-0000-000000000005","isActive":true,"note":42,"velocity":95,"gate":0.1,"probability":1.0,"ratchet":1,"cc1Value":40,"cc2Value":0},
          {"id":"DB000001-0000-0000-0000-000000000006","isActive":true,"note":42,"velocity":70,"gate":0.1,"probability":1.0,"ratchet":1,"cc1Value":35,"cc2Value":0},
          {"id":"DB000001-0000-0000-0000-000000000007","isActive":true,"note":46,"velocity":78,"gate":0.4,"probability":1.0,"ratchet":1,"cc1Value":55,"cc2Value":90},
          {"id":"DB000001-0000-0000-0000-000000000008","isActive":true,"note":42,"velocity":70,"gate":0.1,"probability":0.75,"ratchet":1,"cc1Value":35,"cc2Value":0},
          {"id":"DB000001-0000-0000-0000-000000000009","isActive":true,"note":42,"velocity":95,"gate":0.1,"probability":1.0,"ratchet":1,"cc1Value":40,"cc2Value":0},
          {"id":"DB000001-0000-0000-0000-00000000000A","isActive":true,"note":42,"velocity":70,"gate":0.1,"probability":1.0,"ratchet":1,"cc1Value":35,"cc2Value":0},
          {"id":"DB000001-0000-0000-0000-00000000000B","isActive":true,"note":42,"velocity":82,"gate":0.1,"probability":1.0,"ratchet":2,"cc1Value":38,"cc2Value":0},
          {"id":"DB000001-0000-0000-0000-00000000000C","isActive":true,"note":42,"velocity":70,"gate":0.1,"probability":1.0,"ratchet":1,"cc1Value":35,"cc2Value":0},
          {"id":"DB000001-0000-0000-0000-00000000000D","isActive":true,"note":42,"velocity":95,"gate":0.1,"probability":1.0,"ratchet":1,"cc1Value":40,"cc2Value":0},
          {"id":"DB000001-0000-0000-0000-00000000000E","isActive":true,"note":46,"velocity":75,"gate":0.4,"probability":1.0,"ratchet":1,"cc1Value":55,"cc2Value":90},
          {"id":"DB000001-0000-0000-0000-00000000000F","isActive":true,"note":42,"velocity":70,"gate":0.1,"probability":1.0,"ratchet":4,"cc1Value":35,"cc2Value":0},
          {"id":"DB000001-0000-0000-0000-000000000010","isActive":true,"note":42,"velocity":70,"gate":0.1,"probability":1.0,"ratchet":1,"cc1Value":35,"cc2Value":0}
        ]
      },
      {
        "name": "Kick+Snare",
        "stepCount": 16,
        "midiChannel": 10,
        "cc1Number": 74,
        "cc2Number": 71,
        "cc1Label": "Punch",
        "cc2Label": "Body",
        "direction": "FWD",
        "isMuted": false,
        "steps": [
          {"id":"DC000001-0000-0000-0000-000000000001","isActive":true, "note":36,"velocity":127,"gate":0.3,"probability":1.0,"ratchet":1,"cc1Value":100,"cc2Value":80},
          {"id":"DC000001-0000-0000-0000-000000000002","isActive":false,"note":36,"velocity":80, "gate":0.2,"probability":1.0,"ratchet":1,"cc1Value":64, "cc2Value":64},
          {"id":"DC000001-0000-0000-0000-000000000003","isActive":false,"note":38,"velocity":100,"gate":0.3,"probability":1.0,"ratchet":1,"cc1Value":64, "cc2Value":64},
          {"id":"DC000001-0000-0000-0000-000000000004","isActive":true, "note":36,"velocity":95, "gate":0.2,"probability":0.5,"ratchet":1,"cc1Value":80, "cc2Value":64},
          {"id":"DC000001-0000-0000-0000-000000000005","isActive":true, "note":38,"velocity":115,"gate":0.3,"probability":1.0,"ratchet":1,"cc1Value":95, "cc2Value":78},
          {"id":"DC000001-0000-0000-0000-000000000006","isActive":false,"note":38,"velocity":80, "gate":0.2,"probability":1.0,"ratchet":1,"cc1Value":64, "cc2Value":64},
          {"id":"DC000001-0000-0000-0000-000000000007","isActive":true, "note":36,"velocity":100,"gate":0.2,"probability":0.75,"ratchet":2,"cc1Value":84, "cc2Value":68},
          {"id":"DC000001-0000-0000-0000-000000000008","isActive":false,"note":38,"velocity":80, "gate":0.2,"probability":1.0,"ratchet":1,"cc1Value":64, "cc2Value":64},
          {"id":"DC000001-0000-0000-0000-000000000009","isActive":true, "note":36,"velocity":127,"gate":0.3,"probability":1.0,"ratchet":1,"cc1Value":100,"cc2Value":80},
          {"id":"DC000001-0000-0000-0000-00000000000A","isActive":true, "note":36,"velocity":90, "gate":0.2,"probability":0.5,"ratchet":1,"cc1Value":82, "cc2Value":66},
          {"id":"DC000001-0000-0000-0000-00000000000B","isActive":false,"note":38,"velocity":100,"gate":0.3,"probability":1.0,"ratchet":1,"cc1Value":64, "cc2Value":64},
          {"id":"DC000001-0000-0000-0000-00000000000C","isActive":false,"note":38,"velocity":80, "gate":0.2,"probability":1.0,"ratchet":1,"cc1Value":64, "cc2Value":64},
          {"id":"DC000001-0000-0000-0000-00000000000D","isActive":true, "note":38,"velocity":118,"gate":0.3,"probability":1.0,"ratchet":1,"cc1Value":98, "cc2Value":80},
          {"id":"DC000001-0000-0000-0000-00000000000E","isActive":true, "note":36,"velocity":108,"gate":0.2,"probability":0.75,"ratchet":1,"cc1Value":88, "cc2Value":72},
          {"id":"DC000001-0000-0000-0000-00000000000F","isActive":true, "note":36,"velocity":110,"gate":0.3,"probability":1.0,"ratchet":4,"cc1Value":92, "cc2Value":75},
          {"id":"DC000001-0000-0000-0000-000000000010","isActive":false,"note":36,"velocity":80, "gate":0.2,"probability":1.0,"ratchet":1,"cc1Value":64, "cc2Value":64}
        ]
      },
      {
        "name": "Chord Stab",
        "stepCount": 16,
        "midiChannel": 4,
        "cc1Number": 74,
        "cc2Number": 71,
        "cc1Label": "Cutoff",
        "cc2Label": "Reso",
        "direction": "FWD",
        "isMuted": false,
        "steps": [
          {"id":"DD000001-0000-0000-0000-000000000001","isActive":true, "note":60,"velocity":105,"gate":0.12,"probability":1.0,"ratchet":1,"cc1Value":95,"cc2Value":72},
          {"id":"DD000001-0000-0000-0000-000000000002","isActive":false,"note":60,"velocity":80, "gate":0.15,"probability":1.0,"ratchet":1,"cc1Value":88,"cc2Value":66},
          {"id":"DD000001-0000-0000-0000-000000000003","isActive":true, "note":58,"velocity":100,"gate":0.12,"probability":1.0,"ratchet":1,"cc1Value":90,"cc2Value":68},
          {"id":"DD000001-0000-0000-0000-000000000004","isActive":false,"note":60,"velocity":80, "gate":0.15,"probability":1.0,"ratchet":1,"cc1Value":85,"cc2Value":64},
          {"id":"DD000001-0000-0000-0000-000000000005","isActive":true, "note":55,"velocity":108,"gate":0.12,"probability":1.0,"ratchet":1,"cc1Value":98,"cc2Value":74},
          {"id":"DD000001-0000-0000-0000-000000000006","isActive":false,"note":60,"velocity":80, "gate":0.15,"probability":1.0,"ratchet":1,"cc1Value":88,"cc2Value":66},
          {"id":"DD000001-0000-0000-0000-000000000007","isActive":true, "note":53,"velocity":102,"gate":0.12,"probability":0.75,"ratchet":1,"cc1Value":92,"cc2Value":70},
          {"id":"DD000001-0000-0000-0000-000000000008","isActive":false,"note":55,"velocity":80, "gate":0.15,"probability":1.0,"ratchet":1,"cc1Value":85,"cc2Value":64},
          {"id":"DD000001-0000-0000-0000-000000000009","isActive":true, "note":60,"velocity":110,"gate":0.12,"probability":1.0,"ratchet":1,"cc1Value":100,"cc2Value":76},
          {"id":"DD000001-0000-0000-0000-00000000000A","isActive":false,"note":60,"velocity":80, "gate":0.15,"probability":1.0,"ratchet":1,"cc1Value":92,"cc2Value":70},
          {"id":"DD000001-0000-0000-0000-00000000000B","isActive":true, "note":58,"velocity":105,"gate":0.12,"probability":1.0,"ratchet":2,"cc1Value":95,"cc2Value":72},
          {"id":"DD000001-0000-0000-0000-00000000000C","isActive":false,"note":58,"velocity":80, "gate":0.15,"probability":1.0,"ratchet":1,"cc1Value":88,"cc2Value":66},
          {"id":"DD000001-0000-0000-0000-00000000000D","isActive":true, "note":55,"velocity":108,"gate":0.12,"probability":1.0,"ratchet":1,"cc1Value":98,"cc2Value":74},
          {"id":"DD000001-0000-0000-0000-00000000000E","isActive":false,"note":55,"velocity":80, "gate":0.15,"probability":1.0,"ratchet":1,"cc1Value":90,"cc2Value":68},
          {"id":"DD000001-0000-0000-0000-00000000000F","isActive":true, "note":53,"velocity":112,"gate":0.12,"probability":1.0,"ratchet":4,"cc1Value":102,"cc2Value":78},
          {"id":"DD000001-0000-0000-0000-000000000010","isActive":false,"note":53,"velocity":80, "gate":0.15,"probability":1.0,"ratchet":1,"cc1Value":85,"cc2Value":64}
        ]
      }
    ]
  }
]
