[
  {
    "name": "A",
    "tracks": [
      {
        "name": "Drone Bass",
        "stepCount": 16,
        "midiChannel": 1,
        "cc1Number": 74,
        "cc2Number": 71,
        "cc1Label": "Cutoff",
        "cc2Label": "Reso",
        "direction": "FWD",
        "isMuted": false,
        "steps": [
          {"id":"EA000001-0000-0000-0000-000000000001","isActive":true, "note":36,"velocity":80,"gate":0.95,"probability":1.0,"ratchet":1,"cc1Value":20,"cc2Value":10},
          {"id":"EA000001-0000-0000-0000-000000000002","isActive":false,"note":36,"velocity":70,"gate":0.95,"probability":1.0,"ratchet":1,"cc1Value":24,"cc2Value":11},
          {"id":"EA000001-0000-0000-0000-000000000003","isActive":false,"note":36,"velocity":70,"gate":0.95,"probability":1.0,"ratchet":1,"cc1Value":28,"cc2Value":12},
          {"id":"EA000001-0000-0000-0000-000000000004","isActive":false,"note":36,"velocity":70,"gate":0.95,"probability":1.0,"ratchet":1,"cc1Value":34,"cc2Value":14},
          {"id":"EA000001-0000-0000-0000-000000000005","isActive":false,"note":36,"velocity":70,"gate":0.95,"probability":1.0,"ratchet":1,"cc1Value":40,"cc2Value":16},
          {"id":"EA000001-0000-0000-0000-000000000006","isActive":false,"note":36,"velocity":70,"gate":0.95,"probability":1.0,"ratchet":1,"cc1Value":48,"cc2Value":18},
          {"id":"EA000001-0000-0000-0000-000000000007","isActive":false,"note":36,"velocity":70,"gate":0.95,"probability":1.0,"ratchet":1,"cc1Value":58,"cc2Value":22},
          {"id":"EA000001-0000-0000-0000-000000000008","isActive":false,"note":36,"velocity":70,"gate":0.95,"probability":1.0,"ratchet":1,"cc1Value":70,"cc2Value":28},
          {"id":"EA000001-0000-0000-0000-000000000009","isActive":false,"note":36,"velocity":70,"gate":0.95,"probability":1.0,"ratchet":1,"cc1Value":84,"cc2Value":36},
          {"id":"EA000001-0000-0000-0000-00000000000A","isActive":false,"note":36,"velocity":70,"gate":0.95,"probability":1.0,"ratchet":1,"cc1Value":96,"cc2Value":44},
          {"id":"EA000001-0000-0000-0000-00000000000B","isActive":false,"note":36,"velocity":70,"gate":0.95,"probability":1.0,"ratchet":1,"cc1Value":108,"cc2Value":54},
          {"id":"EA000001-0000-0000-0000-00000000000C","isActive":false,"note":36,"velocity":70,"gate":0.95,"probability":1.0,"ratchet":1,"cc1Value":116,"cc2Value":62},
          {"id":"EA000001-0000-0000-0000-00000000000D","isActive":false,"note":36,"velocity":70,"gate":0.95,"probability":1.0,"ratchet":1,"cc1Value":122,"cc2Value":70},
          {"id":"EA000001-0000-0000-0000-00000000000E","isActive":false,"note":36,"velocity":70,"gate":0.95,"probability":1.0,"ratchet":1,"cc1Value":126,"cc2Value":78},
          {"id":"EA000001-0000-0000-0000-00000000000F","isActive":false,"note":36,"velocity":70,"gate":0.95,"probability":1.0,"ratchet":1,"cc1Value":127,"cc2Value":85},
          {"id":"EA000001-0000-0000-0000-000000000010","isActive":false,"note":36,"velocity":70,"gate":0.95,"probability":1.0,"ratchet":1,"cc1Value":120,"cc2Value":80}
        ]
      },
      {
        "name": "Melody",
        "stepCount": 16,
        "midiChannel": 2,
        "cc1Number": 1,
        "cc2Number": 11,
        "cc1Label": "Mod",
        "cc2Label": "Expr",
        "direction": "FWD",
        "isMuted": false,
        "steps": [
          {"id":"EB000001-0000-0000-0000-000000000001","isActive":true, "note":60,"velocity":75,"gate":0.85,"probability":1.0,"ratchet":1,"cc1Value":20,"cc2Value":90},
          {"id":"EB000001-0000-0000-0000-000000000002","isActive":false,"note":62,"velocity":65,"gate":0.85,"probability":1.0,"ratchet":1,"cc1Value":28,"cc2Value":90},
          {"id":"EB000001-0000-0000-0000-000000000003","isActive":false,"note":64,"velocity":65,"gate":0.85,"probability":1.0,"ratchet":1,"cc1Value":38,"cc2Value":92},
          {"id":"EB000001-0000-0000-0000-000000000004","isActive":true, "note":65,"velocity":78,"gate":0.85,"probability":0.75,"ratchet":1,"cc1Value":50,"cc2Value":95},
          {"id":"EB000001-0000-0000-0000-000000000005","isActive":false,"note":67,"velocity":65,"gate":0.85,"probability":1.0,"ratchet":1,"cc1Value":62,"cc2Value":98},
          {"id":"EB000001-0000-0000-0000-000000000006","isActive":false,"note":69,"velocity":65,"gate":0.85,"probability":1.0,"ratchet":1,"cc1Value":74,"cc2Value":100},
          {"id":"EB000001-0000-0000-0000-000000000007","isActive":false,"note":71,"velocity":65,"gate":0.85,"probability":1.0,"ratchet":1,"cc1Value":86,"cc2Value":103},
          {"id":"EB000001-0000-0000-0000-000000000008","isActive":true, "note":72,"velocity":82,"gate":0.85,"probability":1.0,"ratchet":1,"cc1Value":98,"cc2Value":108},
          {"id":"EB000001-0000-0000-0000-000000000009","isActive":false,"note":71,"velocity":65,"gate":0.85,"probability":1.0,"ratchet":1,"cc1Value":94,"cc2Value":106},
          {"id":"EB000001-0000-0000-0000-00000000000A","isActive":false,"note":69,"velocity":65,"gate":0.85,"probability":1.0,"ratchet":1,"cc1Value":88,"cc2Value":104},
          {"id":"EB000001-0000-0000-0000-00000000000B","isActive":false,"note":67,"velocity":65,"gate":0.85,"probability":1.0,"ratchet":1,"cc1Value":80,"cc2Value":100},
          {"id":"EB000001-0000-0000-0000-00000000000C","isActive":true, "note":65,"velocity":76,"gate":0.85,"probability":0.75,"ratchet":1,"cc1Value":72,"cc2Value":98},
          {"id":"EB000001-0000-0000-0000-00000000000D","isActive":false,"note":64,"velocity":65,"gate":0.85,"probability":1.0,"ratchet":1,"cc1Value":62,"cc2Value":95},
          {"id":"EB000001-0000-0000-0000-00000000000E","isActive":false,"note":62,"velocity":65,"gate":0.85,"probability":1.0,"ratchet":1,"cc1Value":50,"cc2Value":92},
          {"id":"EB000001-0000-0000-0000-00000000000F","isActive":false,"note":60,"velocity":65,"gate":0.85,"probability":1.0,"ratchet":1,"cc1Value":38,"cc2Value":90},
          {"id":"EB000001-0000-0000-0000-000000000010","isActive":false,"note":60,"velocity":65,"gate":0.85,"probability":1.0,"ratchet":1,"cc1Value":28,"cc2Value":90}
        ]
      },
      {
        "name": "Pad Sweep",
        "stepCount": 16,
        "midiChannel": 3,
        "cc1Number": 74,
        "cc2Number": 91,
        "cc1Label": "Cutoff",
        "cc2Label": "Reverb",
        "direction": "FWD",
        "isMuted": false,
        "steps": [
          {"id":"EC000001-0000-0000-0000-000000000001","isActive":true, "note":48,"velocity":60,"gate":0.95,"probability":1.0,"ratchet":1,"cc1Value":15, "cc2Value":100},
          {"id":"EC000001-0000-0000-0000-000000000002","isActive":false,"note":48,"velocity":55,"gate":0.95,"probability":1.0,"ratchet":1,"cc1Value":20, "cc2Value":102},
          {"id":"EC000001-0000-0000-0000-000000000003","isActive":false,"note":48,"velocity":55,"gate":0.95,"probability":1.0,"ratchet":1,"cc1Value":28, "cc2Value":104},
          {"id":"EC000001-0000-0000-0000-000000000004","isActive":false,"note":48,"velocity":55,"gate":0.95,"probability":1.0,"ratchet":1,"cc1Value":38, "cc2Value":106},
          {"id":"EC000001-0000-0000-0000-000000000005","isActive":false,"note":48,"velocity":55,"gate":0.95,"probability":1.0,"ratchet":1,"cc1Value":50, "cc2Value":108},
          {"id":"EC000001-0000-0000-0000-000000000006","isActive":false,"note":48,"velocity":55,"gate":0.95,"probability":1.0,"ratchet":1,"cc1Value":64, "cc2Value":110},
          {"id":"EC000001-0000-0000-0000-000000000007","isActive":false,"note":48,"velocity":55,"gate":0.95,"probability":1.0,"ratchet":1,"cc1Value":80, "cc2Value":112},
          {"id":"EC000001-0000-0000-0000-000000000008","isActive":false,"note":52,"velocity":58,"gate":0.95,"probability":1.0,"ratchet":1,"cc1Value":96, "cc2Value":114},
          {"id":"EC000001-0000-0000-0000-000000000009","isActive":false,"note":52,"velocity":58,"gate":0.95,"probability":1.0,"ratchet":1,"cc1Value":108,"cc2Value":116},
          {"id":"EC000001-0000-0000-0000-00000000000A","isActive":false,"note":52,"velocity":58,"gate":0.95,"probability":1.0,"ratchet":1,"cc1Value":118,"cc2Value":118},
          {"id":"EC000001-0000-0000-0000-00000000000B","isActive":false,"note":52,"velocity":58,"gate":0.95,"probability":1.0,"ratchet":1,"cc1Value":124,"cc2Value":120},
          {"id":"EC000001-0000-0000-0000-00000000000C","isActive":false,"note":52,"velocity":58,"gate":0.95,"probability":1.0,"ratchet":1,"cc1Value":127,"cc2Value":122},
          {"id":"EC000001-0000-0000-0000-00000000000D","isActive":false,"note":52,"velocity":58,"gate":0.95,"probability":1.0,"ratchet":1,"cc1Value":122,"cc2Value":120},
          {"id":"EC000001-0000-0000-0000-00000000000E","isActive":false,"note":48,"velocity":56,"gate":0.95,"probability":1.0,"ratchet":1,"cc1Value":110,"cc2Value":118},
          {"id":"EC000001-0000-0000-0000-00000000000F","isActive":false,"note":48,"velocity":56,"gate":0.95,"probability":1.0,"ratchet":1,"cc1Value":90, "cc2Value":115},
          {"id":"EC000001-0000-0000-0000-000000000010","isActive":false,"note":48,"velocity":56,"gate":0.95,"probability":1.0,"ratchet":1,"cc1Value":65, "cc2Value":110}
        ]
      },
      {
        "name": "Sparse Perc",
        "stepCount": 16,
        "midiChannel": 10,
        "cc1Number": 74,
        "cc2Number": 91,
        "cc1Label": "Decay",
        "cc2Label": "Reverb",
        "direction": "FWD",
        "isMuted": false,
        "steps": [
          {"id":"ED000001-0000-0000-0000-000000000001","isActive":false,"note":36,"velocity":70,"gate":0.4,"probability":1.0,"ratchet":1,"cc1Value":64,"cc2Value":100},
          {"id":"ED000001-0000-0000-0000-000000000002","isActive":false,"note":36,"velocity":60,"gate":0.3,"probability":1.0,"ratchet":1,"cc1Value":64,"cc2Value":100},
          {"id":"ED000001-0000-0000-0000-000000000003","isActive":false,"note":42,"velocity":55,"gate":0.2,"probability":1.0,"ratchet":1,"cc1Value":64,"cc2Value":100},
          {"id":"ED000001-0000-0000-0000-000000000004","isActive":false,"note":42,"velocity":55,"gate":0.2,"probability":1.0,"ratchet":1,"cc1Value":64,"cc2Value":100},
          {"id":"ED000001-0000-0000-0000-000000000005","isActive":true, "note":38,"velocity":72,"gate":0.5,"probability":0.75,"ratchet":1,"cc1Value":80,"cc2Value":110},
          {"id":"ED000001-0000-0000-0000-000000000006","isActive":false,"note":42,"velocity":55,"gate":0.2,"probability":1.0,"ratchet":1,"cc1Value":64,"cc2Value":100},
          {"id":"ED000001-0000-0000-0000-000000000007","isActive":false,"note":42,"velocity":55,"gate":0.2,"probability":1.0,"ratchet":1,"cc1Value":64,"cc2Value":100},
          {"id":"ED000001-0000-0000-0000-000000000008","isActive":false,"note":42,"velocity":55,"gate":0.2,"probability":0.5,"ratchet":1,"cc1Value":64,"cc2Value":100},
          {"id":"ED000001-0000-0000-0000-000000000009","isActive":true, "note":36,"velocity":68,"gate":0.4,"probability":0.75,"ratchet":1,"cc1Value":75,"cc2Value":108},
          {"id":"ED000001-0000-0000-0000-00000000000A","isActive":false,"note":36,"velocity":60,"gate":0.3,"probability":1.0,"ratchet":1,"cc1Value":64,"cc2Value":100},
          {"id":"ED000001-0000-0000-0000-00000000000B","isActive":false,"note":42,"velocity":55,"gate":0.2,"probability":1.0,"ratchet":1,"cc1Value":64,"cc2Value":100},
          {"id":"ED000001-0000-0000-0000-00000000000C","isActive":false,"note":42,"velocity":55,"gate":0.2,"probability":1.0,"ratchet":1,"cc1Value":64,"cc2Value":100},
          {"id":"ED000001-0000-0000-0000-00000000000D","isActive":true, "note":38,"velocity":75,"gate":0.5,"probability":0.5,"ratchet":1,"cc1Value":82,"cc2Value":112},
          {"id":"ED000001-0000-0000-0000-00000000000E","isActive":false,"note":42,"velocity":55,"gate":0.2,"probability":1.0,"ratchet":1,"cc1Value":64,"cc2Value":100},
          {"id":"ED000001-0000-0000-0000-00000000000F","isActive":false,"note":42,"velocity":55,"gate":0.2,"probability":1.0,"ratchet":1,"cc1Value":64,"cc2Value":100},
          {"id":"ED000001-0000-0000-0000-000000000010","isActive":false,"note":42,"velocity":55,"gate":0.2,"probability":0.5,"ratchet":1,"cc1Value":64,"cc2Value":100}
        ]
      }
    ]
  },
  {
    "name": "B",
    "tracks": [
      {
        "name": "Drone Bass",
        "stepCount": 16,
        "midiChannel": 1,
        "cc1Number": 74,
        "cc2Number": 71,
        "cc1Label": "Cutoff",
        "cc2Label": "Reso",
        "direction": "FWD",
        "isMuted": false,
        "steps": [
          {"id":"FA000001-0000-0000-0000-000000000001","isActive":true, "note":41,"velocity":80,"gate":0.95,"probability":1.0,"ratchet":1,"cc1Value":120,"cc2Value":80},
          {"id":"FA000001-0000-0000-0000-000000000002","isActive":false,"note":41,"velocity":70,"gate":0.95,"probability":1.0,"ratchet":1,"cc1Value":116,"cc2Value":78},
          {"id":"FA000001-0000-0000-0000-000000000003","isActive":false,"note":41,"velocity":70,"gate":0.95,"probability":1.0,"ratchet":1,"cc1Value":110,"cc2Value":75},
          {"id":"FA000001-0000-0000-0000-000000000004","isActive":false,"note":41,"velocity":70,"gate":0.95,"probability":1.0,"ratchet":1,"cc1Value":102,"cc2Value":70},
          {"id":"FA000001-0000-0000-0000-000000000005","isActive":false,"note":41,"velocity":70,"gate":0.95,"probability":1.0,"ratchet":1,"cc1Value":92,"cc2Value":64},
          {"id":"FA000001-0000-0000-0000-000000000006","isActive":false,"note":41,"velocity":70,"gate":0.95,"probability":1.0,"ratchet":1,"cc1Value":80,"cc2Value":56},
          {"id":"FA000001-0000-0000-0000-000000000007","isActive":false,"note":41,"velocity":70,"gate":0.95,"probability":1.0,"ratchet":1,"cc1Value":66,"cc2Value":46},
          {"id":"FA000001-0000-0000-0000-000000000008","isActive":false,"note":41,"velocity":70,"gate":0.95,"probability":1.0,"ratchet":1,"cc1Value":50,"cc2Value":36},
          {"id":"FA000001-0000-0000-0000-000000000009","isActive":false,"note":41,"velocity":70,"gate":0.95,"probability":1.0,"ratchet":1,"cc1Value":36,"cc2Value":26},
          {"id":"FA000001-0000-0000-0000-00000000000A","isActive":false,"note":41,"velocity":70,"gate":0.95,"probability":1.0,"ratchet":1,"cc1Value":26,"cc2Value":20},
          {"id":"FA000001-0000-0000-0000-00000000000B","isActive":false,"note":41,"velocity":70,"gate":0.95,"probability":1.0,"ratchet":1,"cc1Value":20,"cc2Value":15},
          {"id":"FA000001-0000-0000-0000-00000000000C","isActive":false,"note":41,"velocity":70,"gate":0.95,"probability":1.0,"ratchet":1,"cc1Value":16,"cc2Value":12},
          {"id":"FA000001-0000-0000-0000-00000000000D","isActive":false,"note":41,"velocity":70,"gate":0.95,"probability":1.0,"ratchet":1,"cc1Value":14,"cc2Value":10},
          {"id":"FA000001-0000-0000-0000-00000000000E","isActive":false,"note":41,"velocity":70,"gate":0.95,"probability":1.0,"ratchet":1,"cc1Value":12,"cc2Value":10},
          {"id":"FA000001-0000-0000-0000-00000000000F","isActive":false,"note":41,"velocity":70,"gate":0.95,"probability":1.0,"ratchet":1,"cc1Value":10,"cc2Value":10},
          {"id":"FA000001-0000-0000-0000-000000000010","isActive":false,"note":41,"velocity":70,"gate":0.95,"probability":1.0,"ratchet":1,"cc1Value":10,"cc2Value":10}
        ]
      },
      {
        "name": "Melody",
        "stepCount": 16,
        "midiChannel": 2,
        "cc1Number": 1,
        "cc2Number": 11,
        "cc1Label": "Mod",
        "cc2Label": "Expr",
        "direction": "P-P",
        "isMuted": false,
        "steps": [
          {"id":"FB000001-0000-0000-0000-000000000001","isActive":true, "note":65,"velocity":75,"gate":0.85,"probability":1.0,"ratchet":1,"cc1Value":30,"cc2Value":88},
          {"id":"FB000001-0000-0000-0000-000000000002","isActive":false,"note":67,"velocity":65,"gate":0.85,"probability":1.0,"ratchet":1,"cc1Value":38,"cc2Value":90},
          {"id":"FB000001-0000-0000-0000-000000000003","isActive":false,"note":69,"velocity":65,"gate":0.85,"probability":1.0,"ratchet":1,"cc1Value":48,"cc2Value":92},
          {"id":"FB000001-0000-0000-0000-000000000004","isActive":true, "note":70,"velocity":78,"gate":0.85,"probability":0.75,"ratchet":1,"cc1Value":58,"cc2Value":95},
          {"id":"FB000001-0000-0000-0000-000000000005","isActive":false,"note":72,"velocity":65,"gate":0.85,"probability":1.0,"ratchet":1,"cc1Value":68,"cc2Value":98},
          {"id":"FB000001-0000-0000-0000-000000000006","isActive":false,"note":74,"velocity":65,"gate":0.85,"probability":1.0,"ratchet":1,"cc1Value":78,"cc2Value":100},
          {"id":"FB000001-0000-0000-0000-000000000007","isActive":false,"note":75,"velocity":65,"gate":0.85,"probability":1.0,"ratchet":1,"cc1Value":88,"cc2Value":103},
          {"id":"FB000001-0000-0000-0000-000000000008","isActive":true, "note":77,"velocity":82,"gate":0.85,"probability":1.0,"ratchet":1,"cc1Value":98,"cc2Value":108},
          {"id":"FB000001-0000-0000-0000-000000000009","isActive":false,"note":75,"velocity":65,"gate":0.85,"probability":1.0,"ratchet":1,"cc1Value":94,"cc2Value":106},
          {"id":"FB000001-0000-0000-0000-00000000000A","isActive":false,"note":74,"velocity":65,"gate":0.85,"probability":1.0,"ratchet":1,"cc1Value":88,"cc2Value":104},
          {"id":"FB000001-0000-0000-0000-00000000000B","isActive":false,"note":72,"velocity":65,"gate":0.85,"probability":1.0,"ratchet":1,"cc1Value":80,"cc2Value":100},
          {"id":"FB000001-0000-0000-0000-00000000000C","isActive":true, "note":70,"velocity":76,"gate":0.85,"probability":0.75,"ratchet":1,"cc1Value":72,"cc2Value":98},
          {"id":"FB000001-0000-0000-0000-00000000000D","isActive":false,"note":69,"velocity":65,"gate":0.85,"probability":1.0,"ratchet":1,"cc1Value":62,"cc2Value":95},
          {"id":"FB000001-0000-0000-0000-00000000000E","isActive":false,"note":67,"velocity":65,"gate":0.85,"probability":1.0,"ratchet":1,"cc1Value":52,"cc2Value":92},
          {"id":"FB000001-0000-0000-0000-00000000000F","isActive":false,"note":65,"velocity":65,"gate":0.85,"probability":1.0,"ratchet":1,"cc1Value":40,"cc2Value":90},
          {"id":"FB000001-0000-0000-0000-000000000010","isActive":false,"note":65,"velocity":65,"gate":0.85,"probability":1.0,"ratchet":1,"cc1Value":32,"cc2Value":88}
        ]
      },
      {
        "name": "Pad Sweep",
        "stepCount": 16,
        "midiChannel": 3,
        "cc1Number": 74,
        "cc2Number": 91,
        "cc1Label": "Cutoff",
        "cc2Label": "Reverb",
        "direction": "FWD",
        "isMuted": false,
        "steps": [
          {"id":"FC000001-0000-0000-0000-000000000001","isActive":true, "note":53,"velocity":60,"gate":0.95,"probability":1.0,"ratchet":1,"cc1Value":127,"cc2Value":120},
          {"id":"FC000001-0000-0000-0000-000000000002","isActive":false,"note":53,"velocity":55,"gate":0.95,"probability":1.0,"ratchet":1,"cc1Value":122,"cc2Value":118},
          {"id":"FC000001-0000-0000-0000-000000000003","isActive":false,"note":53,"velocity":55,"gate":0.95,"probability":1.0,"ratchet":1,"cc1Value":114,"cc2Value":115},
          {"id":"FC000001-0000-0000-0000-000000000004","isActive":false,"note":53,"velocity":55,"gate":0.95,"probability":1.0,"ratchet":1,"cc1Value":104,"cc2Value":112},
          {"id":"FC000001-0000-0000-0000-000000000005","isActive":false,"note":53,"velocity":55,"gate":0.95,"probability":1.0,"ratchet":1,"cc1Value":92,"cc2Value":108},
          {"id":"FC000001-0000-0000-0000-000000000006","isActive":false,"note":53,"velocity":55,"gate":0.95,"probability":1.0,"ratchet":1,"cc1Value":78,"cc2Value":104},
          {"id":"FC000001-0000-0000-0000-000000000007","isActive":false,"note":53,"velocity":55,"gate":0.95,"probability":1.0,"ratchet":1,"cc1Value":62,"cc2Value":100},
          {"id":"FC000001-0000-0000-0000-000000000008","isActive":false,"note":57,"velocity":58,"gate":0.95,"probability":1.0,"ratchet":1,"cc1Value":46,"cc2Value":96},
          {"id":"FC000001-0000-0000-0000-000000000009","isActive":false,"note":57,"velocity":58,"gate":0.95,"probability":1.0,"ratchet":1,"cc1Value":34,"cc2Value":92},
          {"id":"FC000001-0000-0000-0000-00000000000A","isActive":false,"note":57,"velocity":58,"gate":0.95,"probability":1.0,"ratchet":1,"cc1Value":24,"cc2Value":88},
          {"id":"FC000001-0000-0000-0000-00000000000B","isActive":false,"note":57,"velocity":58,"gate":0.95,"probability":1.0,"ratchet":1,"cc1Value":18,"cc2Value":85},
          {"id":"FC000001-0000-0000-0000-00000000000C","isActive":false,"note":57,"velocity":58,"gate":0.95,"probability":1.0,"ratchet":1,"cc1Value":14,"cc2Value":82},
          {"id":"FC000001-0000-0000-0000-00000000000D","isActive":false,"note":57,"velocity":58,"gate":0.95,"probability":1.0,"ratchet":1,"cc1Value":12,"cc2Value":80},
          {"id":"FC000001-0000-0000-0000-00000000000E","isActive":false,"note":53,"velocity":56,"gate":0.95,"probability":1.0,"ratchet":1,"cc1Value":10,"cc2Value":78},
          {"id":"FC000001-0000-0000-0000-00000000000F","isActive":false,"note":53,"velocity":56,"gate":0.95,"probability":1.0,"ratchet":1,"cc1Value":10,"cc2Value":76},
          {"id":"FC000001-0000-0000-0000-000000000010","isActive":false,"note":53,"velocity":56,"gate":0.95,"probability":1.0,"ratchet":1,"cc1Value":10,"cc2Value":74}
        ]
      },
      {
        "name": "Sparse Perc",
        "stepCount": 16,
        "midiChannel": 10,
        "cc1Number": 74,
        "cc2Number": 91,
        "cc1Label": "Decay",
        "cc2Label": "Reverb",
        "direction": "FWD",
        "isMuted": false,
        "steps": [
          {"id":"FD000001-0000-0000-0000-000000000001","isActive":false,"note":36,"velocity":70,"gate":0.4,"probability":1.0,"ratchet":1,"cc1Value":64,"cc2Value":110},
          {"id":"FD000001-0000-0000-0000-000000000002","isActive":false,"note":36,"velocity":60,"gate":0.3,"probability":1.0,"ratchet":1,"cc1Value":64,"cc2Value":110},
          {"id":"FD000001-0000-0000-0000-000000000003","isActive":false,"note":42,"velocity":55,"gate":0.2,"probability":1.0,"ratchet":1,"cc1Value":64,"cc2Value":110},
          {"id":"FD000001-0000-0000-0000-000000000004","isActive":true, "note":49,"velocity":65,"gate":0.6,"probability":0.5,"ratchet":1,"cc1Value":80,"cc2Value":115},
          {"id":"FD000001-0000-0000-0000-000000000005","isActive":false,"note":42,"velocity":55,"gate":0.2,"probability":1.0,"ratchet":1,"cc1Value":64,"cc2Value":110},
          {"id":"FD000001-0000-0000-0000-000000000006","isActive":false,"note":42,"velocity":55,"gate":0.2,"probability":1.0,"ratchet":1,"cc1Value":64,"cc2Value":110},
          {"id":"FD000001-0000-0000-0000-000000000007","isActive":false,"note":42,"velocity":55,"gate":0.2,"probability":1.0,"ratchet":1,"cc1Value":64,"cc2Value":110},
          {"id":"FD000001-0000-0000-0000-000000000008","isActive":false,"note":42,"velocity":55,"gate":0.2,"probability":0.5,"ratchet":1,"cc1Value":64,"cc2Value":110},
          {"id":"FD000001-0000-0000-0000-000000000009","isActive":false,"note":36,"velocity":68,"gate":0.4,"probability":1.0,"ratchet":1,"cc1Value":64,"cc2Value":110},
          {"id":"FD000001-0000-0000-0000-00000000000A","isActive":false,"note":36,"velocity":60,"gate":0.3,"probability":1.0,"ratchet":1,"cc1Value":64,"cc2Value":110},
          {"id":"FD000001-0000-0000-0000-00000000000B","isActive":false,"note":42,"velocity":55,"gate":0.2,"probability":1.0,"ratchet":1,"cc1Value":64,"cc2Value":110},
          {"id":"FD000001-0000-0000-0000-00000000000C","isActive":false,"note":42,"velocity":55,"gate":0.2,"probability":1.0,"ratchet":1,"cc1Value":64,"cc2Value":110},
          {"id":"FD000001-0000-0000-0000-00000000000D","isActive":true, "note":38,"velocity":72,"gate":0.5,"probability":0.5,"ratchet":1,"cc1Value":78,"cc2Value":115},
          {"id":"FD000001-0000-0000-0000-00000000000E","isActive":false,"note":42,"velocity":55,"gate":0.2,"probability":1.0,"ratchet":1,"cc1Value":64,"cc2Value":110},
          {"id":"FD000001-0000-0000-0000-00000000000F","isActive":false,"note":42,"velocity":55,"gate":0.2,"probability":1.0,"ratchet":1,"cc1Value":64,"cc2Value":110},
          {"id":"FD000001-0000-0000-0000-000000000010","isActive":false,"note":42,"velocity":55,"gate":0.2,"probability":0.5,"ratchet":1,"cc1Value":64,"cc2Value":110}
        ]
      }
    ]
  },
  {
    "name": "C",
    "tracks": [
      {
        "name": "Drone Bass",
        "stepCount": 16,
        "midiChannel": 1,
        "cc1Number": 74,
        "cc2Number": 71,
        "cc1Label": "Cutoff",
        "cc2Label": "Reso",
        "direction": "FWD",
        "isMuted": false,
        "steps": [
          {"id":"GA000001-0000-0000-0000-000000000001","isActive":true, "note":43,"velocity":75,"gate":0.95,"probability":1.0,"ratchet":1,"cc1Value":60,"cc2Value":40},
          {"id":"GA000001-0000-0000-0000-000000000002","isActive":false,"note":43,"velocity":65,"gate":0.95,"probability":1.0,"ratchet":1,"cc1Value":62,"cc2Value":41},
          {"id":"GA000001-0000-0000-0000-000000000003","isActive":false,"note":43,"velocity":65,"gate":0.95,"probability":1.0,"ratchet":1,"cc1Value":66,"cc2Value":43},
          {"id":"GA000001-0000-0000-0000-000000000004","isActive":false,"note":43,"velocity":65,"gate":0.95,"probability":1.0,"ratchet":1,"cc1Value":72,"cc2Value":46},
          {"id":"GA000001-0000-0000-0000-000000000005","isActive":false,"note":43,"velocity":65,"gate":0.95,"probability":1.0,"ratchet":1,"cc1Value":80,"cc2Value":50},
          {"id":"GA000001-0000-0000-0000-000000000006","isActive":false,"note":43,"velocity":65,"gate":0.95,"probability":1.0,"ratchet":1,"cc1Value":90,"cc2Value":56},
          {"id":"GA000001-0000-0000-0000-000000000007","isActive":false,"note":43,"velocity":65,"gate":0.95,"probability":1.0,"ratchet":1,"cc1Value":100,"cc2Value":62},
          {"id":"GA000001-0000-0000-0000-000000000008","isActive":false,"note":43,"velocity":65,"gate":0.95,"probability":1.0,"ratchet":1,"cc1Value":110,"cc2Value":68},
          {"id":"GA000001-0000-0000-0000-000000000009","isActive":false,"note":43,"velocity":65,"gate":0.95,"probability":1.0,"ratchet":1,"cc1Value":118,"cc2Value":74},
          {"id":"GA000001-0000-0000-0000-00000000000A","isActive":false,"note":43,"velocity":65,"gate":0.95,"probability":1.0,"ratchet":1,"cc1Value":122,"cc2Value":78},
          {"id":"GA000001-0000-0000-0000-00000000000B","isActive":false,"note":43,"velocity":65,"gate":0.95,"probability":1.0,"ratchet":1,"cc1Value":125,"cc2Value":80},
          {"id":"GA000001-0000-0000-0000-00000000000C","isActive":false,"note":43,"velocity":65,"gate":0.95,"probability":1.0,"ratchet":1,"cc1Value":127,"cc2Value":82},
          {"id":"GA000001-0000-0000-0000-00000000000D","isActive":false,"note":43,"velocity":65,"gate":0.95,"probability":1.0,"ratchet":1,"cc1Value":125,"cc2Value":80},
          {"id":"GA000001-0000-0000-0000-00000000000E","isActive":false,"note":43,"velocity":65,"gate":0.95,"probability":1.0,"ratchet":1,"cc1Value":120,"cc2Value":77},
          {"id":"GA000001-0000-0000-0000-00000000000F","isActive":false,"note":43,"velocity":65,"gate":0.95,"probability":1.0,"ratchet":1,"cc1Value":112,"cc2Value":72},
          {"id":"GA000001-0000-0000-0000-000000000010","isActive":false,"note":43,"velocity":65,"gate":0.95,"probability":1.0,"ratchet":1,"cc1Value":100,"cc2Value":65}
        ]
      },
      {
        "name": "Melody",
        "stepCount": 16,
        "midiChannel": 2,
        "cc1Number": 1,
        "cc2Number": 11,
        "cc1Label": "Mod",
        "cc2Label": "Expr",
        "direction": "RND",
        "isMuted": false,
        "steps": [
          {"id":"GB000001-0000-0000-0000-000000000001","isActive":true, "note":67,"velocity":72,"gate":0.85,"probability":0.75,"ratchet":1,"cc1Value":50,"cc2Value":95},
          {"id":"GB000001-0000-0000-0000-000000000002","isActive":true, "note":69,"velocity":68,"gate":0.85,"probability":0.75,"ratchet":1,"cc1Value":55,"cc2Value":95},
          {"id":"GB000001-0000-0000-0000-000000000003","isActive":true, "note":71,"velocity":70,"gate":0.85,"probability":0.75,"ratchet":1,"cc1Value":60,"cc2Value":97},
          {"id":"GB000001-0000-0000-0000-000000000004","isActive":true, "note":72,"velocity":76,"gate":0.85,"probability":0.5, "ratchet":1,"cc1Value":68,"cc2Value":100},
          {"id":"GB000001-0000-0000-0000-000000000005","isActive":true, "note":74,"velocity":72,"gate":0.85,"probability":0.75,"ratchet":1,"cc1Value":76,"cc2Value":102},
          {"id":"GB000001-0000-0000-0000-000000000006","isActive":true, "note":76,"velocity":70,"gate":0.85,"probability":0.75,"ratchet":1,"cc1Value":84,"cc2Value":104},
          {"id":"GB000001-0000-0000-0000-000000000007","isActive":true, "note":77,"velocity":74,"gate":0.85,"probability":0.5, "ratchet":1,"cc1Value":90,"cc2Value":106},
          {"id":"GB000001-0000-0000-0000-000000000008","isActive":true, "note":79,"velocity":78,"gate":0.85,"probability":0.75,"ratchet":1,"cc1Value":96,"cc2Value":110},
          {"id":"GB000001-0000-0000-0000-000000000009","isActive":true, "note":77,"velocity":74,"gate":0.85,"probability":0.75,"ratchet":1,"cc1Value":92,"cc2Value":107},
          {"id":"GB000001-0000-0000-0000-00000000000A","isActive":true, "note":76,"velocity":70,"gate":0.85,"probability":0.5, "ratchet":1,"cc1Value":86,"cc2Value":104},
          {"id":"GB000001-0000-0000-0000-00000000000B","isActive":true, "note":74,"velocity":70,"gate":0.85,"probability":0.75,"ratchet":1,"cc1Value":80,"cc2Value":102},
          {"id":"GB000001-0000-0000-0000-00000000000C","isActive":true, "note":72,"velocity":74,"gate":0.85,"probability":0.5, "ratchet":1,"cc1Value":72,"cc2Value":100},
          {"id":"GB000001-0000-0000-0000-00000000000D","isActive":true, "note":71,"velocity":70,"gate":0.85,"probability":0.75,"ratchet":1,"cc1Value":64,"cc2Value":97},
          {"id":"GB000001-0000-0000-0000-00000000000E","isActive":true, "note":69,"velocity":68,"gate":0.85,"probability":0.75,"ratchet":1,"cc1Value":58,"cc2Value":95},
          {"id":"GB000001-0000-0000-0000-00000000000F","isActive":true, "note":67,"velocity":70,"gate":0.85,"probability":0.5, "ratchet":1,"cc1Value":52,"cc2Value":95},
          {"id":"GB000001-0000-0000-0000-000000000010","isActive":true, "note":65,"velocity":72,"gate":0.85,"probability":0.75,"ratchet":1,"cc1Value":46,"cc2Value":93}
        ]
      },
      {
        "name": "Pad Sweep",
        "stepCount": 16,
        "midiChannel": 3,
        "cc1Number": 74,
        "cc2Number": 91,
        "cc1Label": "Cutoff",
        "cc2Label": "Reverb",
        "direction": "FWD",
        "isMuted": false,
        "steps": [
          {"id":"GC000001-0000-0000-0000-000000000001","isActive":true, "note":55,"velocity":55,"gate":0.95,"probability":1.0,"ratchet":1,"cc1Value":40,"cc2Value":110},
          {"id":"GC000001-0000-0000-0000-000000000002","isActive":false,"note":55,"velocity":50,"gate":0.95,"probability":1.0,"ratchet":1,"cc1Value":48,"cc2Value":112},
          {"id":"GC000001-0000-0000-0000-000000000003","isActive":false,"note":55,"velocity":50,"gate":0.95,"probability":1.0,"ratchet":1,"cc1Value":58,"cc2Value":114},
          {"id":"GC000001-0000-0000-0000-000000000004","isActive":false,"note":55,"velocity":50,"gate":0.95,"probability":1.0,"ratchet":1,"cc1Value":70,"cc2Value":116},
          {"id":"GC000001-0000-0000-0000-000000000005","isActive":false,"note":55,"velocity":50,"gate":0.95,"probability":1.0,"ratchet":1,"cc1Value":84,"cc2Value":118},
          {"id":"GC000001-0000-0000-0000-000000000006","isActive":false,"note":55,"velocity":50,"gate":0.95,"probability":1.0,"ratchet":1,"cc1Value":96,"cc2Value":120},
          {"id":"GC000001-0000-0000-0000-000000000007","isActive":false,"note":55,"velocity":50,"gate":0.95,"probability":1.0,"ratchet":1,"cc1Value":108,"cc2Value":122},
          {"id":"GC000001-0000-0000-0000-000000000008","isActive":false,"note":59,"velocity":52,"gate":0.95,"probability":1.0,"ratchet":1,"cc1Value":118,"cc2Value":124},
          {"id":"GC000001-0000-0000-0000-000000000009","isActive":false,"note":59,"velocity":52,"gate":0.95,"probability":1.0,"ratchet":1,"cc1Value":124,"cc2Value":125},
          {"id":"GC000001-0000-0000-0000-00000000000A","isActive":false,"note":59,"velocity":52,"gate":0.95,"probability":1.0,"ratchet":1,"cc1Value":127,"cc2Value":127},
          {"id":"GC000001-0000-0000-0000-00000000000B","isActive":false,"note":59,"velocity":52,"gate":0.95,"probability":1.0,"ratchet":1,"cc1Value":122,"cc2Value":125},
          {"id":"GC000001-0000-0000-0000-00000000000C","isActive":false,"note":59,"velocity":52,"gate":0.95,"probability":1.0,"ratchet":1,"cc1Value":114,"cc2Value":122},
          {"id":"GC000001-0000-0000-0000-00000000000D","isActive":false,"note":55,"velocity":50,"gate":0.95,"probability":1.0,"ratchet":1,"cc1Value":104,"cc2Value":120},
          {"id":"GC000001-0000-0000-0000-00000000000E","isActive":false,"note":55,"velocity":50,"gate":0.95,"probability":1.0,"ratchet":1,"cc1Value":90,"cc2Value":117},
          {"id":"GC000001-0000-0000-0000-00000000000F","isActive":false,"note":55,"velocity":50,"gate":0.95,"probability":1.0,"ratchet":1,"cc1Value":72,"cc2Value":114},
          {"id":"GC000001-0000-0000-0000-000000000010","isActive":false,"note":55,"velocity":50,"gate":0.95,"probability":1.0,"ratchet":1,"cc1Value":54,"cc2Value":112}
        ]
      },
      {
        "name": "Sparse Perc",
        "stepCount": 16,
        "midiChannel": 10,
        "cc1Number": 74,
        "cc2Number": 91,
        "cc1Label": "Decay",
        "cc2Label": "Reverb",
        "direction": "FWD",
        "isMuted": true,
        "steps": [
          {"id":"GD000001-0000-0000-0000-000000000001","isActive":false,"note":36,"velocity":60,"gate":0.4,"probability":1.0,"ratchet":1,"cc1Value":64,"cc2Value":110},
          {"id":"GD000001-0000-0000-0000-000000000002","isActive":false,"note":36,"velocity":60,"gate":0.3,"probability":1.0,"ratchet":1,"cc1Value":64,"cc2Value":110},
          {"id":"GD000001-0000-0000-0000-000000000003","isActive":false,"note":42,"velocity":55,"gate":0.2,"probability":1.0,"ratchet":1,"cc1Value":64,"cc2Value":110},
          {"id":"GD000001-0000-0000-0000-000000000004","isActive":false,"note":42,"velocity":55,"gate":0.2,"probability":1.0,"ratchet":1,"cc1Value":64,"cc2Value":110},
          {"id":"GD000001-0000-0000-0000-000000000005","isActive":false,"note":38,"velocity":65,"gate":0.5,"probability":0.5,"ratchet":1,"cc1Value":80,"cc2Value":115},
          {"id":"GD000001-0000-0000-0000-000000000006","isActive":false,"note":42,"velocity":55,"gate":0.2,"probability":1.0,"ratchet":1,"cc1Value":64,"cc2Value":110},
          {"id":"GD000001-0000-0000-0000-000000000007","isActive":false,"note":42,"velocity":55,"gate":0.2,"probability":1.0,"ratchet":1,"cc1Value":64,"cc2Value":110},
          {"id":"GD000001-0000-0000-0000-000000000008","isActive":false,"note":42,"velocity":55,"gate":0.2,"probability":0.5,"ratchet":1,"cc1Value":64,"cc2Value":110},
          {"id":"GD000001-0000-0000-0000-000000000009","isActive":false,"note":36,"velocity":65,"gate":0.4,"probability":0.75,"ratchet":1,"cc1Value":75,"cc2Value":112},
          {"id":"GD000001-0000-0000-0000-00000000000A","isActive":false,"note":36,"velocity":60,"gate":0.3,"probability":1.0,"ratchet":1,"cc1Value":64,"cc2Value":110},
          {"id":"GD000001-0000-0000-0000-00000000000B","isActive":false,"note":42,"velocity":55,"gate":0.2,"probability":1.0,"ratchet":1,"cc1Value":64,"cc2Value":110},
          {"id":"GD000001-0000-0000-0000-00000000000C","isActive":false,"note":42,"velocity":55,"gate":0.2,"probability":1.0,"ratchet":1,"cc1Value":64,"cc2Value":110},
          {"id":"GD000001-0000-0000-0000-00000000000D","isActive":false,"note":38,"velocity":68,"gate":0.5,"probability":0.5,"ratchet":1,"cc1Value":78,"cc2Value":115},
          {"id":"GD000001-0000-0000-0000-00000000000E","isActive":false,"note":42,"velocity":55,"gate":0.2,"probability":1.0,"ratchet":1,"cc1Value":64,"cc2Value":110},
          {"id":"GD000001-0000-0000-0000-00000000000F","isActive":false,"note":42,"velocity":55,"gate":0.2,"probability":1.0,"ratchet":1,"cc1Value":64,"cc2Value":110},
          {"id":"GD000001-0000-0000-0000-000000000010","isActive":false,"note":42,"velocity":55,"gate":0.2,"probability":0.5,"ratchet":1,"cc1Value":64,"cc2Value":110}
        ]
      }
    ]
  },
  {
    "name": "D",
    "tracks": [
      {
        "name": "Drone Bass",
        "stepCount": 16,
        "midiChannel": 1,
        "cc1Number": 74,
        "cc2Number": 71,
        "cc1Label": "Cutoff",
        "cc2Label": "Reso",
        "direction": "FWD",
        "isMuted": false,
        "steps": [
          {"id":"HA000001-0000-0000-0000-000000000001","isActive":true, "note":48,"velocity":78,"gate":0.95,"probability":1.0,"ratchet":1,"cc1Value":30,"cc2Value":20},
          {"id":"HA000001-0000-0000-0000-000000000002","isActive":false,"note":48,"velocity":68,"gate":0.95,"probability":1.0,"ratchet":1,"cc1Value":36,"cc2Value":22},
          {"id":"HA000001-0000-0000-0000-000000000003","isActive":false,"note":48,"velocity":68,"gate":0.95,"probability":1.0,"ratchet":1,"cc1Value":44,"cc2Value":25},
          {"id":"HA000001-0000-0000-0000-000000000004","isActive":false,"note":48,"velocity":68,"gate":0.95,"probability":1.0,"ratchet":1,"cc1Value":54,"cc2Value":30},
          {"id":"HA000001-0000-0000-0000-000000000005","isActive":false,"note":48,"velocity":68,"gate":0.95,"probability":1.0,"ratchet":1,"cc1Value":66,"cc2Value":36},
          {"id":"HA000001-0000-0000-0000-000000000006","isActive":false,"note":48,"velocity":68,"gate":0.95,"probability":1.0,"ratchet":1,"cc1Value":80,"cc2Value":44},
          {"id":"HA000001-0000-0000-0000-000000000007","isActive":false,"note":48,"velocity":68,"gate":0.95,"probability":1.0,"ratchet":1,"cc1Value":94,"cc2Value":54},
          {"id":"HA000001-0000-0000-0000-000000000008","isActive":false,"note":48,"velocity":68,"gate":0.95,"probability":1.0,"ratchet":1,"cc1Value":106,"cc2Value":64},
          {"id":"HA000001-0000-0000-0000-000000000009","isActive":false,"note":48,"velocity":68,"gate":0.95,"probability":1.0,"ratchet":1,"cc1Value":114,"cc2Value":72},
          {"id":"HA000001-0000-0000-0000-00000000000A","isActive":false,"note":48,"velocity":68,"gate":0.95,"probability":1.0,"ratchet":1,"cc1Value":120,"cc2Value":78},
          {"id":"HA000001-0000-0000-0000-00000000000B","isActive":false,"note":48,"velocity":68,"gate":0.95,"probability":1.0,"ratchet":1,"cc1Value":124,"cc2Value":82},
          {"id":"HA000001-0000-0000-0000-00000000000C","isActive":false,"note":48,"velocity":68,"gate":0.95,"probability":1.0,"ratchet":1,"cc1Value":127,"cc2Value":85},
          {"id":"HA000001-0000-0000-0000-00000000000D","isActive":false,"note":48,"velocity":68,"gate":0.95,"probability":1.0,"ratchet":1,"cc1Value":124,"cc2Value":82},
          {"id":"HA000001-0000-0000-0000-00000000000E","isActive":false,"note":48,"velocity":68,"gate":0.95,"probability":1.0,"ratchet":1,"cc1Value":118,"cc2Value":78},
          {"id":"HA000001-0000-0000-0000-00000000000F","isActive":false,"note":48,"velocity":68,"gate":0.95,"probability":1.0,"ratchet":1,"cc1Value":108,"cc2Value":72},
          {"id":"HA000001-0000-0000-0000-000000000010","isActive":false,"note":48,"velocity":68,"gate":0.95,"probability":1.0,"ratchet":1,"cc1Value":94,"cc2Value":64}
        ]
      },
      {
        "name": "Melody",
        "stepCount": 16,
        "midiChannel": 2,
        "cc1Number": 1,
        "cc2Number": 11,
        "cc1Label": "Mod",
        "cc2Label": "Expr",
        "direction": "FWD",
        "isMuted": false,
        "steps": [
          {"id":"HB000001-0000-0000-0000-000000000001","isActive":true, "note":72,"velocity":70,"gate":0.85,"probability":0.75,"ratchet":1,"cc1Value":60,"cc2Value":100},
          {"id":"HB000001-0000-0000-0000-000000000002","isActive":false,"note":71,"velocity":65,"gate":0.85,"probability":1.0,"ratchet":1,"cc1Value":64,"cc2Value":100},
          {"id":"HB000001-0000-0000-0000-000000000003","isActive":false,"note":69,"velocity":65,"gate":0.85,"probability":1.0,"ratchet":1,"cc1Value":70,"cc2Value":102},
          {"id":"HB000001-0000-0000-0000-000000000004","isActive":true, "note":67,"velocity":74,"gate":0.85,"probability":0.75,"ratchet":1,"cc1Value":78,"cc2Value":105},
          {"id":"HB000001-0000-0000-0000-000000000005","isActive":false,"note":65,"velocity":65,"gate":0.85,"probability":1.0,"ratchet":1,"cc1Value":86,"cc2Value":108},
          {"id":"HB000001-0000-0000-0000-000000000006","isActive":false,"note":64,"velocity":65,"gate":0.85,"probability":1.0,"ratchet":1,"cc1Value":92,"cc2Value":110},
          {"id":"HB000001-0000-0000-0000-000000000007","isActive":false,"note":62,"velocity":65,"gate":0.85,"probability":1.0,"ratchet":1,"cc1Value":98,"cc2Value":112},
          {"id":"HB000001-0000-0000-0000-000000000008","isActive":true, "note":60,"velocity":78,"gate":0.85,"probability":1.0,"ratchet":1,"cc1Value":104,"cc2Value":115},
          {"id":"HB000001-0000-0000-0000-000000000009","isActive":false,"note":62,"velocity":65,"gate":0.85,"probability":1.0,"ratchet":1,"cc1Value":100,"cc2Value":113},
          {"id":"HB000001-0000-0000-0000-00000000000A","isActive":false,"note":64,"velocity":65,"gate":0.85,"probability":1.0,"ratchet":1,"cc1Value":94,"cc2Value":110},
          {"id":"HB000001-0000-0000-0000-00000000000B","isActive":false,"note":65,"velocity":65,"gate":0.85,"probability":1.0,"ratchet":1,"cc1Value":88,"cc2Value":108},
          {"id":"HB000001-0000-0000-0000-00000000000C","isActive":true, "note":67,"velocity":74,"gate":0.85,"probability":0.75,"ratchet":1,"cc1Value":82,"cc2Value":106},
          {"id":"HB000001-0000-0000-0000-00000000000D","isActive":false,"note":69,"velocity":65,"gate":0.85,"probability":1.0,"ratchet":1,"cc1Value":76,"cc2Value":103},
          {"id":"HB000001-0000-0000-0000-00000000000E","isActive":false,"note":71,"velocity":65,"gate":0.85,"probability":1.0,"ratchet":1,"cc1Value":68,"cc2Value":100},
          {"id":"HB000001-0000-0000-0000-00000000000F","isActive":false,"note":72,"velocity":65,"gate":0.85,"probability":1.0,"ratchet":1,"cc1Value":62,"cc2Value":100},
          {"id":"HB000001-0000-0000-0000-000000000010","isActive":false,"note":74,"velocity":65,"gate":0.85,"probability":1.0,"ratchet":1,"cc1Value":58,"cc2Value":100}
        ]
      },
      {
        "name": "Pad Sweep",
        "stepCount": 16,
        "midiChannel": 3,
        "cc1Number": 74,
        "cc2Number": 91,
        "cc1Label": "Cutoff",
        "cc2Label": "Reverb",
        "direction": "FWD",
        "isMuted": false,
        "steps": [
          {"id":"HC000001-0000-0000-0000-000000000001","isActive":true, "note":60,"velocity":58,"gate":0.95,"probability":1.0,"ratchet":1,"cc1Value":64,"cc2Value":115},
          {"id":"HC000001-0000-0000-0000-000000000002","isActive":false,"note":60,"velocity":52,"gate":0.95,"probability":1.0,"ratchet":1,"cc1Value":70,"cc2Value":116},
          {"id":"HC000001-0000-0000-0000-000000000003","isActive":false,"note":60,"velocity":52,"gate":0.95,"probability":1.0,"ratchet":1,"cc1Value":78,"cc2Value":118},
          {"id":"HC000001-0000-0000-0000-000000000004","isActive":false,"note":60,"velocity":52,"gate":0.95,"probability":1.0,"ratchet":1,"cc1Value":88,"cc2Value":120},
          {"id":"HC000001-0000-0000-0000-000000000005","isActive":false,"note":60,"velocity":52,"gate":0.95,"probability":1.0,"ratchet":1,"cc1Value":98,"cc2Value":122},
          {"id":"HC000001-0000-0000-0000-000000000006","isActive":false,"note":60,"velocity":52,"gate":0.95,"probability":1.0,"ratchet":1,"cc1Value":108,"cc2Value":124},
          {"id":"HC000001-0000-0000-0000-000000000007","isActive":false,"note":60,"velocity":52,"gate":0.95,"probability":1.0,"ratchet":1,"cc1Value":116,"cc2Value":126},
          {"id":"HC000001-0000-0000-0000-000000000008","isActive":false,"note":64,"velocity":55,"gate":0.95,"probability":1.0,"ratchet":1,"cc1Value":122,"cc2Value":127},
          {"id":"HC000001-0000-0000-0000-000000000009","isActive":false,"note":64,"velocity":55,"gate":0.95,"probability":1.0,"ratchet":1,"cc1Value":127,"cc2Value":127},
          {"id":"HC000001-0000-0000-0000-00000000000A","isActive":false,"note":64,"velocity":55,"gate":0.95,"probability":1.0,"ratchet":1,"cc1Value":122,"cc2Value":126},
          {"id":"HC000001-0000-0000-0000-00000000000B","isActive":false,"note":64,"velocity":55,"gate":0.95,"probability":1.0,"ratchet":1,"cc1Value":115,"cc2Value":124},
          {"id":"HC000001-0000-0000-0000-00000000000C","isActive":false,"note":64,"velocity":55,"gate":0.95,"probability":1.0,"ratchet":1,"cc1Value":106,"cc2Value":122},
          {"id":"HC000001-0000-0000-0000-00000000000D","isActive":false,"note":60,"velocity":52,"gate":0.95,"probability":1.0,"ratchet":1,"cc1Value":95,"cc2Value":120},
          {"id":"HC000001-0000-0000-0000-00000000000E","isActive":false,"note":60,"velocity":52,"gate":0.95,"probability":1.0,"ratchet":1,"cc1Value":84,"cc2Value":118},
          {"id":"HC000001-0000-0000-0000-00000000000F","isActive":false,"note":60,"velocity":52,"gate":0.95,"probability":1.0,"ratchet":1,"cc1Value":72,"cc2Value":116},
          {"id":"HC000001-0000-0000-0000-000000000010","isActive":false,"note":60,"velocity":52,"gate":0.95,"probability":1.0,"ratchet":1,"cc1Value":60,"cc2Value":115}
        ]
      },
      {
        "name": "Sparse Perc",
        "stepCount": 16,
        "midiChannel": 10,
        "cc1Number": 74,
        "cc2Number": 91,
        "cc1Label": "Decay",
        "cc2Label": "Reverb",
        "direction": "FWD",
        "isMuted": false,
        "steps": [
          {"id":"HD000001-0000-0000-0000-000000000001","isActive":true, "note":36,"velocity":70,"gate":0.5,"probability":1.0,"ratchet":1,"cc1Value":80,"cc2Value":120},
          {"id":"HD000001-0000-0000-0000-000000000002","isActive":false,"note":36,"velocity":60,"gate":0.4,"probability":1.0,"ratchet":1,"cc1Value":64,"cc2Value":115},
          {"id":"HD000001-0000-0000-0000-000000000003","isActive":false,"note":42,"velocity":55,"gate":0.2,"probability":1.0,"ratchet":1,"cc1Value":64,"cc2Value":115},
          {"id":"HD000001-0000-0000-0000-000000000004","isActive":false,"note":42,"velocity":55,"gate":0.2,"probability":1.0,"ratchet":1,"cc1Value":64,"cc2Value":115},
          {"id":"HD000001-0000-0000-0000-000000000005","isActive":true, "note":38,"velocity":72,"gate":0.5,"probability":0.75,"ratchet":1,"cc1Value":82,"cc2Value":118},
          {"id":"HD000001-0000-0000-0000-000000000006","isActive":false,"note":42,"velocity":55,"gate":0.2,"probability":1.0,"ratchet":1,"cc1Value":64,"cc2Value":115},
          {"id":"HD000001-0000-0000-0000-000000000007","isActive":false,"note":42,"velocity":55,"gate":0.2,"probability":1.0,"ratchet":1,"cc1Value":64,"cc2Value":115},
          {"id":"HD000001-0000-0000-0000-000000000008","isActive":true, "note":49,"velocity":65,"gate":0.6,"probability":0.5,"ratchet":1,"cc1Value":78,"cc2Value":120},
          {"id":"HD000001-0000-0000-0000-000000000009","isActive":false,"note":36,"velocity":65,"gate":0.4,"probability":1.0,"ratchet":1,"cc1Value":72,"cc2Value":118},
          {"id":"HD000001-0000-0000-0000-00000000000A","isActive":false,"note":36,"velocity":60,"gate":0.4,"probability":1.0,"ratchet":1,"cc1Value":64,"cc2Value":115},
          {"id":"HD000001-0000-0000-0000-00000000000B","isActive":false,"note":42,"velocity":55,"gate":0.2,"probability":1.0,"ratchet":1,"cc1Value":64,"cc2Value":115},
          {"id":"HD000001-0000-0000-0000-00000000000C","isActive":false,"note":42,"velocity":55,"gate":0.2,"probability":1.0,"ratchet":1,"cc1Value":64,"cc2Value":115},
          {"id":"HD000001-0000-0000-0000-00000000000D","isActive":true, "note":38,"velocity":75,"gate":0.5,"probability":0.75,"ratchet":1,"cc1Value":84,"cc2Value":120},
          {"id":"HD000001-0000-0000-0000-00000000000E","isActive":false,"note":42,"velocity":55,"gate":0.2,"probability":1.0,"ratchet":1,"cc1Value":64,"cc2Value":115},
          {"id":"HD000001-0000-0000-0000-00000000000F","isActive":false,"note":42,"velocity":55,"gate":0.2,"probability":1.0,"ratchet":1,"cc1Value":64,"cc2Value":115},
          {"id":"HD000001-0000-0000-0000-000000000010","isActive":false,"note":42,"velocity":55,"gate":0.2,"probability":0.5,"ratchet":1,"cc1Value":64,"cc2Value":115}
        ]
      }
    ]
  }
]
