[
  {
    "name": "A - 7-9-5-4 Poly",
    "tracks": [
      {
        "name": "Bass 7",
        "stepCount": 7,
        "midiChannel": 1,
        "cc1Number": 74,
        "cc2Number": 11,
        "cc1Label": "Filter",
        "cc2Label": "Expr",
        "direction": "FWD",
        "isMuted": false,
        "isSolo": false,
        "isExpanded": true,
        "timingOffset": 0.015,
        "steps": [
          {"isActive":true,  "note":40, "velocity":110, "gate":0.7, "probability":1.0,  "ratchet":1, "cc1Value":72, "cc2Value":90},
          {"isActive":false, "note":40, "velocity":100, "gate":0.5, "probability":1.0,  "ratchet":1, "cc1Value":68, "cc2Value":80},
          {"isActive":true,  "note":43, "velocity":100, "gate":0.6, "probability":1.0,  "ratchet":1, "cc1Value":75, "cc2Value":85},
          {"isActive":true,  "note":45, "velocity":105, "gate":0.5, "probability":1.0,  "ratchet":1, "cc1Value":80, "cc2Value":88},
          {"isActive":false, "note":40, "velocity":100, "gate":0.5, "probability":1.0,  "ratchet":1, "cc1Value":76, "cc2Value":82},
          {"isActive":true,  "note":47, "velocity":95,  "gate":0.55,"probability":0.75, "ratchet":1, "cc1Value":82, "cc2Value":92},
          {"isActive":true,  "note":50, "velocity":120, "gate":0.4, "probability":1.0,  "ratchet":2, "cc1Value":90, "cc2Value":100},
          {"isActive":false, "note":60, "velocity":100, "gate":0.5, "probability":1.0,  "ratchet":1, "cc1Value":64, "cc2Value":64},
          {"isActive":false, "note":60, "velocity":100, "gate":0.5, "probability":1.0,  "ratchet":1, "cc1Value":64, "cc2Value":64},
          {"isActive":false, "note":60, "velocity":100, "gate":0.5, "probability":1.0,  "ratchet":1, "cc1Value":64, "cc2Value":64},
          {"isActive":false, "note":60, "velocity":100, "gate":0.5, "probability":1.0,  "ratchet":1, "cc1Value":64, "cc2Value":64},
          {"isActive":false, "note":60, "velocity":100, "gate":0.5, "probability":1.0,  "ratchet":1, "cc1Value":64, "cc2Value":64},
          {"isActive":false, "note":60, "velocity":100, "gate":0.5, "probability":1.0,  "ratchet":1, "cc1Value":64, "cc2Value":64},
          {"isActive":false, "note":60, "velocity":100, "gate":0.5, "probability":1.0,  "ratchet":1, "cc1Value":64, "cc2Value":64},
          {"isActive":false, "note":60, "velocity":100, "gate":0.5, "probability":1.0,  "ratchet":1, "cc1Value":64, "cc2Value":64},
          {"isActive":false, "note":60, "velocity":100, "gate":0.5, "probability":1.0,  "ratchet":1, "cc1Value":64, "cc2Value":64},
          {"isActive":false, "note":60, "velocity":100, "gate":0.5, "probability":1.0,  "ratchet":1, "cc1Value":64, "cc2Value":64},
          {"isActive":false, "note":60, "velocity":100, "gate":0.5, "probability":1.0,  "ratchet":1, "cc1Value":64, "cc2Value":64},
          {"isActive":false, "note":60, "velocity":100, "gate":0.5, "probability":1.0,  "ratchet":1, "cc1Value":64, "cc2Value":64},
          {"isActive":false, "note":60, "velocity":100, "gate":0.5, "probability":1.0,  "ratchet":1, "cc1Value":64, "cc2Value":64},
          {"isActive":false, "note":60, "velocity":100, "gate":0.5, "probability":1.0,  "ratchet":1, "cc1Value":64, "cc2Value":64},
          {"isActive":false, "note":60, "velocity":100, "gate":0.5, "probability":1.0,  "ratchet":1, "cc1Value":64, "cc2Value":64},
          {"isActive":false, "note":60, "velocity":100, "gate":0.5, "probability":1.0,  "ratchet":1, "cc1Value":64, "cc2Value":64},
          {"isActive":false, "note":60, "velocity":100, "gate":0.5, "probability":1.0,  "ratchet":1, "cc1Value":64, "cc2Value":64},
          {"isActive":false, "note":60, "velocity":100, "gate":0.5, "probability":1.0,  "ratchet":1, "cc1Value":64, "cc2Value":64},
          {"isActive":false, "note":60, "velocity":100, "gate":0.5, "probability":1.0,  "ratchet":1, "cc1Value":64, "cc2Value":64},
          {"isActive":false, "note":60, "velocity":100, "gate":0.5, "probability":1.0,  "ratchet":1, "cc1Value":64, "cc2Value":64},
          {"isActive":false, "note":60, "velocity":100, "gate":0.5, "probability":1.0,  "ratchet":1, "cc1Value":64, "cc2Value":64},
          {"isActive":false, "note":60, "velocity":100, "gate":0.5, "probability":1.0,  "ratchet":1, "cc1Value":64, "cc2Value":64},
          {"isActive":false, "note":60, "velocity":100, "gate":0.5, "probability":1.0,  "ratchet":1, "cc1Value":64, "cc2Value":64},
          {"isActive":false, "note":60, "velocity":100, "gate":0.5, "probability":1.0,  "ratchet":1, "cc1Value":64, "cc2Value":64},
          {"isActive":false, "note":60, "velocity":100, "gate":0.5, "probability":1.0,  "ratchet":1, "cc1Value":64, "cc2Value":64}
        ]
      },
      {
        "name": "Lead 5 P-P",
        "stepCount": 5,
        "midiChannel": 2,
        "cc1Number": 74,
        "cc2Number": 11,
        "cc1Label": "Filter",
        "cc2Label": "Expr",
        "direction": "P-P",
        "isMuted": false,
        "isSolo": false,
        "isExpanded": false,
        "timingOffset": 0.0,
        "steps": [
          {"isActive":true,  "note":60, "velocity":90,  "gate":0.6, "probability":1.0,  "ratchet":1, "cc1Value":70, "cc2Value":85},
          {"isActive":true,  "note":64, "velocity":95,  "gate":0.55,"probability":1.0,  "ratchet":1, "cc1Value":78, "cc2Value":90},
          {"isActive":true,  "note":67, "velocity":100, "gate":0.6, "probability":1.0,  "ratchet":1, "cc1Value":85, "cc2Value":95},
          {"isActive":true,  "note":71, "velocity":88,  "gate":0.5, "probability":0.75, "ratchet":1, "cc1Value":90, "cc2Value":100},
          {"isActive":true,  "note":74, "velocity":110, "gate":0.4, "probability":1.0,  "ratchet":1, "cc1Value":100,"cc2Value":110},
          {"isActive":false, "note":60, "velocity":100, "gate":0.5, "probability":1.0,  "ratchet":1, "cc1Value":64, "cc2Value":64},
          {"isActive":false, "note":60, "velocity":100, "gate":0.5, "probability":1.0,  "ratchet":1, "cc1Value":64, "cc2Value":64},
          {"isActive":false, "note":60, "velocity":100, "gate":0.5, "probability":1.0,  "ratchet":1, "cc1Value":64, "cc2Value":64},
          {"isActive":false, "note":60, "velocity":100, "gate":0.5, "probability":1.0,  "ratchet":1, "cc1Value":64, "cc2Value":64},
          {"isActive":false, "note":60, "velocity":100, "gate":0.5, "probability":1.0,  "ratchet":1, "cc1Value":64, "cc2Value":64},
          {"isActive":false, "note":60, "velocity":100, "gate":0.5, "probability":1.0,  "ratchet":1, "cc1Value":64, "cc2Value":64},
          {"isActive":false, "note":60, "velocity":100, "gate":0.5, "probability":1.0,  "ratchet":1, "cc1Value":64, "cc2Value":64},
          {"isActive":false, "note":60, "velocity":100, "gate":0.5, "probability":1.0,  "ratchet":1, "cc1Value":64, "cc2Value":64},
          {"isActive":false, "note":60, "velocity":100, "gate":0.5, "probability":1.0,  "ratchet":1, "cc1Value":64, "cc2Value":64},
          {"isActive":false, "note":60, "velocity":100, "gate":0.5, "probability":1.0,  "ratchet":1, "cc1Value":64, "cc2Value":64},
          {"isActive":false, "note":60, "velocity":100, "gate":0.5, "probability":1.0,  "ratchet":1, "cc1Value":64, "cc2Value":64},
          {"isActive":false, "note":60, "velocity":100, "gate":0.5, "probability":1.0,  "ratchet":1, "cc1Value":64, "cc2Value":64},
          {"isActive":false, "note":60, "velocity":100, "gate":0.5, "probability":1.0,  "ratchet":1, "cc1Value":64, "cc2Value":64},
          {"isActive":false, "note":60, "velocity":100, "gate":0.5, "probability":1.0,  "ratchet":1, "cc1Value":64, "cc2Value":64},
          {"isActive":false, "note":60, "velocity":100, "gate":0.5, "probability":1.0,  "ratchet":1, "cc1Value":64, "cc2Value":64},
          {"isActive":false, "note":60, "velocity":100, "gate":0.5, "probability":1.0,  "ratchet":1, "cc1Value":64, "cc2Value":64},
          {"isActive":false, "note":60, "velocity":100, "gate":0.5, "probability":1.0,  "ratchet":1, "cc1Value":64, "cc2Value":64},
          {"isActive":false, "note":60, "velocity":100, "gate":0.5, "probability":1.0,  "ratchet":1, "cc1Value":64, "cc2Value":64},
          {"isActive":false, "note":60, "velocity":100, "gate":0.5, "probability":1.0,  "ratchet":1, "cc1Value":64, "cc2Value":64},
          {"isActive":false, "note":60, "velocity":100, "gate":0.5, "probability":1.0,  "ratchet":1, "cc1Value":64, "cc2Value":64},
          {"isActive":false, "note":60, "velocity":100, "gate":0.5, "probability":1.0,  "ratchet":1, "cc1Value":64, "cc2Value":64},
          {"isActive":false, "note":60, "velocity":100, "gate":0.5, "probability":1.0,  "ratchet":1, "cc1Value":64, "cc2Value":64},
          {"isActive":false, "note":60, "velocity":100, "gate":0.5, "probability":1.0,  "ratchet":1, "cc1Value":64, "cc2Value":64},
          {"isActive":false, "note":60, "velocity":100, "gate":0.5, "probability":1.0,  "ratchet":1, "cc1Value":64, "cc2Value":64},
          {"isActive":false, "note":60, "velocity":100, "gate":0.5, "probability":1.0,  "ratchet":1, "cc1Value":64, "cc2Value":64},
          {"isActive":false, "note":60, "velocity":100, "gate":0.5, "probability":1.0,  "ratchet":1, "cc1Value":64, "cc2Value":64},
          {"isActive":false, "note":60, "velocity":100, "gate":0.5, "probability":1.0,  "ratchet":1, "cc1Value":64, "cc2Value":64}
        ]
      },
      {
        "name": "HH 9 Ratch",
        "stepCount": 9,
        "midiChannel": 10,
        "cc1Number": 74,
        "cc2Number": 11,
        "cc1Label": "Filter",
        "cc2Label": "Expr",
        "direction": "FWD",
        "isMuted": false,
        "isSolo": false,
        "isExpanded": false,
        "timingOffset": 0.0,
        "steps": [
          {"isActive":true,  "note":42, "velocity":100, "gate":0.3, "probability":1.0,  "ratchet":1, "cc1Value":64, "cc2Value":80},
          {"isActive":true,  "note":42, "velocity":80,  "gate":0.25,"probability":0.75, "ratchet":1, "cc1Value":64, "cc2Value":70},
          {"isActive":true,  "note":42, "velocity":95,  "gate":0.3, "probability":1.0,  "ratchet":2, "cc1Value":64, "cc2Value":75},
          {"isActive":true,  "note":42, "velocity":70,  "gate":0.25,"probability":0.5,  "ratchet":1, "cc1Value":64, "cc2Value":65},
          {"isActive":true,  "note":42, "velocity":110, "gate":0.2, "probability":1.0,  "ratchet":4, "cc1Value":64, "cc2Value":90},
          {"isActive":true,  "note":42, "velocity":85,  "gate":0.3, "probability":0.75, "ratchet":1, "cc1Value":64, "cc2Value":75},
          {"isActive":true,  "note":42, "velocity":100, "gate":0.3, "probability":1.0,  "ratchet":1, "cc1Value":64, "cc2Value":80},
          {"isActive":true,  "note":42, "velocity":75,  "gate":0.25,"probability":0.5,  "ratchet":2, "cc1Value":64, "cc2Value":68},
          {"isActive":true,  "note":42, "velocity":120, "gate":0.35,"probability":1.0,  "ratchet":1, "cc1Value":64, "cc2Value":100},
          {"isActive":false, "note":60, "velocity":100, "gate":0.5, "probability":1.0,  "ratchet":1, "cc1Value":64, "cc2Value":64},
          {"isActive":false, "note":60, "velocity":100, "gate":0.5, "probability":1.0,  "ratchet":1, "cc1Value":64, "cc2Value":64},
          {"isActive":false, "note":60, "velocity":100, "gate":0.5, "probability":1.0,  "ratchet":1, "cc1Value":64, "cc2Value":64},
          {"isActive":false, "note":60, "velocity":100, "gate":0.5, "probability":1.0,  "ratchet":1, "cc1Value":64, "cc2Value":64},
          {"isActive":false, "note":60, "velocity":100, "gate":0.5, "probability":1.0,  "ratchet":1, "cc1Value":64, "cc2Value":64},
          {"isActive":false, "note":60, "velocity":100, "gate":0.5, "probability":1.0,  "ratchet":1, "cc1Value":64, "cc2Value":64},
          {"isActive":false, "note":60, "velocity":100, "gate":0.5, "probability":1.0,  "ratchet":1, "cc1Value":64, "cc2Value":64},
          {"isActive":false, "note":60, "velocity":100, "gate":0.5, "probability":1.0,  "ratchet":1, "cc1Value":64, "cc2Value":64},
          {"isActive":false, "note":60, "velocity":100, "gate":0.5, "probability":1.0,  "ratchet":1, "cc1Value":64, "cc2Value":64},
          {"isActive":false, "note":60, "velocity":100, "gate":0.5, "probability":1.0,  "ratchet":1, "cc1Value":64, "cc2Value":64},
          {"isActive":false, "note":60, "velocity":100, "gate":0.5, "probability":1.0,  "ratchet":1, "cc1Value":64, "cc2Value":64},
          {"isActive":false, "note":60, "velocity":100, "gate":0.5, "probability":1.0,  "ratchet":1, "cc1Value":64, "cc2Value":64},
          {"isActive":false, "note":60, "velocity":100, "gate":0.5, "probability":1.0,  "ratchet":1, "cc1Value":64, "cc2Value":64},
          {"isActive":false, "note":60, "velocity":100, "gate":0.5, "probability":1.0,  "ratchet":1, "cc1Value":64, "cc2Value":64},
          {"isActive":false, "note":60, "velocity":100, "gate":0.5, "probability":1.0,  "ratchet":1, "cc1Value":64, "cc2Value":64},
          {"isActive":false, "note":60, "velocity":100, "gate":0.5, "probability":1.0,  "ratchet":1, "cc1Value":64, "cc2Value":64},
          {"isActive":false, "note":60, "velocity":100, "gate":0.5, "probability":1.0,  "ratchet":1, "cc1Value":64, "cc2Value":64},
          {"isActive":false, "note":60, "velocity":100, "gate":0.5, "probability":1.0,  "ratchet":1, "cc1Value":64, "cc2Value":64},
          {"isActive":false, "note":60, "velocity":100, "gate":0.5, "probability":1.0,  "ratchet":1, "cc1Value":64, "cc2Value":64},
          {"isActive":false, "note":60, "velocity":100, "gate":0.5, "probability":1.0,  "ratchet":1, "cc1Value":64, "cc2Value":64},
          {"isActive":false, "note":60, "velocity":100, "gate":0.5, "probability":1.0,  "ratchet":1, "cc1Value":64, "cc2Value":64},
          {"isActive":false, "note":60, "velocity":100, "gate":0.5, "probability":1.0,  "ratchet":1, "cc1Value":64, "cc2Value":64},
          {"isActive":false, "note":60, "velocity":100, "gate":0.5, "probability":1.0,  "ratchet":1, "cc1Value":64, "cc2Value":64}
        ]
      },
      {
        "name": "Kick 4 FWD",
        "stepCount": 4,
        "midiChannel": 10,
        "cc1Number": 74,
        "cc2Number": 11,
        "cc1Label": "Filter",
        "cc2Label": "Expr",
        "direction": "FWD",
        "isMuted": false,
        "isSolo": false,
        "isExpanded": false,
        "timingOffset": 0.0,
        "steps": [
          {"isActive":true,  "note":36, "velocity":120, "gate":0.5, "probability":1.0,  "ratchet":1, "cc1Value":64, "cc2Value":100},
          {"isActive":true,  "note":38, "velocity":100, "gate":0.45,"probability":0.75, "ratchet":1, "cc1Value":64, "cc2Value":85},
          {"isActive":true,  "note":36, "velocity":115, "gate":0.5, "probability":1.0,  "ratchet":1, "cc1Value":64, "cc2Value":100},
          {"isActive":true,  "note":38, "velocity":95,  "gate":0.4, "probability":0.5,  "ratchet":1, "cc1Value":64, "cc2Value":80},
          {"isActive":false, "note":60, "velocity":100, "gate":0.5, "probability":1.0,  "ratchet":1, "cc1Value":64, "cc2Value":64},
          {"isActive":false, "note":60, "velocity":100, "gate":0.5, "probability":1.0,  "ratchet":1, "cc1Value":64, "cc2Value":64},
          {"isActive":false, "note":60, "velocity":100, "gate":0.5, "probability":1.0,  "ratchet":1, "cc1Value":64, "cc2Value":64},
          {"isActive":false, "note":60, "velocity":100, "gate":0.5, "probability":1.0,  "ratchet":1, "cc1Value":64, "cc2Value":64},
          {"isActive":false, "note":60, "velocity":100, "gate":0.5, "probability":1.0,  "ratchet":1, "cc1Value":64, "cc2Value":64},
          {"isActive":false, "note":60, "velocity":100, "gate":0.5, "probability":1.0,  "ratchet":1, "cc1Value":64, "cc2Value":64},
          {"isActive":false, "note":60, "velocity":100, "gate":0.5, "probability":1.0,  "ratchet":1, "cc1Value":64, "cc2Value":64},
          {"isActive":false, "note":60, "velocity":100, "gate":0.5, "probability":1.0,  "ratchet":1, "cc1Value":64, "cc2Value":64},
          {"isActive":false, "note":60, "velocity":100, "gate":0.5, "probability":1.0,  "ratchet":1, "cc1Value":64, "cc2Value":64},
          {"isActive":false, "note":60, "velocity":100, "gate":0.5, "probability":1.0,  "ratchet":1, "cc1Value":64, "cc2Value":64},
          {"isActive":false, "note":60, "velocity":100, "gate":0.5, "probability":1.0,  "ratchet":1, "cc1Value":64, "cc2Value":64},
          {"isActive":false, "note":60, "velocity":100, "gate":0.5, "probability":1.0,  "ratchet":1, "cc1Value":64, "cc2Value":64},
          {"isActive":false, "note":60, "velocity":100, "gate":0.5, "probability":1.0,  "ratchet":1, "cc1Value":64, "cc2Value":64},
          {"isActive":false, "note":60, "velocity":100, "gate":0.5, "probability":1.0,  "ratchet":1, "cc1Value":64, "cc2Value":64},
          {"isActive":false, "note":60, "velocity":100, "gate":0.5, "probability":1.0,  "ratchet":1, "cc1Value":64, "cc2Value":64},
          {"isActive":false, "note":60, "velocity":100, "gate":0.5, "probability":1.0,  "ratchet":1, "cc1Value":64, "cc2Value":64},
          {"isActive":false, "note":60, "velocity":100, "gate":0.5, "probability":1.0,  "ratchet":1, "cc1Value":64, "cc2Value":64},
          {"isActive":false, "note":60, "velocity":100, "gate":0.5, "probability":1.0,  "ratchet":1, "cc1Value":64, "cc2Value":64},
          {"isActive":false, "note":60, "velocity":100, "gate":0.5, "probability":1.0,  "ratchet":1, "cc1Value":64, "cc2Value":64},
          {"isActive":false, "note":60, "velocity":100, "gate":0.5, "probability":1.0,  "ratchet":1, "cc1Value":64, "cc2Value":64},
          {"isActive":false, "note":60, "velocity":100, "gate":0.5, "probability":1.0,  "ratchet":1, "cc1Value":64, "cc2Value":64},
          {"isActive":false, "note":60, "velocity":100, "gate":0.5, "probability":1.0,  "ratchet":1, "cc1Value":64, "cc2Value":64},
          {"isActive":false, "note":60, "velocity":100, "gate":0.5, "probability":1.0,  "ratchet":1, "cc1Value":64, "cc2Value":64},
          {"isActive":false, "note":60, "velocity":100, "gate":0.5, "probability":1.0,  "ratchet":1, "cc1Value":64, "cc2Value":64},
          {"isActive":false, "note":60, "velocity":100, "gate":0.5, "probability":1.0,  "ratchet":1, "cc1Value":64, "cc2Value":64},
          {"isActive":false, "note":60, "velocity":100, "gate":0.5, "probability":1.0,  "ratchet":1, "cc1Value":64, "cc2Value":64},
          {"isActive":false, "note":60, "velocity":100, "gate":0.5, "probability":1.0,  "ratchet":1, "cc1Value":64, "cc2Value":64},
          {"isActive":false, "note":60, "velocity":100, "gate":0.5, "probability":1.0,  "ratchet":1, "cc1Value":64, "cc2Value":64}
        ]
      }
    ]
  },
  {
    "name": "B - Probability Groove",
    "tracks": [
      {
        "name": "Bass 8",
        "stepCount": 8,
        "midiChannel": 1,
        "cc1Number": 74,
        "cc2Number": 11,
        "cc1Label": "Filter",
        "cc2Label": "Expr",
        "direction": "FWD",
        "isMuted": false,
        "isSolo": false,
        "isExpanded": true,
        "timingOffset": 0.020,
        "steps": [
          {"isActive":true,  "note":40, "velocity":115, "gate":0.7, "probability":1.0,  "ratchet":1, "cc1Value":65, "cc2Value":88},
          {"isActive":true,  "note":43, "velocity":95,  "gate":0.5, "probability":0.75, "ratchet":1, "cc1Value":70, "cc2Value":82},
          {"isActive":true,  "note":45, "velocity":105, "gate":0.6, "probability":1.0,  "ratchet":2, "cc1Value":78, "cc2Value":90},
          {"isActive":true,  "note":47, "velocity":85,  "gate":0.45,"probability":0.5,  "ratchet":1, "cc1Value":82, "cc2Value":78},
          {"isActive":true,  "note":40, "velocity":118, "gate":0.7, "probability":1.0,  "ratchet":1, "cc1Value":75, "cc2Value":92},
          {"isActive":true,  "note":50, "velocity":90,  "gate":0.5, "probability":0.75, "ratchet":1, "cc1Value":85, "cc2Value":86},
          {"isActive":true,  "note":47, "velocity":100, "gate":0.55,"probability":1.0,  "ratchet":1, "cc1Value":88, "cc2Value":94},
          {"isActive":true,  "note":43, "velocity":80,  "gate":0.4, "probability":0.5,  "ratchet":1, "cc1Value":72, "cc2Value":76},
          {"isActive":false, "note":60, "velocity":100, "gate":0.5, "probability":1.0,  "ratchet":1, "cc1Value":64, "cc2Value":64},
          {"isActive":false, "note":60, "velocity":100, "gate":0.5, "probability":1.0,  "ratchet":1, "cc1Value":64, "cc2Value":64},
          {"isActive":false, "note":60, "velocity":100, "gate":0.5, "probability":1.0,  "ratchet":1, "cc1Value":64, "cc2Value":64},
          {"isActive":false, "note":60, "velocity":100, "gate":0.5, "probability":1.0,  "ratchet":1, "cc1Value":64, "cc2Value":64},
          {"isActive":false, "note":60, "velocity":100, "gate":0.5, "probability":1.0,  "ratchet":1, "cc1Value":64, "cc2Value":64},
          {"isActive":false, "note":60, "velocity":100, "gate":0.5, "probability":1.0,  "ratchet":1, "cc1Value":64, "cc2Value":64},
          {"isActive":false, "note":60, "velocity":100, "gate":0.5, "probability":1.0,  "ratchet":1, "cc1Value":64, "cc2Value":64},
          {"isActive":false, "note":60, "velocity":100, "gate":0.5, "probability":1.0,  "ratchet":1, "cc1Value":64, "cc2Value":64},
          {"isActive":false, "note":60, "velocity":100, "gate":0.5, "probability":1.0,  "ratchet":1, "cc1Value":64, "cc2Value":64},
          {"isActive":false, "note":60, "velocity":100, "gate":0.5, "probability":1.0,  "ratchet":1, "cc1Value":64, "cc2Value":64},
          {"isActive":false, "note":60, "velocity":100, "gate":0.5, "probability":1.0,  "ratchet":1, "cc1Value":64, "cc2Value":64},
          {"isActive":false, "note":60, "velocity":100, "gate":0.5, "probability":1.0,  "ratchet":1, "cc1Value":64, "cc2Value":64},
          {"isActive":false, "note":60, "velocity":100, "gate":0.5, "probability":1.0,  "ratchet":1, "cc1Value":64, "cc2Value":64},
          {"isActive":false, "note":60, "velocity":100, "gate":0.5, "probability":1.0,  "ratchet":1, "cc1Value":64, "cc2Value":64},
          {"isActive":false, "note":60, "velocity":100, "gate":0.5, "probability":1.0,  "ratchet":1, "cc1Value":64, "cc2Value":64},
          {"isActive":false, "note":60, "velocity":100, "gate":0.5, "probability":1.0,  "ratchet":1, "cc1Value":64, "cc2Value":64},
          {"isActive":false, "note":60, "velocity":100, "gate":0.5, "probability":1.0,  "ratchet":1, "cc1Value":64, "cc2Value":64},
          {"isActive":false, "note":60, "velocity":100, "gate":0.5, "probability":1.0,  "ratchet":1, "cc1Value":64, "cc2Value":64},
          {"isActive":false, "note":60, "velocity":100, "gate":0.5, "probability":1.0,  "ratchet":1, "cc1Value":64, "cc2Value":64},
          {"isActive":false, "note":60, "velocity":100, "gate":0.5, "probability":1.0,  "ratchet":1, "cc1Value":64, "cc2Value":64},
          {"isActive":false, "note":60, "velocity":100, "gate":0.5, "probability":1.0,  "ratchet":1, "cc1Value":64, "cc2Value":64},
          {"isActive":false, "note":60, "velocity":100, "gate":0.5, "probability":1.0,  "ratchet":1, "cc1Value":64, "cc2Value":64},
          {"isActive":false, "note":60, "velocity":100, "gate":0.5, "probability":1.0,  "ratchet":1, "cc1Value":64, "cc2Value":64},
          {"isActive":false, "note":60, "velocity":100, "gate":0.5, "probability":1.0,  "ratchet":1, "cc1Value":64, "cc2Value":64}
        ]
      },
      {
        "name": "Lead REV 6",
        "stepCount": 6,
        "midiChannel": 2,
        "cc1Number": 74,
        "cc2Number": 11,
        "cc1Label": "Filter",
        "cc2Label": "Expr",
        "direction": "REV",
        "isMuted": false,
        "isSolo": false,
        "isExpanded": false,
        "timingOffset": 0.0,
        "steps": [
          {"isActive":true,  "note":57, "velocity":85,  "gate":0.6, "probability":1.0,  "ratchet":1, "cc1Value":68, "cc2Value":80},
          {"isActive":true,  "note":60, "velocity":90,  "gate":0.55,"probability":0.75, "ratchet":1, "cc1Value":74, "cc2Value":85},
          {"isActive":true,  "note":64, "velocity":95,  "gate":0.6, "probability":1.0,  "ratchet":1, "cc1Value":82, "cc2Value":90},
          {"isActive":true,  "note":67, "velocity":100, "gate":0.5, "probability":1.0,  "ratchet":1, "cc1Value":88, "cc2Value":95},
          {"isActive":true,  "note":71, "velocity":92,  "gate":0.55,"probability":0.75, "ratchet":1, "cc1Value":94, "cc2Value":100},
          {"isActive":true,  "note":74, "velocity":110, "gate":0.4, "probability":1.0,  "ratchet":1, "cc1Value":100,"cc2Value":110},
          {"isActive":false, "note":60, "velocity":100, "gate":0.5, "probability":1.0,  "ratchet":1, "cc1Value":64, "cc2Value":64},
          {"isActive":false, "note":60, "velocity":100, "gate":0.5, "probability":1.0,  "ratchet":1, "cc1Value":64, "cc2Value":64},
          {"isActive":false, "note":60, "velocity":100, "gate":0.5, "probability":1.0,  "ratchet":1, "cc1Value":64, "cc2Value":64},
          {"isActive":false, "note":60, "velocity":100, "gate":0.5, "probability":1.0,  "ratchet":1, "cc1Value":64, "cc2Value":64},
          {"isActive":false, "note":60, "velocity":100, "gate":0.5, "probability":1.0,  "ratchet":1, "cc1Value":64, "cc2Value":64},
          {"isActive":false, "note":60, "velocity":100, "gate":0.5, "probability":1.0,  "ratchet":1, "cc1Value":64, "cc2Value":64},
          {"isActive":false, "note":60, "velocity":100, "gate":0.5, "probability":1.0,  "ratchet":1, "cc1Value":64, "cc2Value":64},
          {"isActive":false, "note":60, "velocity":100, "gate":0.5, "probability":1.0,  "ratchet":1, "cc1Value":64, "cc2Value":64},
          {"isActive":false, "note":60, "velocity":100, "gate":0.5, "probability":1.0,  "ratchet":1, "cc1Value":64, "cc2Value":64},
          {"isActive":false, "note":60, "velocity":100, "gate":0.5, "probability":1.0,  "ratchet":1, "cc1Value":64, "cc2Value":64},
          {"isActive":false, "note":60, "velocity":100, "gate":0.5, "probability":1.0,  "ratchet":1, "cc1Value":64, "cc2Value":64},
          {"isActive":false, "note":60, "velocity":100, "gate":0.5, "probability":1.0,  "ratchet":1, "cc1Value":64, "cc2Value":64},
          {"isActive":false, "note":60, "velocity":100, "gate":0.5, "probability":1.0,  "ratchet":1, "cc1Value":64, "cc2Value":64},
          {"isActive":false, "note":60, "velocity":100, "gate":0.5, "probability":1.0,  "ratchet":1, "cc1Value":64, "cc2Value":64},
          {"isActive":false, "note":60, "velocity":100, "gate":0.5, "probability":1.0,  "ratchet":1, "cc1Value":64, "cc2Value":64},
          {"isActive":false, "note":60, "velocity":100, "gate":0.5, "probability":1.0,  "ratchet":1, "cc1Value":64, "cc2Value":64},
          {"isActive":false, "note":60, "velocity":100, "gate":0.5, "probability":1.0,  "ratchet":1, "cc1Value":64, "cc2Value":64},
          {"isActive":false, "note":60, "velocity":100, "gate":0.5, "probability":1.0,  "ratchet":1, "cc1Value":64, "cc2Value":64},
          {"isActive":false, "note":60, "velocity":100, "gate":0.5, "probability":1.0,  "ratchet":1, "cc1Value":64, "cc2Value":64},
          {"isActive":false, "note":60, "velocity":100, "gate":0.5, "probability":1.0,  "ratchet":1, "cc1Value":64, "cc2Value":64},
          {"isActive":false, "note":60, "velocity":100, "gate":0.5, "probability":1.0,  "ratchet":1, "cc1Value":64, "cc2Value":64},
          {"isActive":false, "note":60, "velocity":100, "gate":0.5, "probability":1.0,  "ratchet":1, "cc1Value":64, "cc2Value":64},
          {"isActive":false, "note":60, "velocity":100, "gate":0.5, "probability":1.0,  "ratchet":1, "cc1Value":64, "cc2Value":64},
          {"isActive":false, "note":60, "velocity":100, "gate":0.5, "probability":1.0,  "ratchet":1, "cc1Value":64, "cc2Value":64},
          {"isActive":false, "note":60, "velocity":100, "gate":0.5, "probability":1.0,  "ratchet":1, "cc1Value":64, "cc2Value":64},
          {"isActive":false, "note":60, "velocity":100, "gate":0.5, "probability":1.0,  "ratchet":1, "cc1Value":64, "cc2Value":64}
        ]
      },
      {
        "name": "Drums 16",
        "stepCount": 16,
        "midiChannel": 10,
        "cc1Number": 74,
        "cc2Number": 11,
        "cc1Label": "Filter",
        "cc2Label": "Expr",
        "direction": "FWD",
        "isMuted": false,
        "isSolo": false,
        "isExpanded": false,
        "timingOffset": 0.0,
        "steps": [
          {"isActive":true,  "note":36, "velocity":120, "gate":0.5, "probability":1.0,  "ratchet":1, "cc1Value":64, "cc2Value":100},
          {"isActive":true,  "note":42, "velocity":80,  "gate":0.3, "probability":0.75, "ratchet":1, "cc1Value":64, "cc2Value":70},
          {"isActive":true,  "note":42, "velocity":70,  "gate":0.25,"probability":1.0,  "ratchet":1, "cc1Value":64, "cc2Value":65},
          {"isActive":true,  "note":38, "velocity":105, "gate":0.45,"probability":1.0,  "ratchet":1, "cc1Value":64, "cc2Value":90},
          {"isActive":true,  "note":42, "velocity":75,  "gate":0.3, "probability":0.5,  "ratchet":1, "cc1Value":64, "cc2Value":68},
          {"isActive":true,  "note":42, "velocity":85,  "gate":0.3, "probability":1.0,  "ratchet":1, "cc1Value":64, "cc2Value":75},
          {"isActive":true,  "note":36, "velocity":90,  "gate":0.4, "probability":0.75, "ratchet":1, "cc1Value":64, "cc2Value":80},
          {"isActive":true,  "note":42, "velocity":110, "gate":0.2, "probability":1.0,  "ratchet":4, "cc1Value":64, "cc2Value":95},
          {"isActive":true,  "note":36, "velocity":120, "gate":0.5, "probability":1.0,  "ratchet":1, "cc1Value":64, "cc2Value":100},
          {"isActive":true,  "note":42, "velocity":80,  "gate":0.3, "probability":0.5,  "ratchet":1, "cc1Value":64, "cc2Value":70},
          {"isActive":true,  "note":42, "velocity":70,  "gate":0.25,"probability":1.0,  "ratchet":1, "cc1Value":64, "cc2Value":65},
          {"isActive":true,  "note":38, "velocity":110, "gate":0.45,"probability":1.0,  "ratchet":1, "cc1Value":64, "cc2Value":92},
          {"isActive":true,  "note":42, "velocity":75,  "gate":0.3, "probability":0.75, "ratchet":1, "cc1Value":64, "cc2Value":70},
          {"isActive":true,  "note":46, "velocity":90,  "gate":0.35,"probability":0.5,  "ratchet":1, "cc1Value":64, "cc2Value":80},
          {"isActive":true,  "note":36, "velocity":100, "gate":0.5, "probability":0.75, "ratchet":1, "cc1Value":64, "cc2Value":88},
          {"isActive":true,  "note":38, "velocity":115, "gate":0.5, "probability":1.0,  "ratchet":1, "cc1Value":64, "cc2Value":98},
          {"isActive":false, "note":60, "velocity":100, "gate":0.5, "probability":1.0,  "ratchet":1, "cc1Value":64, "cc2Value":64},
          {"isActive":false, "note":60, "velocity":100, "gate":0.5, "probability":1.0,  "ratchet":1, "cc1Value":64, "cc2Value":64},
          {"isActive":false, "note":60, "velocity":100, "gate":0.5, "probability":1.0,  "ratchet":1, "cc1Value":64, "cc2Value":64},
          {"isActive":false, "note":60, "velocity":100, "gate":0.5, "probability":1.0,  "ratchet":1, "cc1Value":64, "cc2Value":64},
          {"isActive":false, "note":60, "velocity":100, "gate":0.5, "probability":1.0,  "ratchet":1, "cc1Value":64, "cc2Value":64},
          {"isActive":false, "note":60, "velocity":100, "gate":0.5, "probability":1.0,  "ratchet":1, "cc1Value":64, "cc2Value":64},
          {"isActive":false, "note":60, "velocity":100, "gate":0.5, "probability":1.0,  "ratchet":1, "cc1Value":64, "cc2Value":64},
          {"isActive":false, "note":60, "velocity":100, "gate":0.5, "probability":1.0,  "ratchet":1, "cc1Value":64, "cc2Value":64},
          {"isActive":false, "note":60, "velocity":100, "gate":0.5, "probability":1.0,  "ratchet":1, "cc1Value":64, "cc2Value":64},
          {"isActive":false, "note":60, "velocity":100, "gate":0.5, "probability":1.0,  "ratchet":1, "cc1Value":64, "cc2Value":64},
          {"isActive":false, "note":60, "velocity":100, "gate":0.5, "probability":1.0,  "ratchet":1, "cc1Value":64, "cc2Value":64},
          {"isActive":false, "note":60, "velocity":100, "gate":0.5, "probability":1.0,  "ratchet":1, "cc1Value":64, "cc2Value":64},
          {"isActive":false, "note":60, "velocity":100, "gate":0.5, "probability":1.0,  "ratchet":1, "cc1Value":64, "cc2Value":64},
          {"isActive":false, "note":60, "velocity":100, "gate":0.5, "probability":1.0,  "ratchet":1, "cc1Value":64, "cc2Value":64},
          {"isActive":false, "note":60, "velocity":100, "gate":0.5, "probability":1.0,  "ratchet":1, "cc1Value":64, "cc2Value":64},
          {"isActive":false, "note":60, "velocity":100, "gate":0.5, "probability":1.0,  "ratchet":1, "cc1Value":64, "cc2Value":64}
        ]
      },
      {
        "name": "Pad RND 8",
        "stepCount": 8,
        "midiChannel": 3,
        "cc1Number": 74,
        "cc2Number": 11,
        "cc1Label": "Filter",
        "cc2Label": "Expr",
        "direction": "RND",
        "isMuted": false,
        "isSolo": false,
        "isExpanded": false,
        "timingOffset": 0.0,
        "steps": [
          {"isActive":true,  "note":52, "velocity":75,  "gate":0.8, "probability":1.0,  "ratchet":1, "cc1Value":60, "cc2Value":75},
          {"isActive":true,  "note":55, "velocity":70,  "gate":0.8, "probability":0.75, "ratchet":1, "cc1Value":65, "cc2Value":72},
          {"isActive":true,  "note":57, "velocity":72,  "gate":0.8, "probability":1.0,  "ratchet":1, "cc1Value":68, "cc2Value":78},
          {"isActive":true,  "note":59, "velocity":68,  "gate":0.75,"probability":0.5,  "ratchet":1, "cc1Value":72, "cc2Value":70},
          {"isActive":true,  "note":64, "velocity":78,  "gate":0.8, "probability":1.0,  "ratchet":1, "cc1Value":76, "cc2Value":82},
          {"isActive":true,  "note":67, "velocity":72,  "gate":0.75,"probability":0.75, "ratchet":1, "cc1Value":80, "cc2Value":78},
          {"isActive":true,  "note":69, "velocity":70,  "gate":0.8, "probability":0.5,  "ratchet":1, "cc1Value":74, "cc2Value":74},
          {"isActive":true,  "note":71, "velocity":80,  "gate":0.7, "probability":1.0,  "ratchet":1, "cc1Value":82, "cc2Value":85},
          {"isActive":false, "note":60, "velocity":100, "gate":0.5, "probability":1.0,  "ratchet":1, "cc1Value":64, "cc2Value":64},
          {"isActive":false, "note":60, "velocity":100, "gate":0.5, "probability":1.0,  "ratchet":1, "cc1Value":64, "cc2Value":64},
          {"isActive":false, "note":60, "velocity":100, "gate":0.5, "probability":1.0,  "ratchet":1, "cc1Value":64, "cc2Value":64},
          {"isActive":false, "note":60, "velocity":100, "gate":0.5, "probability":1.0,  "ratchet":1, "cc1Value":64, "cc2Value":64},
          {"isActive":false, "note":60, "velocity":100, "gate":0.5, "probability":1.0,  "ratchet":1, "cc1Value":64, "cc2Value":64},
          {"isActive":false, "note":60, "velocity":100, "gate":0.5, "probability":1.0,  "ratchet":1, "cc1Value":64, "cc2Value":64},
          {"isActive":false, "note":60, "velocity":100, "gate":0.5, "probability":1.0,  "ratchet":1, "cc1Value":64, "cc2Value":64},
          {"isActive":false, "note":60, "velocity":100, "gate":0.5, "probability":1.0,  "ratchet":1, "cc1Value":64, "cc2Value":64},
          {"isActive":false, "note":60, "velocity":100, "gate":0.5, "probability":1.0,  "ratchet":1, "cc1Value":64, "cc2Value":64},
          {"isActive":false, "note":60, "velocity":100, "gate":0.5, "probability":1.0,  "ratchet":1, "cc1Value":64, "cc2Value":64},
          {"isActive":false, "note":60, "velocity":100, "gate":0.5, "probability":1.0,  "ratchet":1, "cc1Value":64, "cc2Value":64},
          {"isActive":false, "note":60, "velocity":100, "gate":0.5, "probability":1.0,  "ratchet":1, "cc1Value":64, "cc2Value":64},
          {"isActive":false, "note":60, "velocity":100, "gate":0.5, "probability":1.0,  "ratchet":1, "cc1Value":64, "cc2Value":64},
          {"isActive":false, "note":60, "velocity":100, "gate":0.5, "probability":1.0,  "ratchet":1, "cc1Value":64, "cc2Value":64},
          {"isActive":false, "note":60, "velocity":100, "gate":0.5, "probability":1.0,  "ratchet":1, "cc1Value":64, "cc2Value":64},
          {"isActive":false, "note":60, "velocity":100, "gate":0.5, "probability":1.0,  "ratchet":1, "cc1Value":64, "cc2Value":64},
          {"isActive":false, "note":60, "velocity":100, "gate":0.5, "probability":1.0,  "ratchet":1, "cc1Value":64, "cc2Value":64},
          {"isActive":false, "note":60, "velocity":100, "gate":0.5, "probability":1.0,  "ratchet":1, "cc1Value":64, "cc2Value":64},
          {"isActive":false, "note":60, "velocity":100, "gate":0.5, "probability":1.0,  "ratchet":1, "cc1Value":64, "cc2Value":64},
          {"isActive":false, "note":60, "velocity":100, "gate":0.5, "probability":1.0,  "ratchet":1, "cc1Value":64, "cc2Value":64},
          {"isActive":false, "note":60, "velocity":100, "gate":0.5, "probability":1.0,  "ratchet":1, "cc1Value":64, "cc2Value":64},
          {"isActive":false, "note":60, "velocity":100, "gate":0.5, "probability":1.0,  "ratchet":1, "cc1Value":64, "cc2Value":64},
          {"isActive":false, "note":60, "velocity":100, "gate":0.5, "probability":1.0,  "ratchet":1, "cc1Value":64, "cc2Value":64},
          {"isActive":false, "note":60, "velocity":100, "gate":0.5, "probability":1.0,  "ratchet":1, "cc1Value":64, "cc2Value":64}
        ]
      }
    ]
  },
  {
    "name": "C - Ratchet City",
    "tracks": [
      {
        "name": "Synth x4",
        "stepCount": 5,
        "midiChannel": 1,
        "cc1Number": 74,
        "cc2Number": 11,
        "cc1Label": "Filter",
        "cc2Label": "Expr",
        "direction": "FWD",
        "isMuted": false,
        "isSolo": false,
        "isExpanded": true,
        "timingOffset": 0.0,
        "steps": [
          {"isActive":true,  "note":52, "velocity":105, "gate":0.3, "probability":1.0,  "ratchet":4, "cc1Value":60, "cc2Value":80},
          {"isActive":true,  "note":55, "velocity":100, "gate":0.3, "probability":1.0,  "ratchet":4, "cc1Value":75, "cc2Value":88},
          {"isActive":true,  "note":57, "velocity":108, "gate":0.3, "probability":1.0,  "ratchet":4, "cc1Value":88, "cc2Value":95},
          {"isActive":true,  "note":60, "velocity":95,  "gate":0.3, "probability":1.0,  "ratchet":4, "cc1Value":95, "cc2Value":90},
          {"isActive":true,  "note":59, "velocity":115, "gate":0.35,"probability":1.0,  "ratchet":4, "cc1Value":110,"cc2Value":100},
          {"isActive":false, "note":60, "velocity":100, "gate":0.5, "probability":1.0,  "ratchet":1, "cc1Value":64, "cc2Value":64},
          {"isActive":false, "note":60, "velocity":100, "gate":0.5, "probability":1.0,  "ratchet":1, "cc1Value":64, "cc2Value":64},
          {"isActive":false, "note":60, "velocity":100, "gate":0.5, "probability":1.0,  "ratchet":1, "cc1Value":64, "cc2Value":64},
          {"isActive":false, "note":60, "velocity":100, "gate":0.5, "probability":1.0,  "ratchet":1, "cc1Value":64, "cc2Value":64},
          {"isActive":false, "note":60, "velocity":100, "gate":0.5, "probability":1.0,  "ratchet":1, "cc1Value":64, "cc2Value":64},
          {"isActive":false, "note":60, "velocity":100, "gate":0.5, "probability":1.0,  "ratchet":1, "cc1Value":64, "cc2Value":64},
          {"isActive":false, "note":60, "velocity":100, "gate":0.5, "probability":1.0,  "ratchet":1, "cc1Value":64, "cc2Value":64},
          {"isActive":false, "note":60, "velocity":100, "gate":0.5, "probability":1.0,  "ratchet":1, "cc1Value":64, "cc2Value":64},
          {"isActive":false, "note":60, "velocity":100, "gate":0.5, "probability":1.0,  "ratchet":1, "cc1Value":64, "cc2Value":64},
          {"isActive":false, "note":60, "velocity":100, "gate":0.5, "probability":1.0,  "ratchet":1, "cc1Value":64, "cc2Value":64},
          {"isActive":false, "note":60, "velocity":100, "gate":0.5, "probability":1.0,  "ratchet":1, "cc1Value":64, "cc2Value":64},
          {"isActive":false, "note":60, "velocity":100, "gate":0.5, "probability":1.0,  "ratchet":1, "cc1Value":64, "cc2Value":64},
          {"isActive":false, "note":60, "velocity":100, "gate":0.5, "probability":1.0,  "ratchet":1, "cc1Value":64, "cc2Value":64},
          {"isActive":false, "note":60, "velocity":100, "gate":0.5, "probability":1.0,  "ratchet":1, "cc1Value":64, "cc2Value":64},
          {"isActive":false, "note":60, "velocity":100, "gate":0.5, "probability":1.0,  "ratchet":1, "cc1Value":64, "cc2Value":64},
          {"isActive":false, "note":60, "velocity":100, "gate":0.5, "probability":1.0,  "ratchet":1, "cc1Value":64, "cc2Value":64},
          {"isActive":false, "note":60, "velocity":100, "gate":0.5, "probability":1.0,  "ratchet":1, "cc1Value":64, "cc2Value":64},
          {"isActive":false, "note":60, "velocity":100, "gate":0.5, "probability":1.0,  "ratchet":1, "cc1Value":64, "cc2Value":64},
          {"isActive":false, "note":60, "velocity":100, "gate":0.5, "probability":1.0,  "ratchet":1, "cc1Value":64, "cc2Value":64},
          {"isActive":false, "note":60, "velocity":100, "gate":0.5, "probability":1.0,  "ratchet":1, "cc1Value":64, "cc2Value":64},
          {"isActive":false, "note":60, "velocity":100, "gate":0.5, "probability":1.0,  "ratchet":1, "cc1Value":64, "cc2Value":64},
          {"isActive":false, "note":60, "velocity":100, "gate":0.5, "probability":1.0,  "ratchet":1, "cc1Value":64, "cc2Value":64},
          {"isActive":false, "note":60, "velocity":100, "gate":0.5, "probability":1.0,  "ratchet":1, "cc1Value":64, "cc2Value":64},
          {"isActive":false, "note":60, "velocity":100, "gate":0.5, "probability":1.0,  "ratchet":1, "cc1Value":64, "cc2Value":64},
          {"isActive":false, "note":60, "velocity":100, "gate":0.5, "probability":1.0,  "ratchet":1, "cc1Value":64, "cc2Value":64},
          {"isActive":false, "note":60, "velocity":100, "gate":0.5, "probability":1.0,  "ratchet":1, "cc1Value":64, "cc2Value":64},
          {"isActive":false, "note":60, "velocity":100, "gate":0.5, "probability":1.0,  "ratchet":1, "cc1Value":64, "cc2Value":64}
        ]
      },
      {
        "name": "Bass mix",
        "stepCount": 7,
        "midiChannel": 2,
        "cc1Number": 74,
        "cc2Number": 11,
        "cc1Label": "Filter",
        "cc2Label": "Expr",
        "direction": "FWD",
        "isMuted": false,
        "isSolo": false,
        "isExpanded": false,
        "timingOffset": 0.0,
        "steps": [
          {"isActive":true,  "note":36, "velocity":110, "gate":0.6, "probability":1.0,  "ratchet":1, "cc1Value":65, "cc2Value":85},
          {"isActive":true,  "note":36, "velocity":100, "gate":0.35,"probability":1.0,  "ratchet":2, "cc1Value":72, "cc2Value":82},
          {"isActive":true,  "note":38, "velocity":105, "gate":0.6, "probability":1.0,  "ratchet":1, "cc1Value":78, "cc2Value":88},
          {"isActive":true,  "note":38, "velocity":115, "gate":0.25,"probability":1.0,  "ratchet":4, "cc1Value":90, "cc2Value":98},
          {"isActive":true,  "note":40, "velocity":108, "gate":0.6, "probability":1.0,  "ratchet":1, "cc1Value":82, "cc2Value":92},
          {"isActive":true,  "note":40, "velocity":95,  "gate":0.35,"probability":0.75, "ratchet":2, "cc1Value":88, "cc2Value":86},
          {"isActive":true,  "note":43, "velocity":125, "gate":0.55,"probability":1.0,  "ratchet":1, "cc1Value":95, "cc2Value":105},
          {"isActive":false, "note":60, "velocity":100, "gate":0.5, "probability":1.0,  "ratchet":1, "cc1Value":64, "cc2Value":64},
          {"isActive":false, "note":60, "velocity":100, "gate":0.5, "probability":1.0,  "ratchet":1, "cc1Value":64, "cc2Value":64},
          {"isActive":false, "note":60, "velocity":100, "gate":0.5, "probability":1.0,  "ratchet":1, "cc1Value":64, "cc2Value":64},
          {"isActive":false, "note":60, "velocity":100, "gate":0.5, "probability":1.0,  "ratchet":1, "cc1Value":64, "cc2Value":64},
          {"isActive":false, "note":60, "velocity":100, "gate":0.5, "probability":1.0,  "ratchet":1, "cc1Value":64, "cc2Value":64},
          {"isActive":false, "note":60, "velocity":100, "gate":0.5, "probability":1.0,  "ratchet":1, "cc1Value":64, "cc2Value":64},
          {"isActive":false, "note":60, "velocity":100, "gate":0.5, "probability":1.0,  "ratchet":1, "cc1Value":64, "cc2Value":64},
          {"isActive":false, "note":60, "velocity":100, "gate":0.5, "probability":1.0,  "ratchet":1, "cc1Value":64, "cc2Value":64},
          {"isActive":false, "note":60, "velocity":100, "gate":0.5, "probability":1.0,  "ratchet":1, "cc1Value":64, "cc2Value":64},
          {"isActive":false, "note":60, "velocity":100, "gate":0.5, "probability":1.0,  "ratchet":1, "cc1Value":64, "cc2Value":64},
          {"isActive":false, "note":60, "velocity":100, "gate":0.5, "probability":1.0,  "ratchet":1, "cc1Value":64, "cc2Value":64},
          {"isActive":false, "note":60, "velocity":100, "gate":0.5, "probability":1.0,  "ratchet":1, "cc1Value":64, "cc2Value":64},
          {"isActive":false, "note":60, "velocity":100, "gate":0.5, "probability":1.0,  "ratchet":1, "cc1Value":64, "cc2Value":64},
          {"isActive":false, "note":60, "velocity":100, "gate":0.5, "probability":1.0,  "ratchet":1, "cc1Value":64, "cc2Value":64},
          {"isActive":false, "note":60, "velocity":100, "gate":0.5, "probability":1.0,  "ratchet":1, "cc1Value":64, "cc2Value":64},
          {"isActive":false, "note":60, "velocity":100, "gate":0.5, "probability":1.0,  "ratchet":1, "cc1Value":64, "cc2Value":64},
          {"isActive":false, "note":60, "velocity":100, "gate":0.5, "probability":1.0,  "ratchet":1, "cc1Value":64, "cc2Value":64},
          {"isActive":false, "note":60, "velocity":100, "gate":0.5, "probability":1.0,  "ratchet":1, "cc1Value":64, "cc2Value":64},
          {"isActive":false, "note":60, "velocity":100, "gate":0.5, "probability":1.0,  "ratchet":1, "cc1Value":64, "cc2Value":64},
          {"isActive":false, "note":60, "velocity":100, "gate":0.5, "probability":1.0,  "ratchet":1, "cc1Value":64, "cc2Value":64},
          {"isActive":false, "note":60, "velocity":100, "gate":0.5, "probability":1.0,  "ratchet":1, "cc1Value":64, "cc2Value":64},
          {"isActive":false, "note":60, "velocity":100, "gate":0.5, "probability":1.0,  "ratchet":1, "cc1Value":64, "cc2Value":64},
          {"isActive":false, "note":60, "velocity":100, "gate":0.5, "probability":1.0,  "ratchet":1, "cc1Value":64, "cc2Value":64},
          {"isActive":false, "note":60, "velocity":100, "gate":0.5, "probability":1.0,  "ratchet":1, "cc1Value":64, "cc2Value":64},
          {"isActive":false, "note":60, "velocity":100, "gate":0.5, "probability":1.0,  "ratchet":1, "cc1Value":64, "cc2Value":64}
        ]
      },
      {
        "name": "Perc P-P",
        "stepCount": 7,
        "midiChannel": 10,
        "cc1Number": 74,
        "cc2Number": 11,
        "cc1Label": "Filter",
        "cc2Label": "Expr",
        "direction": "P-P",
        "isMuted": false,
        "isSolo": false,
        "isExpanded": false,
        "timingOffset": 0.0,
        "steps": [
          {"isActive":true,  "note":36, "velocity":120, "gate":0.5, "probability":1.0,  "ratchet":1, "cc1Value":64, "cc2Value":100},
          {"isActive":true,  "note":42, "velocity":90,  "gate":0.25,"probability":1.0,  "ratchet":2, "cc1Value":64, "cc2Value":78},
          {"isActive":true,  "note":38, "velocity":110, "gate":0.45,"probability":1.0,  "ratchet":1, "cc1Value":64, "cc2Value":92},
          {"isActive":true,  "note":42, "velocity":100, "gate":0.2, "probability":0.75, "ratchet":4, "cc1Value":64, "cc2Value":88},
          {"isActive":true,  "note":36, "velocity":115, "gate":0.5, "probability":1.0,  "ratchet":1, "cc1Value":64, "cc2Value":96},
          {"isActive":true,  "note":46, "velocity":85,  "gate":0.35,"probability":0.5,  "ratchet":1, "cc1Value":64, "cc2Value":72},
          {"isActive":true,  "note":49, "velocity":105, "gate":0.5, "probability":1.0,  "ratchet":1, "cc1Value":64, "cc2Value":100},
          {"isActive":false, "note":60, "velocity":100, "gate":0.5, "probability":1.0,  "ratchet":1, "cc1Value":64, "cc2Value":64},
          {"isActive":false, "note":60, "velocity":100, "gate":0.5, "probability":1.0,  "ratchet":1, "cc1Value":64, "cc2Value":64},
          {"isActive":false, "note":60, "velocity":100, "gate":0.5, "probability":1.0,  "ratchet":1, "cc1Value":64, "cc2Value":64},
          {"isActive":false, "note":60, "velocity":100, "gate":0.5, "probability":1.0,  "ratchet":1, "cc1Value":64, "cc2Value":64},
          {"isActive":false, "note":60, "velocity":100, "gate":0.5, "probability":1.0,  "ratchet":1, "cc1Value":64, "cc2Value":64},
          {"isActive":false, "note":60, "velocity":100, "gate":0.5, "probability":1.0,  "ratchet":1, "cc1Value":64, "cc2Value":64},
          {"isActive":false, "note":60, "velocity":100, "gate":0.5, "probability":1.0,  "ratchet":1, "cc1Value":64, "cc2Value":64},
          {"isActive":false, "note":60, "velocity":100, "gate":0.5, "probability":1.0,  "ratchet":1, "cc1Value":64, "cc2Value":64},
          {"isActive":false, "note":60, "velocity":100, "gate":0.5, "probability":1.0,  "ratchet":1, "cc1Value":64, "cc2Value":64},
          {"isActive":false, "note":60, "velocity":100, "gate":0.5, "probability":1.0,  "ratchet":1, "cc1Value":64, "cc2Value":64},
          {"isActive":false, "note":60, "velocity":100, "gate":0.5, "probability":1.0,  "ratchet":1, "cc1Value":64, "cc2Value":64},
          {"isActive":false, "note":60, "velocity":100, "gate":0.5, "probability":1.0,  "ratchet":1, "cc1Value":64, "cc2Value":64},
          {"isActive":false, "note":60, "velocity":100, "gate":0.5, "probability":1.0,  "ratchet":1, "cc1Value":64, "cc2Value":64},
          {"isActive":false, "note":60, "velocity":100, "gate":0.5, "probability":1.0,  "ratchet":1, "cc1Value":64, "cc2Value":64},
          {"isActive":false, "note":60, "velocity":100, "gate":0.5, "probability":1.0,  "ratchet":1, "cc1Value":64, "cc2Value":64},
          {"isActive":false, "note":60, "velocity":100, "gate":0.5, "probability":1.0,  "ratchet":1, "cc1Value":64, "cc2Value":64},
          {"isActive":false, "note":60, "velocity":100, "gate":0.5, "probability":1.0,  "ratchet":1, "cc1Value":64, "cc2Value":64},
          {"isActive":false, "note":60, "velocity":100, "gate":0.5, "probability":1.0,  "ratchet":1, "cc1Value":64, "cc2Value":64},
          {"isActive":false, "note":60, "velocity":100, "gate":0.5, "probability":1.0,  "ratchet":1, "cc1Value":64, "cc2Value":64},
          {"isActive":false, "note":60, "velocity":100, "gate":0.5, "probability":1.0,  "ratchet":1, "cc1Value":64, "cc2Value":64},
          {"isActive":false, "note":60, "velocity":100, "gate":0.5, "probability":1.0,  "ratchet":1, "cc1Value":64, "cc2Value":64},
          {"isActive":false, "note":60, "velocity":100, "gate":0.5, "probability":1.0,  "ratchet":1, "cc1Value":64, "cc2Value":64},
          {"isActive":false, "note":60, "velocity":100, "gate":0.5, "probability":1.0,  "ratchet":1, "cc1Value":64, "cc2Value":64},
          {"isActive":false, "note":60, "velocity":100, "gate":0.5, "probability":1.0,  "ratchet":1, "cc1Value":64, "cc2Value":64},
          {"isActive":false, "note":60, "velocity":100, "gate":0.5, "probability":1.0,  "ratchet":1, "cc1Value":64, "cc2Value":64}
        ]
      },
      {
        "name": "Sub REV 3",
        "stepCount": 3,
        "midiChannel": 1,
        "cc1Number": 74,
        "cc2Number": 11,
        "cc1Label": "Filter",
        "cc2Label": "Expr",
        "direction": "REV",
        "isMuted": false,
        "isSolo": false,
        "isExpanded": false,
        "timingOffset": -0.008,
        "steps": [
          {"isActive":true,  "note":28, "velocity":120, "gate":0.8, "probability":1.0,  "ratchet":1, "cc1Value":55, "cc2Value":90},
          {"isActive":true,  "note":31, "velocity":110, "gate":0.75,"probability":1.0,  "ratchet":1, "cc1Value":60, "cc2Value":85},
          {"isActive":true,  "note":33, "velocity":115, "gate":0.8, "probability":1.0,  "ratchet":1, "cc1Value":58, "cc2Value":88},
          {"isActive":false, "note":60, "velocity":100, "gate":0.5, "probability":1.0,  "ratchet":1, "cc1Value":64, "cc2Value":64},
          {"isActive":false, "note":60, "velocity":100, "gate":0.5, "probability":1.0,  "ratchet":1, "cc1Value":64, "cc2Value":64},
          {"isActive":false, "note":60, "velocity":100, "gate":0.5, "probability":1.0,  "ratchet":1, "cc1Value":64, "cc2Value":64},
          {"isActive":false, "note":60, "velocity":100, "gate":0.5, "probability":1.0,  "ratchet":1, "cc1Value":64, "cc2Value":64},
          {"isActive":false, "note":60, "velocity":100, "gate":0.5, "probability":1.0,  "ratchet":1, "cc1Value":64, "cc2Value":64},
          {"isActive":false, "note":60, "velocity":100, "gate":0.5, "probability":1.0,  "ratchet":1, "cc1Value":64, "cc2Value":64},
          {"isActive":false, "note":60, "velocity":100, "gate":0.5, "probability":1.0,  "ratchet":1, "cc1Value":64, "cc2Value":64},
          {"isActive":false, "note":60, "velocity":100, "gate":0.5, "probability":1.0,  "ratchet":1, "cc1Value":64, "cc2Value":64},
          {"isActive":false, "note":60, "velocity":100, "gate":0.5, "probability":1.0,  "ratchet":1, "cc1Value":64, "cc2Value":64},
          {"isActive":false, "note":60, "velocity":100, "gate":0.5, "probability":1.0,  "ratchet":1, "cc1Value":64, "cc2Value":64},
          {"isActive":false, "note":60, "velocity":100, "gate":0.5, "probability":1.0,  "ratchet":1, "cc1Value":64, "cc2Value":64},
          {"isActive":false, "note":60, "velocity":100, "gate":0.5, "probability":1.0,  "ratchet":1, "cc1Value":64, "cc2Value":64},
          {"isActive":false, "note":60, "velocity":100, "gate":0.5, "probability":1.0,  "ratchet":1, "cc1Value":64, "cc2Value":64},
          {"isActive":false, "note":60, "velocity":100, "gate":0.5, "probability":1.0,  "ratchet":1, "cc1Value":64, "cc2Value":64},
          {"isActive":false, "note":60, "velocity":100, "gate":0.5, "probability":1.0,  "ratchet":1, "cc1Value":64, "cc2Value":64},
          {"isActive":false, "note":60, "velocity":100, "gate":0.5, "probability":1.0,  "ratchet":1, "cc1Value":64, "cc2Value":64},
          {"isActive":false, "note":60, "velocity":100, "gate":0.5, "probability":1.0,  "ratchet":1, "cc1Value":64, "cc2Value":64},
          {"isActive":false, "note":60, "velocity":100, "gate":0.5, "probability":1.0,  "ratchet":1, "cc1Value":64, "cc2Value":64},
          {"isActive":false, "note":60, "velocity":100, "gate":0.5, "probability":1.0,  "ratchet":1, "cc1Value":64, "cc2Value":64},
          {"isActive":false, "note":60, "velocity":100, "gate":0.5, "probability":1.0,  "ratchet":1, "cc1Value":64, "cc2Value":64},
          {"isActive":false, "note":60, "velocity":100, "gate":0.5, "probability":1.0,  "ratchet":1, "cc1Value":64, "cc2Value":64},
          {"isActive":false, "note":60, "velocity":100, "gate":0.5, "probability":1.0,  "ratchet":1, "cc1Value":64, "cc2Value":64},
          {"isActive":false, "note":60, "velocity":100, "gate":0.5, "probability":1.0,  "ratchet":1, "cc1Value":64, "cc2Value":64},
          {"isActive":false, "note":60, "velocity":100, "gate":0.5, "probability":1.0,  "ratchet":1, "cc1Value":64, "cc2Value":64},
          {"isActive":false, "note":60, "velocity":100, "gate":0.5, "probability":1.0,  "ratchet":1, "cc1Value":64, "cc2Value":64},
          {"isActive":false, "note":60, "velocity":100, "gate":0.5, "probability":1.0,  "ratchet":1, "cc1Value":64, "cc2Value":64},
          {"isActive":false, "note":60, "velocity":100, "gate":0.5, "probability":1.0,  "ratchet":1, "cc1Value":64, "cc2Value":64},
          {"isActive":false, "note":60, "velocity":100, "gate":0.5, "probability":1.0,  "ratchet":1, "cc1Value":64, "cc2Value":64},
          {"isActive":false, "note":60, "velocity":100, "gate":0.5, "probability":1.0,  "ratchet":1, "cc1Value":64, "cc2Value":64}
        ]
      }
    ]
  },
  {
    "name": "D - Chaos",
    "tracks": [
      {
        "name": "Chaos 13",
        "stepCount": 13,
        "midiChannel": 1,
        "cc1Number": 74,
        "cc2Number": 11,
        "cc1Label": "Filter",
        "cc2Label": "Expr",
        "direction": "RND",
        "isMuted": false,
        "isSolo": false,
        "isExpanded": true,
        "timingOffset": 0.0,
        "steps": [
          {"isActive":true,  "note":40, "velocity":110, "gate":0.6, "probability":1.0,  "ratchet":1, "cc1Value":60, "cc2Value":85},
          {"isActive":true,  "note":43, "velocity":95,  "gate":0.3, "probability":0.75, "ratchet":2, "cc1Value":68, "cc2Value":78},
          {"isActive":true,  "note":45, "velocity":105, "gate":0.55,"probability":1.0,  "ratchet":1, "cc1Value":75, "cc2Value":90},
          {"isActive":true,  "note":47, "velocity":90,  "gate":0.25,"probability":0.5,  "ratchet":4, "cc1Value":85, "cc2Value":95},
          {"isActive":true,  "note":52, "velocity":115, "gate":0.6, "probability":1.0,  "ratchet":1, "cc1Value":90, "cc2Value":100},
          {"isActive":true,  "note":40, "velocity":85,  "gate":0.4, "probability":0.75, "ratchet":1, "cc1Value":80, "cc2Value":88},
          {"isActive":true,  "note":55, "velocity":108, "gate":0.35,"probability":1.0,  "ratchet":2, "cc1Value":95, "cc2Value":95},
          {"isActive":true,  "note":43, "velocity":92,  "gate":0.6, "probability":0.5,  "ratchet":1, "cc1Value":70, "cc2Value":82},
          {"isActive":true,  "note":57, "velocity":120, "gate":0.5, "probability":1.0,  "ratchet":1, "cc1Value":100,"cc2Value":105},
          {"isActive":true,  "note":45, "velocity":88,  "gate":0.3, "probability":0.75, "ratchet":2, "cc1Value":78, "cc2Value":80},
          {"isActive":true,  "note":40, "velocity":100, "gate":0.6, "probability":1.0,  "ratchet":1, "cc1Value":65, "cc2Value":88},
          {"isActive":true,  "note":52, "velocity":95,  "gate":0.4, "probability":0.5,  "ratchet":1, "cc1Value":88, "cc2Value":92},
          {"isActive":true,  "note":47, "velocity":118, "gate":0.55,"probability":1.0,  "ratchet":4, "cc1Value":110,"cc2Value":110},
          {"isActive":false, "note":60, "velocity":100, "gate":0.5, "probability":1.0,  "ratchet":1, "cc1Value":64, "cc2Value":64},
          {"isActive":false, "note":60, "velocity":100, "gate":0.5, "probability":1.0,  "ratchet":1, "cc1Value":64, "cc2Value":64},
          {"isActive":false, "note":60, "velocity":100, "gate":0.5, "probability":1.0,  "ratchet":1, "cc1Value":64, "cc2Value":64},
          {"isActive":false, "note":60, "velocity":100, "gate":0.5, "probability":1.0,  "ratchet":1, "cc1Value":64, "cc2Value":64},
          {"isActive":false, "note":60, "velocity":100, "gate":0.5, "probability":1.0,  "ratchet":1, "cc1Value":64, "cc2Value":64},
          {"isActive":false, "note":60, "velocity":100, "gate":0.5, "probability":1.0,  "ratchet":1, "cc1Value":64, "cc2Value":64},
          {"isActive":false, "note":60, "velocity":100, "gate":0.5, "probability":1.0,  "ratchet":1, "cc1Value":64, "cc2Value":64},
          {"isActive":false, "note":60, "velocity":100, "gate":0.5, "probability":1.0,  "ratchet":1, "cc1Value":64, "cc2Value":64},
          {"isActive":false, "note":60, "velocity":100, "gate":0.5, "probability":1.0,  "ratchet":1, "cc1Value":64, "cc2Value":64},
          {"isActive":false, "note":60, "velocity":100, "gate":0.5, "probability":1.0,  "ratchet":1, "cc1Value":64, "cc2Value":64},
          {"isActive":false, "note":60, "velocity":100, "gate":0.5, "probability":1.0,  "ratchet":1, "cc1Value":64, "cc2Value":64},
          {"isActive":false, "note":60, "velocity":100, "gate":0.5, "probability":1.0,  "ratchet":1, "cc1Value":64, "cc2Value":64},
          {"isActive":false, "note":60, "velocity":100, "gate":0.5, "probability":1.0,  "ratchet":1, "cc1Value":64, "cc2Value":64},
          {"isActive":false, "note":60, "velocity":100, "gate":0.5, "probability":1.0,  "ratchet":1, "cc1Value":64, "cc2Value":64},
          {"isActive":false, "note":60, "velocity":100, "gate":0.5, "probability":1.0,  "ratchet":1, "cc1Value":64, "cc2Value":64},
          {"isActive":false, "note":60, "velocity":100, "gate":0.5, "probability":1.0,  "ratchet":1, "cc1Value":64, "cc2Value":64},
          {"isActive":false, "note":60, "velocity":100, "gate":0.5, "probability":1.0,  "ratchet":1, "cc1Value":64, "cc2Value":64},
          {"isActive":false, "note":60, "velocity":100, "gate":0.5, "probability":1.0,  "ratchet":1, "cc1Value":64, "cc2Value":64},
          {"isActive":false, "note":60, "velocity":100, "gate":0.5, "probability":1.0,  "ratchet":1, "cc1Value":64, "cc2Value":64}
        ]
      },
      {
        "name": "P-P 11",
        "stepCount": 11,
        "midiChannel": 2,
        "cc1Number": 74,
        "cc2Number": 11,
        "cc1Label": "Filter",
        "cc2Label": "Expr",
        "direction": "P-P",
        "isMuted": false,
        "isSolo": false,
        "isExpanded": false,
        "timingOffset": 0.0,
        "steps": [
          {"isActive":true,  "note":60, "velocity":85,  "gate":0.6, "probability":1.0,  "ratchet":1, "cc1Value":65, "cc2Value":80},
          {"isActive":true,  "note":61, "velocity":80,  "gate":0.55,"probability":0.75, "ratchet":1, "cc1Value":68, "cc2Value":76},
          {"isActive":true,  "note":62, "velocity":88,  "gate":0.6, "probability":1.0,  "ratchet":1, "cc1Value":72, "cc2Value":82},
          {"isActive":true,  "note":64, "velocity":92,  "gate":0.55,"probability":1.0,  "ratchet":1, "cc1Value":76, "cc2Value":86},
          {"isActive":true,  "note":65, "velocity":78,  "gate":0.6, "probability":0.75, "ratchet":1, "cc1Value":80, "cc2Value":80},
          {"isActive":true,  "note":67, "velocity":95,  "gate":0.5, "probability":1.0,  "ratchet":1, "cc1Value":85, "cc2Value":90},
          {"isActive":true,  "note":69, "velocity":88,  "gate":0.55,"probability":0.75, "ratchet":1, "cc1Value":88, "cc2Value":88},
          {"isActive":true,  "note":71, "velocity":82,  "gate":0.6, "probability":1.0,  "ratchet":1, "cc1Value":92, "cc2Value":92},
          {"isActive":true,  "note":72, "velocity":90,  "gate":0.5, "probability":0.5,  "ratchet":1, "cc1Value":96, "cc2Value":96},
          {"isActive":true,  "note":74, "velocity":98,  "gate":0.55,"probability":1.0,  "ratchet":1, "cc1Value":100,"cc2Value":100},
          {"isActive":true,  "note":69, "velocity":85,  "gate":0.6, "probability":0.75, "ratchet":1, "cc1Value":95, "cc2Value":95},
          {"isActive":false, "note":60, "velocity":100, "gate":0.5, "probability":1.0,  "ratchet":1, "cc1Value":64, "cc2Value":64},
          {"isActive":false, "note":60, "velocity":100, "gate":0.5, "probability":1.0,  "ratchet":1, "cc1Value":64, "cc2Value":64},
          {"isActive":false, "note":60, "velocity":100, "gate":0.5, "probability":1.0,  "ratchet":1, "cc1Value":64, "cc2Value":64},
          {"isActive":false, "note":60, "velocity":100, "gate":0.5, "probability":1.0,  "ratchet":1, "cc1Value":64, "cc2Value":64},
          {"isActive":false, "note":60, "velocity":100, "gate":0.5, "probability":1.0,  "ratchet":1, "cc1Value":64, "cc2Value":64},
          {"isActive":false, "note":60, "velocity":100, "gate":0.5, "probability":1.0,  "ratchet":1, "cc1Value":64, "cc2Value":64},
          {"isActive":false, "note":60, "velocity":100, "gate":0.5, "probability":1.0,  "ratchet":1, "cc1Value":64, "cc2Value":64},
          {"isActive":false, "note":60, "velocity":100, "gate":0.5, "probability":1.0,  "ratchet":1, "cc1Value":64, "cc2Value":64},
          {"isActive":false, "note":60, "velocity":100, "gate":0.5, "probability":1.0,  "ratchet":1, "cc1Value":64, "cc2Value":64},
          {"isActive":false, "note":60, "velocity":100, "gate":0.5, "probability":1.0,  "ratchet":1, "cc1Value":64, "cc2Value":64},
          {"isActive":false, "note":60, "velocity":100, "gate":0.5, "probability":1.0,  "ratchet":1, "cc1Value":64, "cc2Value":64},
          {"isActive":false, "note":60, "velocity":100, "gate":0.5, "probability":1.0,  "ratchet":1, "cc1Value":64, "cc2Value":64},
          {"isActive":false, "note":60, "velocity":100, "gate":0.5, "probability":1.0,  "ratchet":1, "cc1Value":64, "cc2Value":64},
          {"isActive":false, "note":60, "velocity":100, "gate":0.5, "probability":1.0,  "ratchet":1, "cc1Value":64, "cc2Value":64},
          {"isActive":false, "note":60, "velocity":100, "gate":0.5, "probability":1.0,  "ratchet":1, "cc1Value":64, "cc2Value":64},
          {"isActive":false, "note":60, "velocity":100, "gate":0.5, "probability":1.0,  "ratchet":1, "cc1Value":64, "cc2Value":64},
          {"isActive":false, "note":60, "velocity":100, "gate":0.5, "probability":1.0,  "ratchet":1, "cc1Value":64, "cc2Value":64},
          {"isActive":false, "note":60, "velocity":100, "gate":0.5, "probability":1.0,  "ratchet":1, "cc1Value":64, "cc2Value":64},
          {"isActive":false, "note":60, "velocity":100, "gate":0.5, "probability":1.0,  "ratchet":1, "cc1Value":64, "cc2Value":64},
          {"isActive":false, "note":60, "velocity":100, "gate":0.5, "probability":1.0,  "ratchet":1, "cc1Value":64, "cc2Value":64},
          {"isActive":false, "note":60, "velocity":100, "gate":0.5, "probability":1.0,  "ratchet":1, "cc1Value":64, "cc2Value":64}
        ]
      },
      {
        "name": "Drum 12",
        "stepCount": 12,
        "midiChannel": 10,
        "cc1Number": 74,
        "cc2Number": 11,
        "cc1Label": "Filter",
        "cc2Label": "Expr",
        "direction": "FWD",
        "isMuted": false,
        "isSolo": false,
        "isExpanded": false,
        "timingOffset": 0.0,
        "steps": [
          {"isActive":true,  "note":36, "velocity":120, "gate":0.5, "probability":1.0,  "ratchet":1, "cc1Value":64, "cc2Value":100},
          {"isActive":true,  "note":42, "velocity":80,  "gate":0.3, "probability":0.75, "ratchet":1, "cc1Value":64, "cc2Value":72},
          {"isActive":true,  "note":42, "velocity":75,  "gate":0.25,"probability":1.0,  "ratchet":2, "cc1Value":64, "cc2Value":68},
          {"isActive":true,  "note":38, "velocity":110, "gate":0.45,"probability":1.0,  "ratchet":1, "cc1Value":64, "cc2Value":92},
          {"isActive":true,  "note":42, "velocity":85,  "gate":0.3, "probability":0.5,  "ratchet":1, "cc1Value":64, "cc2Value":76},
          {"isActive":true,  "note":36, "velocity":95,  "gate":0.4, "probability":0.75, "ratchet":1, "cc1Value":64, "cc2Value":84},
          {"isActive":true,  "note":42, "velocity":90,  "gate":0.25,"probability":1.0,  "ratchet":4, "cc1Value":64, "cc2Value":88},
          {"isActive":true,  "note":38, "velocity":105, "gate":0.45,"probability":1.0,  "ratchet":1, "cc1Value":64, "cc2Value":90},
          {"isActive":true,  "note":36, "velocity":115, "gate":0.5, "probability":0.75, "ratchet":1, "cc1Value":64, "cc2Value":96},
          {"isActive":true,  "note":42, "velocity":78,  "gate":0.3, "probability":0.5,  "ratchet":1, "cc1Value":64, "cc2Value":70},
          {"isActive":true,  "note":46, "velocity":88,  "gate":0.35,"probability":0.75, "ratchet":1, "cc1Value":64, "cc2Value":80},
          {"isActive":true,  "note":38, "velocity":120, "gate":0.5, "probability":1.0,  "ratchet":2, "cc1Value":64, "cc2Value":100},
          {"isActive":false, "note":60, "velocity":100, "gate":0.5, "probability":1.0,  "ratchet":1, "cc1Value":64, "cc2Value":64},
          {"isActive":false, "note":60, "velocity":100, "gate":0.5, "probability":1.0,  "ratchet":1, "cc1Value":64, "cc2Value":64},
          {"isActive":false, "note":60, "velocity":100, "gate":0.5, "probability":1.0,  "ratchet":1, "cc1Value":64, "cc2Value":64},
          {"isActive":false, "note":60, "velocity":100, "gate":0.5, "probability":1.0,  "ratchet":1, "cc1Value":64, "cc2Value":64},
          {"isActive":false, "note":60, "velocity":100, "gate":0.5, "probability":1.0,  "ratchet":1, "cc1Value":64, "cc2Value":64},
          {"isActive":false, "note":60, "velocity":100, "gate":0.5, "probability":1.0,  "ratchet":1, "cc1Value":64, "cc2Value":64},
          {"isActive":false, "note":60, "velocity":100, "gate":0.5, "probability":1.0,  "ratchet":1, "cc1Value":64, "cc2Value":64},
          {"isActive":false, "note":60, "velocity":100, "gate":0.5, "probability":1.0,  "ratchet":1, "cc1Value":64, "cc2Value":64},
          {"isActive":false, "note":60, "velocity":100, "gate":0.5, "probability":1.0,  "ratchet":1, "cc1Value":64, "cc2Value":64},
          {"isActive":false, "note":60, "velocity":100, "gate":0.5, "probability":1.0,  "ratchet":1, "cc1Value":64, "cc2Value":64},
          {"isActive":false, "note":60, "velocity":100, "gate":0.5, "probability":1.0,  "ratchet":1, "cc1Value":64, "cc2Value":64},
          {"isActive":false, "note":60, "velocity":100, "gate":0.5, "probability":1.0,  "ratchet":1, "cc1Value":64, "cc2Value":64},
          {"isActive":false, "note":60, "velocity":100, "gate":0.5, "probability":1.0,  "ratchet":1, "cc1Value":64, "cc2Value":64},
          {"isActive":false, "note":60, "velocity":100, "gate":0.5, "probability":1.0,  "ratchet":1, "cc1Value":64, "cc2Value":64},
          {"isActive":false, "note":60, "velocity":100, "gate":0.5, "probability":1.0,  "ratchet":1, "cc1Value":64, "cc2Value":64},
          {"isActive":false, "note":60, "velocity":100, "gate":0.5, "probability":1.0,  "ratchet":1, "cc1Value":64, "cc2Value":64},
          {"isActive":false, "note":60, "velocity":100, "gate":0.5, "probability":1.0,  "ratchet":1, "cc1Value":64, "cc2Value":64},
          {"isActive":false, "note":60, "velocity":100, "gate":0.5, "probability":1.0,  "ratchet":1, "cc1Value":64, "cc2Value":64},
          {"isActive":false, "note":60, "velocity":100, "gate":0.5, "probability":1.0,  "ratchet":1, "cc1Value":64, "cc2Value":64},
          {"isActive":false, "note":60, "velocity":100, "gate":0.5, "probability":1.0,  "ratchet":1, "cc1Value":64, "cc2Value":64}
        ]
      },
      {
        "name": "REV 9",
        "stepCount": 9,
        "midiChannel": 3,
        "cc1Number": 74,
        "cc2Number": 11,
        "cc1Label": "Filter",
        "cc2Label": "Expr",
        "direction": "REV",
        "isMuted": false,
        "isSolo": false,
        "isExpanded": false,
        "timingOffset": 0.015,
        "steps": [
          {"isActive":true,  "note":52, "velocity":80,  "gate":0.75,"probability":1.0,  "ratchet":1, "cc1Value":62, "cc2Value":78},
          {"isActive":true,  "note":55, "velocity":75,  "gate":0.8, "probability":0.75, "ratchet":1, "cc1Value":66, "cc2Value":74},
          {"isActive":true,  "note":57, "velocity":82,  "gate":0.75,"probability":1.0,  "ratchet":1, "cc1Value":70, "cc2Value":80},
          {"isActive":true,  "note":59, "velocity":72,  "gate":0.8, "probability":0.5,  "ratchet":1, "cc1Value":74, "cc2Value":72},
          {"isActive":true,  "note":64, "velocity":88,  "gate":0.7, "probability":1.0,  "ratchet":1, "cc1Value":80, "cc2Value":86},
          {"isActive":true,  "note":55, "velocity":78,  "gate":0.75,"probability":0.75, "ratchet":1, "cc1Value":76, "cc2Value":80},
          {"isActive":true,  "note":67, "velocity":85,  "gate":0.7, "probability":1.0,  "ratchet":1, "cc1Value":84, "cc2Value":88},
          {"isActive":true,  "note":57, "velocity":70,  "gate":0.8, "probability":0.5,  "ratchet":1, "cc1Value":78, "cc2Value":76},
          {"isActive":true,  "note":52, "velocity":92,  "gate":0.75,"probability":1.0,  "ratchet":1, "cc1Value":86, "cc2Value":90},
          {"isActive":false, "note":60, "velocity":100, "gate":0.5, "probability":1.0,  "ratchet":1, "cc1Value":64, "cc2Value":64},
          {"isActive":false, "note":60, "velocity":100, "gate":0.5, "probability":1.0,  "ratchet":1, "cc1Value":64, "cc2Value":64},
          {"isActive":false, "note":60, "velocity":100, "gate":0.5, "probability":1.0,  "ratchet":1, "cc1Value":64, "cc2Value":64},
          {"isActive":false, "note":60, "velocity":100, "gate":0.5, "probability":1.0,  "ratchet":1, "cc1Value":64, "cc2Value":64},
          {"isActive":false, "note":60, "velocity":100, "gate":0.5, "probability":1.0,  "ratchet":1, "cc1Value":64, "cc2Value":64},
          {"isActive":false, "note":60, "velocity":100, "gate":0.5, "probability":1.0,  "ratchet":1, "cc1Value":64, "cc2Value":64},
          {"isActive":false, "note":60, "velocity":100, "gate":0.5, "probability":1.0,  "ratchet":1, "cc1Value":64, "cc2Value":64},
          {"isActive":false, "note":60, "velocity":100, "gate":0.5, "probability":1.0,  "ratchet":1, "cc1Value":64, "cc2Value":64},
          {"isActive":false, "note":60, "velocity":100, "gate":0.5, "probability":1.0,  "ratchet":1, "cc1Value":64, "cc2Value":64},
          {"isActive":false, "note":60, "velocity":100, "gate":0.5, "probability":1.0,  "ratchet":1, "cc1Value":64, "cc2Value":64},
          {"isActive":false, "note":60, "velocity":100, "gate":0.5, "probability":1.0,  "ratchet":1, "cc1Value":64, "cc2Value":64},
          {"isActive":false, "note":60, "velocity":100, "gate":0.5, "probability":1.0,  "ratchet":1, "cc1Value":64, "cc2Value":64},
          {"isActive":false, "note":60, "velocity":100, "gate":0.5, "probability":1.0,  "ratchet":1, "cc1Value":64, "cc2Value":64},
          {"isActive":false, "note":60, "velocity":100, "gate":0.5, "probability":1.0,  "ratchet":1, "cc1Value":64, "cc2Value":64},
          {"isActive":false, "note":60, "velocity":100, "gate":0.5, "probability":1.0,  "ratchet":1, "cc1Value":64, "cc2Value":64},
          {"isActive":false, "note":60, "velocity":100, "gate":0.5, "probability":1.0,  "ratchet":1, "cc1Value":64, "cc2Value":64},
          {"isActive":false, "note":60, "velocity":100, "gate":0.5, "probability":1.0,  "ratchet":1, "cc1Value":64, "cc2Value":64},
          {"isActive":false, "note":60, "velocity":100, "gate":0.5, "probability":1.0,  "ratchet":1, "cc1Value":64, "cc2Value":64},
          {"isActive":false, "note":60, "velocity":100, "gate":0.5, "probability":1.0,  "ratchet":1, "cc1Value":64, "cc2Value":64},
          {"isActive":false, "note":60, "velocity":100, "gate":0.5, "probability":1.0,  "ratchet":1, "cc1Value":64, "cc2Value":64},
          {"isActive":false, "note":60, "velocity":100, "gate":0.5, "probability":1.0,  "ratchet":1, "cc1Value":64, "cc2Value":64},
          {"isActive":false, "note":60, "velocity":100, "gate":0.5, "probability":1.0,  "ratchet":1, "cc1Value":64, "cc2Value":64},
          {"isActive":false, "note":60, "velocity":100, "gate":0.5, "probability":1.0,  "ratchet":1, "cc1Value":64, "cc2Value":64}
        ]
      }
    ]
  }
]
